<svg width="16.666016" height="17.916992" viewBox="0 0 16.666 17.917" fill="none" xmlns="http://www.w3.org/2000/svg" xmlns:xlink="http://www.w3.org/1999/xlink">
	<desc>
			Created with Pixso.
	</desc>
	<defs/>
	<path id="Vector" d="M8.33 0C5.8 0 3.75 2.05 3.75 4.58C3.75 7.11 5.8 9.16 8.33 9.16C10.86 9.16 12.91 7.11 12.91 4.58C12.91 2.05 10.86 0 8.33 0ZM5.41 4.58C5.41 2.97 6.72 1.66 8.33 1.66C9.94 1.66 11.25 2.97 11.25 4.58C11.25 6.19 9.94 7.5 8.33 7.5C6.72 7.5 5.41 6.19 5.41 4.58ZM3.41 10C2.32 10 1.19 10.54 0.68 11.66C0.39 12.3 0.08 13.16 0 14.06C-0.07 14.88 0.27 15.74 1.04 16.21C2.17 16.91 4.46 17.91 8.33 17.91C12.19 17.91 14.49 16.91 15.62 16.21C16.38 15.74 16.72 14.88 16.65 14.06C16.58 13.16 16.26 12.3 15.97 11.66C15.47 10.54 14.33 10 13.24 10L3.41 10ZM2.2 12.35C2.39 11.94 2.84 11.66 3.41 11.66L13.24 11.66C13.82 11.66 14.27 11.94 14.45 12.35C14.71 12.91 14.94 13.57 14.99 14.2C15.02 14.49 14.9 14.7 14.74 14.8C13.88 15.33 11.89 16.25 8.33 16.25C4.77 16.25 2.78 15.33 1.92 14.8C1.76 14.7 1.64 14.49 1.66 14.2C1.72 13.57 1.95 12.91 2.2 12.35Z" fill="#424551" fill-opacity="1.000000" fill-rule="evenodd"/>
</svg>
