<svg width="13.333008" height="14.333008" viewBox="0 0 13.333 14.333" fill="none" xmlns="http://www.w3.org/2000/svg" xmlns:xlink="http://www.w3.org/1999/xlink">
	<desc>
			Created with Pixso.
	</desc>
	<defs/>
	<path id="Vector" d="M6.66 0C4.64 0 3 1.64 3 3.66C3 5.69 4.64 7.33 6.66 7.33C8.69 7.33 10.33 5.69 10.33 3.66C10.33 1.64 8.69 0 6.66 0ZM4.33 3.66C4.33 2.37 5.37 1.33 6.66 1.33C7.95 1.33 9 2.37 9 3.66C9 4.95 7.95 6 6.66 6C5.37 6 4.33 4.95 4.33 3.66ZM2.73 8C1.86 8 0.95 8.43 0.55 9.33C0.31 9.84 0.06 10.53 0 11.25C-0.05 11.9 0.22 12.59 0.83 12.97C1.73 13.53 3.57 14.33 6.66 14.33C9.75 14.33 11.59 13.53 12.49 12.97C13.1 12.59 13.38 11.9 13.32 11.25C13.26 10.53 13.01 9.84 12.78 9.33C12.37 8.43 11.47 8 10.59 8L2.73 8ZM1.76 9.88C1.91 9.55 2.27 9.33 2.73 9.33L10.59 9.33C11.05 9.33 11.42 9.55 11.56 9.88C11.77 10.32 11.95 10.86 11.99 11.36C12.01 11.59 11.92 11.75 11.79 11.84C11.1 12.26 9.51 13 6.66 13C3.81 13 2.22 12.26 1.54 11.84C1.41 11.75 1.31 11.59 1.33 11.36C1.37 10.86 1.56 10.32 1.76 9.88Z" fill="#FF3F3A" fill-opacity="1.000000" fill-rule="evenodd"/>
</svg>
