<svg width="14.666748" height="14.666992" viewBox="0 0 14.6667 14.667" fill="none" xmlns="http://www.w3.org/2000/svg" xmlns:xlink="http://www.w3.org/1999/xlink">
	<desc>
			Created with Pixso.
	</desc>
	<defs/>
	<path id="Vector" d="M7.33 0C3.28 0 0 3.28 0 7.33C0 11.38 3.28 14.66 7.33 14.66C11.38 14.66 14.66 11.38 14.66 7.33C14.66 3.28 11.38 0 7.33 0ZM1.33 7.33C1.33 4.01 4.01 1.33 7.33 1.33C10.64 1.33 13.33 4.01 13.33 7.33C13.33 10.64 10.64 13.33 7.33 13.33C4.01 13.33 1.33 10.64 1.33 7.33ZM10.04 8.39C10.74 7.85 10.74 6.8 10.04 6.27L6.99 3.94C6.11 3.26 4.84 3.89 4.84 5L4.84 9.66C4.84 10.77 6.11 11.39 6.99 10.72L10.04 8.39ZM6.18 5L9.23 7.33L6.18 9.66L6.18 5Z" fill="#FF3F3A" fill-opacity="1.000000" fill-rule="evenodd"/>
</svg>
