<svg width="14.666748" height="14.079102" viewBox="0 0 14.6667 14.0791" fill="none" xmlns="http://www.w3.org/2000/svg" xmlns:xlink="http://www.w3.org/1999/xlink">
	<desc>
			Created with Pixso.
	</desc>
	<defs/>
	<path id="Star (Stroke)" d="M6.11 0.8C6.57 -0.27 8.09 -0.27 8.55 0.8L9.95 4.03L13.46 4.36C14.61 4.47 15.08 5.91 14.21 6.68L11.57 9.01L12.34 12.45C12.59 13.59 11.36 14.48 10.36 13.89L7.33 12.1L4.3 13.89C3.29 14.48 2.07 13.59 2.32 12.45L3.09 9.01L0.45 6.68C-0.43 5.91 0.04 4.47 1.2 4.36L4.71 4.03L6.11 0.8ZM8.73 4.56L7.33 1.33L5.93 4.56C5.73 5 5.32 5.31 4.83 5.35L1.33 5.69L3.97 8.02C4.33 8.34 4.49 8.83 4.39 9.3L3.62 12.74L6.65 10.95C7.07 10.7 7.59 10.7 8 10.95L11.04 12.74L10.27 9.3C10.17 8.83 10.33 8.34 10.69 8.02L13.33 5.69L9.82 5.35C9.34 5.31 8.92 5 8.73 4.56Z" fill="#FF3F3A" fill-opacity="1.000000" fill-rule="evenodd"/>
</svg>
