<svg width="15.333008" height="14.666992" viewBox="0 0 15.333 14.667" fill="none" xmlns="http://www.w3.org/2000/svg" xmlns:xlink="http://www.w3.org/1999/xlink">
	<desc>
			Created with Pixso.
	</desc>
	<defs/>
	<path id="Vector" d="M14.66 7.33C14.66 11.37 11.37 14.66 7.33 14.66C3.29 14.66 0 11.37 0 7.33C0 3.29 3.29 0 7.33 0C8.8 0 10.21 0.43 11.42 1.24C11.7 1.43 11.77 1.81 11.58 2.09C11.4 2.37 11.02 2.44 10.74 2.25C9.73 1.58 8.55 1.22 7.33 1.22C3.96 1.22 1.22 3.96 1.22 7.33C1.22 10.7 3.96 13.44 7.33 13.44C10.7 13.44 13.44 10.7 13.44 7.33C13.44 6.75 13.36 6.17 13.2 5.63C13.1 5.3 13.29 4.96 13.61 4.87C13.94 4.77 14.28 4.96 14.37 5.28C14.56 5.94 14.66 6.63 14.66 7.33ZM7.33 7.72L14.19 0.86C14.45 0.6 14.87 0.6 15.13 0.86C15.39 1.12 15.39 1.54 15.13 1.8L7.8 9.13C7.67 9.26 7.5 9.33 7.33 9.33C7.16 9.33 6.99 9.26 6.86 9.13L4.19 6.47C3.93 6.21 3.93 5.78 4.19 5.52C4.45 5.26 4.87 5.26 5.13 5.52L7.33 7.72Z" fill="#FF3F3A" fill-opacity="1.000000" fill-rule="evenodd"/>
</svg>
