<svg width="215.651855" height="224.544922" viewBox="0 0 215.652 224.545" fill="none" xmlns="http://www.w3.org/2000/svg" xmlns:xlink="http://www.w3.org/1999/xlink">
	<desc>
			Created with Pixso.
	</desc>
	<defs>
		<clipPath id="clip2234_9590">
			<rect id="dots" width="181.183578" height="132.738770" transform="translate(0.000000 143.662109) rotate(-52.458374)" fill="white" fill-opacity="0"/>
		</clipPath>
	</defs>
	<g opacity="0.800000">
		<g clip-path="url(#clip2234_9590)">
			<path id="Vector" d="M34.08 163.33C35.25 164.23 35.45 165.78 34.55 166.95C33.65 168.12 32.1 168.33 30.93 167.43C29.76 166.53 29.56 164.98 30.46 163.81C31.36 162.64 33.01 162.51 34.08 163.33Z" fill="#FFCF2D" fill-opacity="1.000000" fill-rule="nonzero"/>
			<path id="Vector" d="M47.5 145.86C48.67 146.76 48.87 148.31 47.97 149.48C47.07 150.65 45.52 150.86 44.35 149.96C43.19 149.06 42.99 147.51 43.89 146.34C44.71 145.27 46.43 145.04 47.5 145.86Z" fill="#FFCF2D" fill-opacity="1.000000" fill-rule="nonzero"/>
			<path id="Vector" d="M60.85 128.49C62.02 129.39 62.22 130.94 61.32 132.11C60.42 133.28 58.87 133.48 57.7 132.59C56.54 131.69 56.34 130.14 57.24 128.97C58.14 127.8 59.78 127.67 60.85 128.49Z" fill="#FFCF2D" fill-opacity="1.000000" fill-rule="nonzero"/>
			<path id="Vector" d="M74.28 111.02C75.45 111.92 75.65 113.47 74.75 114.64C73.85 115.81 72.3 116.01 71.13 115.12C69.96 114.22 69.76 112.67 70.66 111.5C71.56 110.33 73.21 110.2 74.28 111.02Z" fill="#FFCF2D" fill-opacity="1.000000" fill-rule="nonzero"/>
			<path id="Vector" d="M87.7 93.55C88.87 94.45 89.07 96 88.17 97.17C87.27 98.34 85.72 98.54 84.55 97.65C83.39 96.75 83.19 95.2 84.09 94.03C84.91 92.95 86.63 92.73 87.7 93.55Z" fill="#FFCF2D" fill-opacity="1.000000" fill-rule="nonzero"/>
			<path id="Vector" d="M101.13 76.08C102.3 76.98 102.5 78.53 101.6 79.7C100.7 80.87 99.15 81.07 97.98 80.18C96.81 79.28 96.61 77.73 97.51 76.56C98.41 75.39 100.06 75.26 101.13 76.08Z" fill="#FFCF2D" fill-opacity="1.000000" fill-rule="nonzero"/>
			<path id="Vector" d="M114.48 58.71C115.65 59.6 115.85 61.15 114.95 62.33C114.05 63.5 112.5 63.7 111.33 62.8C110.16 61.91 109.96 60.36 110.86 59.19C111.76 58.01 113.41 57.88 114.48 58.71Z" fill="#FFCF2D" fill-opacity="1.000000" fill-rule="nonzero"/>
			<path id="Vector" d="M127.91 41.24C129.07 42.13 129.27 43.68 128.37 44.86C127.47 46.03 125.92 46.23 124.76 45.33C123.59 44.44 123.39 42.89 124.29 41.72C125.19 40.54 126.83 40.41 127.91 41.24Z" fill="#FFCF2D" fill-opacity="1.000000" fill-rule="nonzero"/>
			<path id="Vector" d="M141.33 23.77C142.5 24.66 142.7 26.21 141.8 27.39C140.9 28.56 139.35 28.76 138.18 27.87C137.01 26.97 136.81 25.42 137.71 24.25C138.54 23.17 140.26 22.94 141.33 23.77Z" fill="#FFCF2D" fill-opacity="1.000000" fill-rule="nonzero"/>
			<path id="Vector" d="M48.57 174.47C49.74 175.37 49.94 176.92 49.04 178.09C48.14 179.26 46.59 179.46 45.42 178.57C44.25 177.67 44.05 176.12 44.95 174.95C45.85 173.78 47.4 173.57 48.57 174.47Z" fill="#FFCF2D" fill-opacity="1.000000" fill-rule="nonzero"/>
			<path id="Vector" d="M62 157C63.16 157.89 63.36 159.45 62.46 160.62C61.56 161.79 60.01 161.99 58.85 161.1C57.68 160.2 57.48 158.65 58.38 157.48C59.2 156.4 60.83 156.1 62 157Z" fill="#FFCF2D" fill-opacity="1.000000" fill-rule="nonzero"/>
			<path id="Vector" d="M75.35 139.63C76.51 140.52 76.71 142.07 75.81 143.25C74.91 144.42 73.36 144.62 72.2 143.72C71.03 142.83 70.83 141.28 71.73 140.11C72.63 138.93 74.18 138.73 75.35 139.63Z" fill="#FFCF2D" fill-opacity="1.000000" fill-rule="nonzero"/>
			<path id="Vector" d="M88.77 122.16C89.94 123.05 90.14 124.6 89.24 125.78C88.34 126.95 86.79 127.15 85.62 126.26C84.46 125.36 84.25 123.81 85.15 122.64C86.05 121.47 87.6 121.26 88.77 122.16Z" fill="#FFCF2D" fill-opacity="1.000000" fill-rule="nonzero"/>
			<path id="Vector" d="M102.2 104.69C103.37 105.58 103.57 107.14 102.67 108.31C101.77 109.48 100.22 109.68 99.05 108.79C97.88 107.89 97.68 106.34 98.58 105.17C99.4 104.09 101.03 103.79 102.2 104.69Z" fill="#FFCF2D" fill-opacity="1.000000" fill-rule="nonzero"/>
			<path id="Vector" d="M115.62 87.22C116.79 88.11 116.99 89.66 116.09 90.83C115.19 92.01 113.64 92.21 112.47 91.31C111.31 90.42 111.11 88.87 112.01 87.7C112.91 86.52 114.46 86.32 115.62 87.22Z" fill="#FFCF2D" fill-opacity="1.000000" fill-rule="nonzero"/>
			<path id="Vector" d="M128.97 69.84C130.14 70.74 130.34 72.29 129.44 73.46C128.54 74.63 126.99 74.84 125.82 73.94C124.66 73.05 124.46 71.5 125.36 70.32C126.26 69.15 127.81 68.95 128.97 69.84Z" fill="#FFCF2D" fill-opacity="1.000000" fill-rule="nonzero"/>
			<path id="Vector" d="M142.4 52.37C143.57 53.27 143.77 54.82 142.87 55.99C141.97 57.16 140.42 57.37 139.25 56.47C138.08 55.58 137.88 54.03 138.78 52.85C139.68 51.68 141.23 51.48 142.4 52.37Z" fill="#FFCF2D" fill-opacity="1.000000" fill-rule="nonzero"/>
			<path id="Vector" d="M155.82 34.9C156.99 35.8 157.19 37.35 156.29 38.52C155.39 39.7 153.84 39.9 152.67 39C151.51 38.11 151.31 36.56 152.21 35.38C153.03 34.31 154.66 34.01 155.82 34.9Z" fill="#FFCF2D" fill-opacity="1.000000" fill-rule="nonzero"/>
			<path id="Vector" d="M5.19 141.13C6.35 142.03 6.56 143.58 5.66 144.75C4.76 145.92 3.2 146.12 2.04 145.23C0.87 144.33 0.67 142.78 1.57 141.61C2.47 140.44 4.02 140.23 5.19 141.13Z" fill="#FFCF2D" fill-opacity="1.000000" fill-rule="nonzero"/>
			<path id="Vector" d="M18.61 123.66C19.78 124.56 19.98 126.11 19.08 127.28C18.18 128.45 16.63 128.65 15.46 127.76C14.3 126.86 14.1 125.31 15 124.14C15.82 123.06 17.45 122.76 18.61 123.66Z" fill="#FFCF2D" fill-opacity="1.000000" fill-rule="nonzero"/>
			<path id="Vector" d="M31.96 106.29C33.13 107.18 33.33 108.73 32.43 109.91C31.53 111.08 29.98 111.28 28.81 110.39C27.65 109.49 27.52 107.84 28.35 106.77C29.25 105.6 30.8 105.39 31.96 106.29Z" fill="#FFCF2D" fill-opacity="1.000000" fill-rule="nonzero"/>
			<path id="Vector" d="M45.39 88.82C46.56 89.71 46.76 91.26 45.86 92.44C44.96 93.61 43.41 93.81 42.24 92.91C41.07 92.02 40.95 90.37 41.77 89.3C42.6 88.22 44.22 87.92 45.39 88.82Z" fill="#FFCF2D" fill-opacity="1.000000" fill-rule="nonzero"/>
			<path id="Vector" d="M58.81 71.35C59.98 72.24 60.18 73.79 59.28 74.97C58.38 76.14 56.83 76.34 55.66 75.45C54.5 74.55 54.3 73 55.2 71.83C56.02 70.75 57.65 70.45 58.81 71.35Z" fill="#FFCF2D" fill-opacity="1.000000" fill-rule="nonzero"/>
			<path id="Vector" d="M72.24 53.88C73.41 54.77 73.61 56.32 72.71 57.5C71.81 58.67 70.26 58.87 69.09 57.97C67.92 57.08 67.72 55.53 68.62 54.36C69.52 53.18 71.07 52.98 72.24 53.88Z" fill="#FFCF2D" fill-opacity="1.000000" fill-rule="nonzero"/>
			<path id="Vector" d="M85.59 36.5C86.76 37.4 86.96 38.95 86.06 40.12C85.16 41.3 83.61 41.5 82.44 40.6C81.27 39.71 81.07 38.16 81.97 36.98C82.87 35.81 84.42 35.61 85.59 36.5Z" fill="#FFCF2D" fill-opacity="1.000000" fill-rule="nonzero"/>
			<path id="Vector" d="M99.01 19.03C100.18 19.93 100.38 21.48 99.48 22.65C98.58 23.83 97.03 24.03 95.86 23.13C94.7 22.24 94.5 20.69 95.4 19.51C96.3 18.34 97.85 18.14 99.01 19.03Z" fill="#FFCF2D" fill-opacity="1.000000" fill-rule="nonzero"/>
			<path id="Vector" d="M112.44 1.56C113.61 2.46 113.81 4.01 112.91 5.18C112.01 6.36 110.46 6.56 109.29 5.66C108.12 4.77 107.92 3.22 108.82 2.04C109.65 0.97 111.27 0.67 112.44 1.56Z" fill="#FFCF2D" fill-opacity="1.000000" fill-rule="nonzero"/>
			<path id="Vector" d="M19.68 152.27C20.85 153.16 21.05 154.72 20.15 155.89C19.25 157.06 17.6 157.19 16.53 156.37C15.36 155.47 15.16 153.92 16.06 152.75C16.96 151.58 18.51 151.37 19.68 152.27Z" fill="#FFCF2D" fill-opacity="1.000000" fill-rule="nonzero"/>
			<path id="Vector" d="M33.11 134.8C34.27 135.69 34.47 137.24 33.57 138.42C32.67 139.59 31.12 139.79 29.96 138.89C28.79 138 28.59 136.45 29.49 135.28C30.31 134.2 31.94 133.9 33.11 134.8Z" fill="#FFCF2D" fill-opacity="1.000000" fill-rule="nonzero"/>
			<path id="Vector" d="M46.46 117.43C47.62 118.32 47.82 119.87 46.92 121.04C46.02 122.22 44.47 122.42 43.31 121.52C42.14 120.63 41.94 119.08 42.84 117.9C43.74 116.73 45.29 116.53 46.46 117.43Z" fill="#FFCF2D" fill-opacity="1.000000" fill-rule="nonzero"/>
			<path id="Vector" d="M59.88 99.95C61.05 100.85 61.25 102.4 60.35 103.57C59.45 104.75 57.9 104.95 56.73 104.05C55.56 103.16 55.36 101.61 56.26 100.43C57.16 99.26 58.71 99.06 59.88 99.95Z" fill="#FFCF2D" fill-opacity="1.000000" fill-rule="nonzero"/>
			<path id="Vector" d="M73.31 82.48C74.47 83.38 74.68 84.93 73.78 86.1C72.88 87.28 71.32 87.48 70.16 86.58C68.99 85.69 68.79 84.14 69.69 82.96C70.51 81.89 72.14 81.59 73.31 82.48Z" fill="#FFCF2D" fill-opacity="1.000000" fill-rule="nonzero"/>
			<path id="Vector" d="M86.73 65.01C87.9 65.91 88.1 67.46 87.2 68.63C86.3 69.81 84.75 70.01 83.58 69.11C82.42 68.22 82.21 66.67 83.12 65.49C84.02 64.32 85.57 64.12 86.73 65.01Z" fill="#FFCF2D" fill-opacity="1.000000" fill-rule="nonzero"/>
			<path id="Vector" d="M100.08 47.64C101.25 48.54 101.45 50.09 100.55 51.26C99.65 52.43 98.1 52.64 96.93 51.74C95.77 50.84 95.56 49.29 96.47 48.12C97.37 46.95 98.92 46.75 100.08 47.64Z" fill="#FFCF2D" fill-opacity="1.000000" fill-rule="nonzero"/>
			<path id="Vector" d="M113.51 30.17C114.68 31.07 114.88 32.62 113.98 33.79C113.08 34.96 111.53 35.17 110.36 34.27C109.19 33.37 108.99 31.82 109.89 30.65C110.79 29.48 112.34 29.28 113.51 30.17Z" fill="#FFCF2D" fill-opacity="1.000000" fill-rule="nonzero"/>
			<path id="Vector" d="M126.93 12.7C128.1 13.6 128.3 15.15 127.4 16.32C126.5 17.49 124.95 17.7 123.78 16.8C122.62 15.91 122.42 14.35 123.32 13.18C124.14 12.11 125.77 11.81 126.93 12.7Z" fill="#FFCF2D" fill-opacity="1.000000" fill-rule="nonzero"/>
			<path id="Vector" d="M62.97 185.53C64.14 186.43 64.34 187.98 63.44 189.15C62.54 190.32 60.99 190.53 59.82 189.63C58.65 188.73 58.45 187.18 59.35 186.01C60.25 184.84 61.9 184.71 62.97 185.53Z" fill="#FFCF2D" fill-opacity="1.000000" fill-rule="nonzero"/>
			<path id="Vector" d="M76.39 168.06C77.56 168.96 77.76 170.51 76.86 171.68C75.96 172.85 74.41 173.06 73.24 172.16C72.08 171.26 71.88 169.71 72.78 168.54C73.6 167.47 75.32 167.24 76.39 168.06Z" fill="#FFCF2D" fill-opacity="1.000000" fill-rule="nonzero"/>
			<path id="Vector" d="M89.74 150.69C90.91 151.59 91.11 153.14 90.21 154.31C89.31 155.48 87.76 155.69 86.59 154.79C85.43 153.89 85.23 152.34 86.13 151.17C87.03 150 88.67 149.87 89.74 150.69Z" fill="#FFCF2D" fill-opacity="1.000000" fill-rule="nonzero"/>
			<path id="Vector" d="M103.17 133.22C104.34 134.12 104.54 135.67 103.64 136.84C102.74 138.01 101.19 138.22 100.02 137.32C98.85 136.42 98.65 134.87 99.55 133.7C100.45 132.53 102.1 132.4 103.17 133.22Z" fill="#FFCF2D" fill-opacity="1.000000" fill-rule="nonzero"/>
			<path id="Vector" d="M116.6 115.75C117.76 116.65 117.96 118.2 117.06 119.37C116.16 120.54 114.61 120.75 113.45 119.85C112.28 118.95 112.08 117.4 112.98 116.23C113.8 115.16 115.52 114.93 116.6 115.75Z" fill="#FFCF2D" fill-opacity="1.000000" fill-rule="nonzero"/>
			<path id="Vector" d="M130.02 98.28C131.19 99.18 131.39 100.73 130.49 101.9C129.59 103.07 128.04 103.28 126.87 102.38C125.7 101.48 125.5 99.93 126.4 98.76C127.3 97.59 128.95 97.46 130.02 98.28Z" fill="#FFCF2D" fill-opacity="1.000000" fill-rule="nonzero"/>
			<path id="Vector" d="M143.37 80.91C144.54 81.8 144.74 83.36 143.84 84.53C142.94 85.7 141.39 85.9 140.22 85.01C139.05 84.11 138.85 82.56 139.75 81.39C140.65 80.22 142.3 80.08 143.37 80.91Z" fill="#FFCF2D" fill-opacity="1.000000" fill-rule="nonzero"/>
			<path id="Vector" d="M156.8 63.44C157.96 64.33 158.16 65.89 157.26 67.06C156.36 68.23 154.81 68.43 153.64 67.54C152.48 66.64 152.28 65.09 153.18 63.92C154.08 62.75 155.73 62.62 156.8 63.44Z" fill="#FFCF2D" fill-opacity="1.000000" fill-rule="nonzero"/>
			<path id="Vector" d="M170.22 45.97C171.39 46.87 171.59 48.42 170.69 49.59C169.79 50.76 168.24 50.96 167.07 50.07C165.9 49.17 165.7 47.62 166.6 46.45C167.43 45.37 169.15 45.15 170.22 45.97Z" fill="#FFCF2D" fill-opacity="1.000000" fill-rule="nonzero"/>
			<path id="Vector" d="M77.46 196.67C78.63 197.57 78.83 199.12 77.93 200.29C77.03 201.46 75.48 201.67 74.31 200.77C73.14 199.87 72.94 198.32 73.84 197.15C74.74 195.98 76.29 195.77 77.46 196.67Z" fill="#FFCF2D" fill-opacity="1.000000" fill-rule="nonzero"/>
			<path id="Vector" d="M90.89 179.2C92.05 180.1 92.26 181.65 91.36 182.82C90.46 183.99 88.9 184.2 87.74 183.3C86.57 182.4 86.37 180.85 87.27 179.68C88.09 178.61 89.72 178.3 90.89 179.2Z" fill="#FFCF2D" fill-opacity="1.000000" fill-rule="nonzero"/>
			<path id="Vector" d="M104.24 161.83C105.41 162.72 105.61 164.28 104.71 165.45C103.81 166.62 102.26 166.82 101.09 165.93C99.92 165.03 99.72 163.48 100.62 162.31C101.52 161.14 103.07 160.93 104.24 161.83Z" fill="#FFCF2D" fill-opacity="1.000000" fill-rule="nonzero"/>
			<path id="Vector" d="M117.66 144.36C118.79 145.22 119 146.85 118.13 147.98C117.26 149.11 115.64 149.32 114.51 148.46C113.39 147.59 113.18 145.97 114.05 144.84C114.92 143.71 116.54 143.49 117.66 144.36Z" fill="#FFCF2D" fill-opacity="1.000000" fill-rule="evenodd"/>
			<path id="Vector" d="M131.09 126.89C132.25 127.79 132.46 129.34 131.56 130.51C130.66 131.68 129.11 131.88 127.94 130.99C126.77 130.09 126.57 128.54 127.47 127.37C128.3 126.29 129.92 125.99 131.09 126.89Z" fill="#FFCF2D" fill-opacity="1.000000" fill-rule="nonzero"/>
			<path id="Vector" d="M144.51 109.42C145.68 110.32 145.88 111.87 144.98 113.04C144.08 114.21 142.53 114.41 141.36 113.52C140.2 112.62 140 111.07 140.9 109.9C141.8 108.73 143.35 108.52 144.51 109.42Z" fill="#FFCF2D" fill-opacity="1.000000" fill-rule="nonzero"/>
			<path id="Vector" d="M157.86 92.05C159.03 92.94 159.23 94.49 158.33 95.66C157.43 96.84 155.88 97.04 154.71 96.14C153.55 95.25 153.35 93.7 154.25 92.53C155.15 91.35 156.7 91.15 157.86 92.05Z" fill="#FFCF2D" fill-opacity="1.000000" fill-rule="nonzero"/>
			<path id="Vector" d="M171.29 74.58C172.42 75.44 172.63 77.06 171.76 78.2C170.89 79.33 169.27 79.54 168.14 78.67C167.01 77.81 166.8 76.19 167.67 75.06C168.54 73.92 170.16 73.71 171.29 74.58Z" fill="#FFCF2D" fill-opacity="1.000000" fill-rule="evenodd"/>
			<path id="Vector" d="M184.71 57.11C185.88 58 186.08 59.55 185.18 60.73C184.28 61.9 182.73 62.1 181.56 61.21C180.4 60.31 180.2 58.76 181.1 57.59C181.92 56.51 183.55 56.21 184.71 57.11Z" fill="#FFCF2D" fill-opacity="1.000000" fill-rule="nonzero"/>
			<path id="Vector" d="M91.96 207.81C93.12 208.71 93.32 210.26 92.42 211.43C91.52 212.6 89.97 212.8 88.81 211.91C87.64 211.01 87.44 209.46 88.34 208.29C89.24 207.12 90.79 206.91 91.96 207.81Z" fill="#FFCF2D" fill-opacity="1.000000" fill-rule="nonzero"/>
			<path id="Vector" d="M105.38 190.34C106.55 191.24 106.75 192.79 105.85 193.96C104.95 195.13 103.4 195.33 102.23 194.44C101.06 193.54 100.86 191.99 101.76 190.82C102.59 189.74 104.21 189.44 105.38 190.34Z" fill="#FFCF2D" fill-opacity="1.000000" fill-rule="nonzero"/>
			<path id="Vector" d="M118.73 172.97C119.9 173.86 120.1 175.41 119.2 176.59C118.3 177.76 116.75 177.96 115.58 177.06C114.41 176.17 114.21 174.62 115.11 173.45C116.01 172.27 117.56 172.07 118.73 172.97Z" fill="#FFCF2D" fill-opacity="1.000000" fill-rule="nonzero"/>
			<path id="Vector" d="M132.16 155.5C133.32 156.39 133.52 157.94 132.62 159.12C131.72 160.29 130.17 160.49 129.01 159.6C127.84 158.7 127.64 157.15 128.54 155.98C129.44 154.81 130.99 154.6 132.16 155.5Z" fill="#FFCF2D" fill-opacity="1.000000" fill-rule="nonzero"/>
			<path id="Vector" d="M145.58 138.03C146.75 138.92 146.95 140.47 146.05 141.64C145.15 142.82 143.6 143.02 142.43 142.13C141.27 141.23 141.06 139.68 141.96 138.51C142.79 137.43 144.41 137.13 145.58 138.03Z" fill="#FFCF2D" fill-opacity="1.000000" fill-rule="nonzero"/>
			<path id="Vector" d="M159.01 120.56C160.17 121.45 160.38 123 159.48 124.18C158.58 125.35 157.02 125.55 155.86 124.65C154.69 123.76 154.49 122.21 155.39 121.04C156.29 119.86 157.84 119.66 159.01 120.56Z" fill="#FFCF2D" fill-opacity="1.000000" fill-rule="nonzero"/>
			<path id="Vector" d="M172.36 103.18C173.52 104.08 173.73 105.63 172.83 106.8C171.93 107.98 170.37 108.18 169.21 107.28C168.04 106.39 167.84 104.84 168.74 103.66C169.64 102.49 171.19 102.29 172.36 103.18Z" fill="#FFCF2D" fill-opacity="1.000000" fill-rule="nonzero"/>
			<path id="Vector" d="M185.78 85.71C186.95 86.61 187.15 88.16 186.25 89.33C185.35 90.5 183.8 90.71 182.63 89.81C181.47 88.92 181.27 87.37 182.17 86.19C183.07 85.02 184.62 84.82 185.78 85.71Z" fill="#FFCF2D" fill-opacity="1.000000" fill-rule="nonzero"/>
			<path id="Vector" d="M199.21 68.24C200.38 69.14 200.58 70.69 199.68 71.86C198.78 73.04 197.23 73.24 196.06 72.34C194.89 71.45 194.69 69.9 195.59 68.72C196.42 67.65 198.04 67.35 199.21 68.24Z" fill="#FFCF2D" fill-opacity="1.000000" fill-rule="nonzero"/>
			<path id="Vector" d="M106.35 218.87C107.52 219.77 107.72 221.32 106.82 222.49C105.92 223.66 104.37 223.87 103.2 222.97C102.04 222.07 101.83 220.52 102.74 219.35C103.64 218.18 105.28 218.05 106.35 218.87Z" fill="#FFCF2D" fill-opacity="1.000000" fill-rule="nonzero"/>
			<path id="Vector" d="M119.78 201.4C120.95 202.3 121.15 203.85 120.25 205.02C119.35 206.19 117.8 206.4 116.63 205.5C115.46 204.6 115.26 203.05 116.16 201.88C116.99 200.81 118.71 200.58 119.78 201.4Z" fill="#FFCF2D" fill-opacity="1.000000" fill-rule="nonzero"/>
			<path id="Vector" d="M133.13 184.03C134.3 184.93 134.5 186.48 133.6 187.65C132.7 188.82 131.14 189.03 129.98 188.13C128.81 187.23 128.61 185.68 129.51 184.51C130.41 183.34 132.06 183.21 133.13 184.03Z" fill="#FFCF2D" fill-opacity="1.000000" fill-rule="nonzero"/>
			<path id="Vector" d="M146.55 166.56C147.72 167.46 147.92 169.01 147.02 170.18C146.12 171.35 144.57 171.56 143.4 170.66C142.24 169.76 142.03 168.21 142.94 167.04C143.84 165.87 145.48 165.74 146.55 166.56Z" fill="#FFCF2D" fill-opacity="1.000000" fill-rule="nonzero"/>
			<path id="Vector" d="M159.98 149.09C161.14 149.99 161.35 151.54 160.45 152.71C159.55 153.88 158 154.09 156.83 153.19C155.66 152.29 155.46 150.74 156.36 149.57C157.19 148.5 158.91 148.27 159.98 149.09Z" fill="#FFCF2D" fill-opacity="1.000000" fill-rule="nonzero"/>
			<path id="Vector" d="M173.4 131.62C174.57 132.52 174.77 134.07 173.87 135.24C172.97 136.41 171.42 136.62 170.25 135.72C169.09 134.82 168.89 133.27 169.79 132.1C170.69 130.93 172.33 130.8 173.4 131.62Z" fill="#FFCF2D" fill-opacity="1.000000" fill-rule="nonzero"/>
			<path id="Vector" d="M186.75 114.25C187.92 115.14 188.12 116.7 187.22 117.87C186.32 119.04 184.77 119.24 183.6 118.35C182.44 117.45 182.24 115.9 183.14 114.73C184.04 113.56 185.68 113.43 186.75 114.25Z" fill="#FFCF2D" fill-opacity="1.000000" fill-rule="nonzero"/>
			<path id="Vector" d="M200.18 96.78C201.35 97.67 201.55 99.23 200.65 100.4C199.75 101.57 198.2 101.77 197.03 100.88C195.86 99.98 195.66 98.43 196.56 97.26C197.46 96.09 199.11 95.96 200.18 96.78Z" fill="#FFCF2D" fill-opacity="1.000000" fill-rule="nonzero"/>
			<path id="Vector" d="M213.6 79.31C214.77 80.21 214.97 81.76 214.07 82.93C213.17 84.1 211.62 84.3 210.45 83.41C209.29 82.51 209.09 80.96 209.99 79.79C210.81 78.71 212.53 78.49 213.6 79.31Z" fill="#FFCF2D" fill-opacity="1.000000" fill-rule="nonzero"/>
		</g>
	</g>
</svg>
