<svg width="284.000000" height="284.000000" viewBox="0 0 284 284" fill="none" xmlns="http://www.w3.org/2000/svg" xmlns:xlink="http://www.w3.org/1999/xlink">
	<desc>
			Created with Pixso.
	</desc>
	<defs>
		<clipPath id="clip2234_8803">
			<rect id="circles" width="284.000000" height="284.000000" fill="white" fill-opacity="0"/>
		</clipPath>
	</defs>
	<g opacity="0.200000">
		<g clip-path="url(#clip2234_8803)">
			<path id="Vector" d="M142.09 0C63.54 0 0 63.54 0 142.09C0 220.45 63.54 284.19 142.09 284.19C220.45 284.19 284.19 220.65 284.19 142.09C284 63.54 220.45 0 142.09 0ZM142.09 275.03C68.61 275.03 9.16 215.58 9.16 142.09C9.16 68.61 68.61 9.16 142.09 9.16C215.58 9.16 275.03 68.61 275.03 142.09C275.03 215.38 215.38 275.03 142.09 275.03Z" fill="#FFFFFF" fill-opacity="1.000000" fill-rule="nonzero"/>
			<path id="Vector" d="M142.09 30.6C80.69 30.6 30.79 80.5 30.79 141.9C30.79 203.3 80.69 253.2 142.09 253.2C203.49 253.2 253.39 203.49 253.39 142.09C253.39 80.5 203.49 30.6 142.09 30.6ZM142.09 236.24C90.05 236.24 47.75 193.94 47.75 141.9C47.75 89.85 90.05 47.56 142.09 47.56C194.14 47.56 236.44 89.85 236.44 141.9C236.44 193.94 194.14 236.24 142.09 236.24Z" fill="#FFFFFF" fill-opacity="1.000000" fill-rule="nonzero"/>
			<path id="Vector" d="M142.09 79.52C107.59 79.52 79.52 107.59 79.52 142.09C79.52 176.59 107.4 204.66 142.09 204.66C176.59 204.66 204.66 176.59 204.66 142.09C204.47 107.59 176.59 79.52 142.09 79.52ZM142.09 175.62C123.58 175.62 108.57 160.61 108.57 142.09C108.57 123.57 123.58 108.57 142.09 108.57C160.61 108.57 175.62 123.57 175.62 142.09C175.62 160.61 160.61 175.62 142.09 175.62Z" fill="#FFFFFF" fill-opacity="1.000000" fill-rule="nonzero"/>
		</g>
	</g>
</svg>
