<svg width="187.000000" height="137.000000" viewBox="0 0 187 137" fill="none" xmlns="http://www.w3.org/2000/svg" xmlns:xlink="http://www.w3.org/1999/xlink">
	<desc>
			Created with Pixso.
	</desc>
	<defs>
		<clipPath id="clip2234_8808">
			<rect id="dots" width="187.000000" height="137.000000" fill="white" fill-opacity="0"/>
		</clipPath>
	</defs>
	<g opacity="0.800000">
		<g clip-path="url(#clip2234_8808)">
			<path id="Vector" d="M5.33 40.26C5.33 41.78 4.19 42.92 2.66 42.92C1.14 42.92 0 41.78 0 40.26C0 38.74 1.14 37.6 2.66 37.6C4.19 37.6 5.33 38.87 5.33 40.26Z" fill="#FFFFFF" fill-opacity="1.000000" fill-rule="nonzero"/>
			<path id="Vector" d="M28.07 40.26C28.07 41.78 26.93 42.92 25.4 42.92C23.88 42.92 22.73 41.78 22.73 40.26C22.73 38.74 23.88 37.6 25.4 37.6C26.8 37.6 28.07 38.87 28.07 40.26Z" fill="#FFFFFF" fill-opacity="1.000000" fill-rule="nonzero"/>
			<path id="Vector" d="M50.68 40.26C50.68 41.78 49.54 42.92 48.02 42.92C46.49 42.92 45.35 41.78 45.35 40.26C45.35 38.74 46.49 37.6 48.02 37.6C49.54 37.6 50.68 38.87 50.68 40.26Z" fill="#FFFFFF" fill-opacity="1.000000" fill-rule="nonzero"/>
			<path id="Vector" d="M73.42 40.26C73.42 41.78 72.28 42.92 70.76 42.92C69.23 42.92 68.09 41.78 68.09 40.26C68.09 38.74 69.23 37.6 70.76 37.6C72.28 37.6 73.42 38.87 73.42 40.26Z" fill="#FFFFFF" fill-opacity="1.000000" fill-rule="nonzero"/>
			<path id="Vector" d="M96.16 40.26C96.16 41.78 95.02 42.92 93.5 42.92C91.97 42.92 90.83 41.78 90.83 40.26C90.83 38.74 91.97 37.6 93.5 37.6C94.89 37.6 96.16 38.87 96.16 40.26Z" fill="#FFFFFF" fill-opacity="1.000000" fill-rule="nonzero"/>
			<path id="Vector" d="M118.9 40.26C118.9 41.78 117.76 42.92 116.24 42.92C114.71 42.92 113.57 41.78 113.57 40.26C113.57 38.74 114.71 37.6 116.24 37.6C117.76 37.6 118.9 38.87 118.9 40.26Z" fill="#FFFFFF" fill-opacity="1.000000" fill-rule="nonzero"/>
			<path id="Vector" d="M141.52 40.26C141.52 41.78 140.37 42.92 138.85 42.92C137.32 42.92 136.18 41.78 136.18 40.26C136.18 38.74 137.32 37.6 138.85 37.6C140.37 37.6 141.52 38.87 141.52 40.26Z" fill="#FFFFFF" fill-opacity="1.000000" fill-rule="nonzero"/>
			<path id="Vector" d="M164.26 40.26C164.26 41.78 163.11 42.92 161.59 42.92C160.06 42.92 158.92 41.78 158.92 40.26C158.92 38.74 160.06 37.6 161.59 37.6C163.11 37.6 164.26 38.87 164.26 40.26Z" fill="#FFFFFF" fill-opacity="1.000000" fill-rule="nonzero"/>
			<path id="Vector" d="M187 40.26C187 41.78 185.85 42.92 184.33 42.92C182.8 42.92 181.66 41.78 181.66 40.26C181.66 38.74 182.8 37.6 184.33 37.6C185.73 37.6 187 38.87 187 40.26Z" fill="#FFFFFF" fill-opacity="1.000000" fill-rule="nonzero"/>
			<path id="Vector" d="M5.33 59.13C5.33 60.65 4.19 61.79 2.66 61.79C1.14 61.79 0 60.65 0 59.13C0 57.61 1.14 56.47 2.66 56.47C4.19 56.47 5.33 57.61 5.33 59.13Z" fill="#FFFFFF" fill-opacity="1.000000" fill-rule="nonzero"/>
			<path id="Vector" d="M28.07 59.13C28.07 60.65 26.93 61.79 25.4 61.79C23.88 61.79 22.73 60.65 22.73 59.13C22.73 57.61 23.88 56.47 25.4 56.47C26.8 56.47 28.07 57.61 28.07 59.13Z" fill="#FFFFFF" fill-opacity="1.000000" fill-rule="nonzero"/>
			<path id="Vector" d="M50.68 59.13C50.68 60.65 49.54 61.79 48.02 61.79C46.49 61.79 45.35 60.65 45.35 59.13C45.35 57.61 46.49 56.47 48.02 56.47C49.54 56.47 50.68 57.61 50.68 59.13Z" fill="#FFFFFF" fill-opacity="1.000000" fill-rule="nonzero"/>
			<path id="Vector" d="M73.42 59.13C73.42 60.65 72.28 61.79 70.76 61.79C69.23 61.79 68.09 60.65 68.09 59.13C68.09 57.61 69.23 56.47 70.76 56.47C72.28 56.47 73.42 57.61 73.42 59.13Z" fill="#FFFFFF" fill-opacity="1.000000" fill-rule="nonzero"/>
			<path id="Vector" d="M96.16 59.13C96.16 60.65 95.02 61.79 93.5 61.79C91.97 61.79 90.83 60.65 90.83 59.13C90.83 57.61 91.97 56.47 93.5 56.47C94.89 56.47 96.16 57.61 96.16 59.13Z" fill="#FFFFFF" fill-opacity="1.000000" fill-rule="nonzero"/>
			<path id="Vector" d="M118.9 59.13C118.9 60.65 117.76 61.79 116.24 61.79C114.71 61.79 113.57 60.65 113.57 59.13C113.57 57.61 114.71 56.47 116.24 56.47C117.76 56.47 118.9 57.61 118.9 59.13Z" fill="#FFFFFF" fill-opacity="1.000000" fill-rule="nonzero"/>
			<path id="Vector" d="M141.52 59.13C141.52 60.65 140.37 61.79 138.85 61.79C137.32 61.79 136.18 60.65 136.18 59.13C136.18 57.61 137.32 56.47 138.85 56.47C140.37 56.47 141.52 57.61 141.52 59.13Z" fill="#FFFFFF" fill-opacity="1.000000" fill-rule="nonzero"/>
			<path id="Vector" d="M164.26 59.13C164.26 60.65 163.11 61.79 161.59 61.79C160.06 61.79 158.92 60.65 158.92 59.13C158.92 57.61 160.06 56.47 161.59 56.47C163.11 56.47 164.26 57.61 164.26 59.13Z" fill="#FFFFFF" fill-opacity="1.000000" fill-rule="nonzero"/>
			<path id="Vector" d="M187 59.13C187 60.65 185.85 61.79 184.33 61.79C182.8 61.79 181.66 60.65 181.66 59.13C181.66 57.61 182.8 56.47 184.33 56.47C185.73 56.47 187 57.61 187 59.13Z" fill="#FFFFFF" fill-opacity="1.000000" fill-rule="nonzero"/>
			<path id="Vector" d="M5.33 2.65C5.33 4.17 4.19 5.31 2.66 5.31C1.14 5.31 0 4.17 0 2.65C0 1.13 1.14 0 2.66 0C4.19 0 5.33 1.13 5.33 2.65Z" fill="#FFFFFF" fill-opacity="1.000000" fill-rule="nonzero"/>
			<path id="Vector" d="M28.07 2.65C28.07 4.17 26.93 5.31 25.4 5.31C23.88 5.31 22.73 4.17 22.73 2.65C22.73 1.13 23.88 0 25.4 0C26.8 0 28.07 1.13 28.07 2.65Z" fill="#FFFFFF" fill-opacity="1.000000" fill-rule="nonzero"/>
			<path id="Vector" d="M50.68 2.65C50.68 4.17 49.54 5.31 48.02 5.31C46.49 5.31 45.35 4.17 45.35 2.65C45.35 1.13 46.62 0 48.02 0C49.54 0 50.68 1.13 50.68 2.65Z" fill="#FFFFFF" fill-opacity="1.000000" fill-rule="nonzero"/>
			<path id="Vector" d="M73.42 2.65C73.42 4.17 72.28 5.31 70.76 5.31C69.23 5.31 68.09 4.17 68.09 2.65C68.09 1.13 69.36 0 70.76 0C72.15 0 73.42 1.13 73.42 2.65Z" fill="#FFFFFF" fill-opacity="1.000000" fill-rule="nonzero"/>
			<path id="Vector" d="M96.16 2.65C96.16 4.17 95.02 5.31 93.5 5.31C91.97 5.31 90.83 4.17 90.83 2.65C90.83 1.13 91.97 0 93.5 0C94.89 0 96.16 1.13 96.16 2.65Z" fill="#FFFFFF" fill-opacity="1.000000" fill-rule="nonzero"/>
			<path id="Vector" d="M118.9 2.65C118.9 4.17 117.76 5.31 116.24 5.31C114.71 5.31 113.57 4.17 113.57 2.65C113.57 1.13 114.71 0 116.24 0C117.76 0 118.9 1.13 118.9 2.65Z" fill="#FFFFFF" fill-opacity="1.000000" fill-rule="nonzero"/>
			<path id="Vector" d="M141.52 2.65C141.52 4.17 140.37 5.31 138.85 5.31C137.32 5.31 136.18 4.17 136.18 2.65C136.18 1.13 137.32 0 138.85 0C140.37 0 141.52 1.13 141.52 2.65Z" fill="#FFFFFF" fill-opacity="1.000000" fill-rule="nonzero"/>
			<path id="Vector" d="M164.26 2.65C164.26 4.17 163.11 5.31 161.59 5.31C160.06 5.31 158.92 4.17 158.92 2.65C158.92 1.13 160.06 0 161.59 0C163.11 0 164.26 1.13 164.26 2.65Z" fill="#FFFFFF" fill-opacity="1.000000" fill-rule="nonzero"/>
			<path id="Vector" d="M187 2.65C187 4.17 185.85 5.31 184.33 5.31C182.8 5.31 181.66 4.17 181.66 2.65C181.66 1.13 182.8 0 184.33 0C185.73 0 187 1.13 187 2.65Z" fill="#FFFFFF" fill-opacity="1.000000" fill-rule="nonzero"/>
			<path id="Vector" d="M5.33 21.52C5.33 23.04 4.19 24.18 2.66 24.18C1.14 24.18 0 22.91 0 21.52C0 20 1.14 18.86 2.66 18.86C4.19 18.86 5.33 20 5.33 21.52Z" fill="#FFFFFF" fill-opacity="1.000000" fill-rule="nonzero"/>
			<path id="Vector" d="M28.07 21.52C28.07 23.04 26.93 24.18 25.4 24.18C23.88 24.18 22.73 23.04 22.73 21.52C22.73 20 23.88 18.86 25.4 18.86C26.8 18.86 28.07 20 28.07 21.52Z" fill="#FFFFFF" fill-opacity="1.000000" fill-rule="nonzero"/>
			<path id="Vector" d="M50.68 21.52C50.68 23.04 49.54 24.18 48.02 24.18C46.49 24.18 45.35 23.04 45.35 21.52C45.35 20 46.49 18.86 48.02 18.86C49.54 18.86 50.68 20 50.68 21.52Z" fill="#FFFFFF" fill-opacity="1.000000" fill-rule="nonzero"/>
			<path id="Vector" d="M73.42 21.52C73.42 23.04 72.28 24.18 70.76 24.18C69.23 24.18 68.09 23.04 68.09 21.52C68.09 20 69.23 18.86 70.76 18.86C72.28 18.86 73.42 20 73.42 21.52Z" fill="#FFFFFF" fill-opacity="1.000000" fill-rule="nonzero"/>
			<path id="Vector" d="M96.16 21.52C96.16 23.04 95.02 24.18 93.5 24.18C91.97 24.18 90.83 23.04 90.83 21.52C90.83 20 91.97 18.86 93.5 18.86C94.89 18.86 96.16 20 96.16 21.52Z" fill="#FFFFFF" fill-opacity="1.000000" fill-rule="nonzero"/>
			<path id="Vector" d="M118.9 21.52C118.9 23.04 117.76 24.18 116.24 24.18C114.71 24.18 113.57 23.04 113.57 21.52C113.57 20 114.71 18.86 116.24 18.86C117.76 18.86 118.9 20 118.9 21.52Z" fill="#FFFFFF" fill-opacity="1.000000" fill-rule="nonzero"/>
			<path id="Vector" d="M141.52 21.52C141.52 23.04 140.37 24.18 138.85 24.18C137.32 24.18 136.18 23.04 136.18 21.52C136.18 20 137.32 18.86 138.85 18.86C140.37 18.86 141.52 20 141.52 21.52Z" fill="#FFFFFF" fill-opacity="1.000000" fill-rule="nonzero"/>
			<path id="Vector" d="M164.26 21.52C164.26 23.04 163.11 24.18 161.59 24.18C160.06 24.18 158.92 23.04 158.92 21.52C158.92 20 160.06 18.86 161.59 18.86C163.11 18.86 164.26 20 164.26 21.52Z" fill="#FFFFFF" fill-opacity="1.000000" fill-rule="nonzero"/>
			<path id="Vector" d="M187 21.52C187 23.04 185.85 24.18 184.33 24.18C182.8 24.18 181.66 23.04 181.66 21.52C181.66 20 182.8 18.86 184.33 18.86C185.73 18.86 187 20 187 21.52Z" fill="#FFFFFF" fill-opacity="1.000000" fill-rule="nonzero"/>
			<path id="Vector" d="M5.33 77.87C5.33 79.38 4.19 80.52 2.66 80.52C1.14 80.52 0 79.38 0 77.87C0 76.35 1.14 75.21 2.66 75.21C4.19 75.21 5.33 76.47 5.33 77.87Z" fill="#FFFFFF" fill-opacity="1.000000" fill-rule="nonzero"/>
			<path id="Vector" d="M28.07 77.87C28.07 79.38 26.93 80.52 25.4 80.52C23.88 80.52 22.73 79.38 22.73 77.87C22.73 76.35 23.88 75.21 25.4 75.21C26.8 75.21 28.07 76.47 28.07 77.87Z" fill="#FFFFFF" fill-opacity="1.000000" fill-rule="nonzero"/>
			<path id="Vector" d="M50.68 77.87C50.68 79.38 49.54 80.52 48.02 80.52C46.49 80.52 45.35 79.38 45.35 77.87C45.35 76.35 46.49 75.21 48.02 75.21C49.54 75.21 50.68 76.47 50.68 77.87Z" fill="#FFFFFF" fill-opacity="1.000000" fill-rule="nonzero"/>
			<path id="Vector" d="M73.42 77.87C73.42 79.38 72.28 80.52 70.76 80.52C69.23 80.52 68.09 79.38 68.09 77.87C68.09 76.35 69.23 75.21 70.76 75.21C72.28 75.21 73.42 76.47 73.42 77.87Z" fill="#FFFFFF" fill-opacity="1.000000" fill-rule="nonzero"/>
			<path id="Vector" d="M96.16 77.87C96.16 79.38 95.02 80.52 93.5 80.52C91.97 80.52 90.83 79.38 90.83 77.87C90.83 76.35 91.97 75.21 93.5 75.21C94.89 75.21 96.16 76.47 96.16 77.87Z" fill="#FFFFFF" fill-opacity="1.000000" fill-rule="nonzero"/>
			<path id="Vector" d="M118.9 77.87C118.9 79.38 117.76 80.52 116.24 80.52C114.71 80.52 113.57 79.38 113.57 77.87C113.57 76.35 114.71 75.21 116.24 75.21C117.76 75.21 118.9 76.47 118.9 77.87Z" fill="#FFFFFF" fill-opacity="1.000000" fill-rule="nonzero"/>
			<path id="Vector" d="M141.52 77.87C141.52 79.38 140.37 80.52 138.85 80.52C137.32 80.52 136.18 79.38 136.18 77.87C136.18 76.35 137.32 75.21 138.85 75.21C140.37 75.21 141.52 76.47 141.52 77.87Z" fill="#FFFFFF" fill-opacity="1.000000" fill-rule="nonzero"/>
			<path id="Vector" d="M164.26 77.87C164.26 79.38 163.11 80.52 161.59 80.52C160.06 80.52 158.92 79.38 158.92 77.87C158.92 76.35 160.06 75.21 161.59 75.21C163.11 75.21 164.26 76.47 164.26 77.87Z" fill="#FFFFFF" fill-opacity="1.000000" fill-rule="nonzero"/>
			<path id="Vector" d="M187 77.87C187 79.38 185.85 80.52 184.33 80.52C182.8 80.52 181.66 79.38 181.66 77.87C181.66 76.35 182.8 75.21 184.33 75.21C185.73 75.21 187 76.47 187 77.87Z" fill="#FFFFFF" fill-opacity="1.000000" fill-rule="nonzero"/>
			<path id="Vector" d="M5.33 96.73C5.33 98.25 4.19 99.39 2.66 99.39C1.14 99.39 0 98.25 0 96.73C0 95.21 1.14 94.07 2.66 94.07C4.19 94.07 5.33 95.21 5.33 96.73Z" fill="#FFFFFF" fill-opacity="1.000000" fill-rule="nonzero"/>
			<path id="Vector" d="M28.07 96.73C28.07 98.25 26.93 99.39 25.4 99.39C23.88 99.39 22.73 98.25 22.73 96.73C22.73 95.21 23.88 94.07 25.4 94.07C26.8 94.07 28.07 95.21 28.07 96.73Z" fill="#FFFFFF" fill-opacity="1.000000" fill-rule="nonzero"/>
			<path id="Vector" d="M50.68 96.73C50.68 98.25 49.54 99.39 48.02 99.39C46.49 99.39 45.35 98.25 45.35 96.73C45.35 95.21 46.49 94.07 48.02 94.07C49.54 94.07 50.68 95.21 50.68 96.73Z" fill="#FFFFFF" fill-opacity="1.000000" fill-rule="nonzero"/>
			<path id="Vector" d="M73.42 96.73C73.42 98.2 72.23 99.39 70.76 99.39C69.28 99.39 68.09 98.2 68.09 96.73C68.09 95.26 69.28 94.07 70.76 94.07C72.23 94.07 73.42 95.26 73.42 96.73Z" fill="#FFFFFF" fill-opacity="1.000000" fill-rule="evenodd"/>
			<path id="Vector" d="M96.16 96.73C96.16 98.25 95.02 99.39 93.5 99.39C91.97 99.39 90.83 98.25 90.83 96.73C90.83 95.21 91.97 94.07 93.5 94.07C94.89 94.07 96.16 95.21 96.16 96.73Z" fill="#FFFFFF" fill-opacity="1.000000" fill-rule="nonzero"/>
			<path id="Vector" d="M118.9 96.73C118.9 98.25 117.76 99.39 116.24 99.39C114.71 99.39 113.57 98.25 113.57 96.73C113.57 95.21 114.71 94.07 116.24 94.07C117.76 94.07 118.9 95.21 118.9 96.73Z" fill="#FFFFFF" fill-opacity="1.000000" fill-rule="nonzero"/>
			<path id="Vector" d="M141.52 96.73C141.52 98.25 140.37 99.39 138.85 99.39C137.32 99.39 136.18 98.25 136.18 96.73C136.18 95.21 137.32 94.07 138.85 94.07C140.37 94.07 141.52 95.21 141.52 96.73Z" fill="#FFFFFF" fill-opacity="1.000000" fill-rule="nonzero"/>
			<path id="Vector" d="M164.26 96.73C164.26 98.2 163.06 99.39 161.59 99.39C160.11 99.39 158.92 98.2 158.92 96.73C158.92 95.26 160.11 94.07 161.59 94.07C163.06 94.07 164.26 95.26 164.26 96.73Z" fill="#FFFFFF" fill-opacity="1.000000" fill-rule="evenodd"/>
			<path id="Vector" d="M187 96.73C187 98.25 185.85 99.39 184.33 99.39C182.8 99.39 181.66 98.25 181.66 96.73C181.66 95.21 182.8 94.07 184.33 94.07C185.73 94.07 187 95.21 187 96.73Z" fill="#FFFFFF" fill-opacity="1.000000" fill-rule="nonzero"/>
			<path id="Vector" d="M5.33 115.6C5.33 117.12 4.19 118.26 2.66 118.26C1.14 118.26 0 117.12 0 115.6C0 114.08 1.14 112.94 2.66 112.94C4.19 112.94 5.33 114.08 5.33 115.6Z" fill="#FFFFFF" fill-opacity="1.000000" fill-rule="nonzero"/>
			<path id="Vector" d="M28.07 115.6C28.07 117.12 26.93 118.26 25.4 118.26C23.88 118.26 22.73 117.12 22.73 115.6C22.73 114.08 23.88 112.94 25.4 112.94C26.8 112.94 28.07 114.08 28.07 115.6Z" fill="#FFFFFF" fill-opacity="1.000000" fill-rule="nonzero"/>
			<path id="Vector" d="M50.68 115.6C50.68 117.12 49.54 118.26 48.02 118.26C46.49 118.26 45.35 117.12 45.35 115.6C45.35 114.08 46.49 112.94 48.02 112.94C49.54 112.94 50.68 114.08 50.68 115.6Z" fill="#FFFFFF" fill-opacity="1.000000" fill-rule="nonzero"/>
			<path id="Vector" d="M73.42 115.6C73.42 117.12 72.28 118.26 70.76 118.26C69.23 118.26 68.09 117.12 68.09 115.6C68.09 114.08 69.23 112.94 70.76 112.94C72.28 112.94 73.42 114.08 73.42 115.6Z" fill="#FFFFFF" fill-opacity="1.000000" fill-rule="nonzero"/>
			<path id="Vector" d="M96.16 115.6C96.16 117.12 95.02 118.26 93.5 118.26C91.97 118.26 90.83 117.12 90.83 115.6C90.83 114.08 91.97 112.94 93.5 112.94C94.89 112.94 96.16 114.08 96.16 115.6Z" fill="#FFFFFF" fill-opacity="1.000000" fill-rule="nonzero"/>
			<path id="Vector" d="M118.9 115.6C118.9 117.12 117.76 118.26 116.24 118.26C114.71 118.26 113.57 117.12 113.57 115.6C113.57 114.08 114.71 112.94 116.24 112.94C117.76 112.94 118.9 114.08 118.9 115.6Z" fill="#FFFFFF" fill-opacity="1.000000" fill-rule="nonzero"/>
			<path id="Vector" d="M141.52 115.6C141.52 117.12 140.37 118.26 138.85 118.26C137.32 118.26 136.18 117.12 136.18 115.6C136.18 114.08 137.32 112.94 138.85 112.94C140.37 112.94 141.52 114.08 141.52 115.6Z" fill="#FFFFFF" fill-opacity="1.000000" fill-rule="nonzero"/>
			<path id="Vector" d="M164.26 115.6C164.26 117.12 163.11 118.26 161.59 118.26C160.06 118.26 158.92 117.12 158.92 115.6C158.92 114.08 160.06 112.94 161.59 112.94C163.11 112.94 164.26 114.08 164.26 115.6Z" fill="#FFFFFF" fill-opacity="1.000000" fill-rule="nonzero"/>
			<path id="Vector" d="M187 115.6C187 117.12 185.85 118.26 184.33 118.26C182.8 118.26 181.66 117.12 181.66 115.6C181.66 114.08 182.8 112.94 184.33 112.94C185.73 112.94 187 114.08 187 115.6Z" fill="#FFFFFF" fill-opacity="1.000000" fill-rule="nonzero"/>
			<path id="Vector" d="M5.33 134.34C5.33 135.86 4.19 137 2.66 137C1.14 137 0 135.86 0 134.34C0 132.82 1.14 131.68 2.66 131.68C4.19 131.68 5.33 132.94 5.33 134.34Z" fill="#FFFFFF" fill-opacity="1.000000" fill-rule="nonzero"/>
			<path id="Vector" d="M28.07 134.34C28.07 135.86 26.93 137 25.4 137C23.88 137 22.73 135.86 22.73 134.34C22.73 132.82 23.88 131.68 25.4 131.68C26.8 131.68 28.07 132.94 28.07 134.34Z" fill="#FFFFFF" fill-opacity="1.000000" fill-rule="nonzero"/>
			<path id="Vector" d="M50.68 134.34C50.68 135.86 49.54 137 48.02 137C46.49 137 45.35 135.86 45.35 134.34C45.35 132.82 46.49 131.68 48.02 131.68C49.54 131.68 50.68 132.94 50.68 134.34Z" fill="#FFFFFF" fill-opacity="1.000000" fill-rule="nonzero"/>
			<path id="Vector" d="M73.42 134.34C73.42 135.86 72.28 137 70.76 137C69.23 137 68.09 135.86 68.09 134.34C68.09 132.82 69.23 131.68 70.76 131.68C72.28 131.68 73.42 132.94 73.42 134.34Z" fill="#FFFFFF" fill-opacity="1.000000" fill-rule="nonzero"/>
			<path id="Vector" d="M96.16 134.34C96.16 135.86 95.02 137 93.5 137C91.97 137 90.83 135.86 90.83 134.34C90.83 132.82 91.97 131.68 93.5 131.68C94.89 131.68 96.16 132.94 96.16 134.34Z" fill="#FFFFFF" fill-opacity="1.000000" fill-rule="nonzero"/>
			<path id="Vector" d="M118.9 134.34C118.9 135.86 117.76 137 116.24 137C114.71 137 113.57 135.86 113.57 134.34C113.57 132.82 114.71 131.68 116.24 131.68C117.76 131.68 118.9 132.94 118.9 134.34Z" fill="#FFFFFF" fill-opacity="1.000000" fill-rule="nonzero"/>
			<path id="Vector" d="M141.52 134.34C141.52 135.86 140.37 137 138.85 137C137.32 137 136.18 135.86 136.18 134.34C136.18 132.82 137.32 131.68 138.85 131.68C140.37 131.68 141.52 132.94 141.52 134.34Z" fill="#FFFFFF" fill-opacity="1.000000" fill-rule="nonzero"/>
			<path id="Vector" d="M164.26 134.34C164.26 135.86 163.11 137 161.59 137C160.06 137 158.92 135.86 158.92 134.34C158.92 132.82 160.06 131.68 161.59 131.68C163.11 131.68 164.26 132.94 164.26 134.34Z" fill="#FFFFFF" fill-opacity="1.000000" fill-rule="nonzero"/>
			<path id="Vector" d="M187 134.34C187 135.86 185.85 137 184.33 137C182.8 137 181.66 135.86 181.66 134.34C181.66 132.82 182.8 131.68 184.33 131.68C185.73 131.68 187 132.94 187 134.34Z" fill="#FFFFFF" fill-opacity="1.000000" fill-rule="nonzero"/>
		</g>
	</g>
</svg>
