<svg width="600.000000" height="440.000000" viewBox="0 0 600 440" fill="none" xmlns="http://www.w3.org/2000/svg" xmlns:xlink="http://www.w3.org/1999/xlink">
	<desc>
			Created with Pixso.
	</desc>
	<defs>
		<clipPath id="clip2234_9222">
			<rect id="illustration" rx="0.000000" width="599.000000" height="439.000000" transform="translate(0.500000 0.500000)" fill="white" fill-opacity="0"/>
		</clipPath>
	</defs>
	<g clip-path="url(#clip2234_9222)">
		<path id="FLOOR" d="M600 419.86L0 419.86L107.7 356.18L493.94 356.18L600 419.86Z" fill="#D0F0E4" fill-opacity="1.000000" fill-rule="nonzero"/>
		<path id="Vector" d="M344 108.57L236.06 108.57L236.06 46.08C236.06 41.85 239.48 38.42 243.71 38.42L336.35 38.42C340.58 38.42 344 41.85 344 46.08L344 108.57Z" fill="#FFFFFF" fill-opacity="1.000000" fill-rule="nonzero"/>
		<path id="Vector (Stroke)" d="M243.71 38.91C239.75 38.91 236.54 42.12 236.54 46.08L236.54 108.09L343.52 108.09L343.52 46.08C343.52 42.12 340.31 38.91 336.35 38.91L243.71 38.91ZM344 108.57L344.48 108.57L344.48 46.08C344.48 41.59 340.84 37.94 336.35 37.94L243.71 37.94C239.22 37.94 235.58 41.59 235.58 46.08L235.58 109.05L344 109.05L344 108.57Z" fill="#66B0F0" fill-opacity="1.000000" fill-rule="evenodd"/>
		<path id="Vector" d="M335.86 104.5L244.65 104.5C242.25 104.5 240.3 102.55 240.3 100.14L240.3 46.58C240.3 44.18 242.25 42.22 244.65 42.22L335.86 42.22C338.26 42.22 340.21 44.18 340.21 46.58L340.21 100.16C340.21 102.56 338.26 104.5 335.86 104.5Z" fill="#66B0F0" fill-opacity="1.000000" fill-rule="nonzero"/>
		<path id="Vector" d="M362.93 123.24C367.06 125.93 366.1 131.2 361.21 131.2L214.16 131.2C210.04 131.2 208.64 125.64 212.67 123.09L362.93 123.24Z" fill="#66B0F0" fill-opacity="1.000000" fill-rule="nonzero"/>
		<path id="Vector (Stroke)" d="M212.53 122.61L363.07 122.76L363.19 122.84C365.39 124.27 366.3 126.44 365.92 128.33C365.53 130.24 363.85 131.68 361.21 131.68L214.16 131.68C211.85 131.68 210.29 130.11 209.89 128.2C209.48 126.3 210.23 124.07 212.41 122.69L212.53 122.61ZM212.81 123.57C211.05 124.74 210.51 126.52 210.83 128C211.15 129.52 212.35 130.72 214.16 130.72L361.21 130.72C363.46 130.72 364.7 129.53 364.98 128.13C365.26 126.74 364.62 124.97 362.78 123.72L212.81 123.57Z" fill="#66B0F0" fill-opacity="1.000000" fill-rule="evenodd"/>
		<path id="Vector" d="M361.21 127.53L214.16 127.53C211.53 127.53 210.49 124.44 212.67 123.09L236.09 108.57L343.7 108.57L362.91 123.24C364.83 124.7 363.71 127.53 361.21 127.53Z" fill="#FFFFFF" fill-opacity="1.000000" fill-rule="nonzero"/>
		<path id="Vector (Stroke)" d="M235.95 108.09L343.86 108.09L363.2 122.85C364.34 123.72 364.59 125.02 364.16 126.11C363.74 127.19 362.66 128.02 361.21 128.02L214.16 128.02C212.64 128.02 211.54 127.11 211.16 125.97C210.77 124.83 211.13 123.48 212.42 122.68L212.42 122.68L235.95 108.09ZM212.42 122.68L235.95 108.09L212.42 122.68ZM236.23 109.05L212.92 123.5L212.92 123.5C212.03 124.05 211.82 124.93 212.07 125.67C212.32 126.41 213.05 127.05 214.16 127.05L361.21 127.05C362.27 127.05 362.99 126.46 363.27 125.76C363.55 125.06 363.4 124.21 362.62 123.62L343.54 109.05L236.23 109.05Z" fill="#66B0F0" fill-opacity="1.000000" fill-rule="evenodd"/>
		<path id="Vector" d="M344.24 123.16L231.13 123.16C229.11 123.16 228.31 120.77 229.97 119.74L246.24 108.57L330.76 108.57L345.54 119.86C347.03 120.98 346.16 123.16 344.24 123.16Z" fill="#FFFFFF" fill-opacity="1.000000" fill-rule="nonzero"/>
		<path id="Vector (Stroke)" d="M246.09 108.09L330.93 108.09L345.83 119.47C345.83 119.47 345.83 119.47 345.83 119.47C346.75 120.17 346.96 121.23 346.62 122.1C346.27 122.98 345.4 123.64 344.24 123.64L231.13 123.64C229.91 123.64 229.02 122.91 228.71 121.99C228.4 121.07 228.69 119.98 229.71 119.34L246.09 108.09ZM246.39 109.05L230.24 120.15L230.23 120.15C229.59 120.54 229.45 121.16 229.63 121.68C229.8 122.21 230.33 122.68 231.13 122.68L344.24 122.68C345.01 122.68 345.53 122.25 345.72 121.75C345.92 121.26 345.82 120.67 345.25 120.24L345.25 120.24L345.25 120.24L330.6 109.05L246.39 109.05Z" fill="#66B0F0" fill-opacity="1.000000" fill-rule="evenodd"/>
		<path id="Vector (Stroke)" d="M337.9 123.5L323.11 108.92L323.79 108.23L338.58 122.82L337.9 123.5Z" fill="#66B0F0" fill-opacity="1.000000" fill-rule="evenodd"/>
		<path id="Vector (Stroke)" d="M328.28 123.48L315.25 108.89L315.96 108.25L328.99 122.84L328.28 123.48Z" fill="#66B0F0" fill-opacity="1.000000" fill-rule="evenodd"/>
		<path id="Vector (Stroke)" d="M319.2 123.45L307.89 108.87L308.65 108.28L319.95 122.86L319.2 123.45Z" fill="#66B0F0" fill-opacity="1.000000" fill-rule="evenodd"/>
		<path id="Vector (Stroke)" d="M309.23 123.42L299.67 108.84L300.48 108.31L310.04 122.89L309.23 123.42Z" fill="#66B0F0" fill-opacity="1.000000" fill-rule="evenodd"/>
		<path id="Vector (Stroke)" d="M297.47 123.3L292.81 108.72L293.73 108.43L298.39 123.01L297.47 123.3Z" fill="#66B0F0" fill-opacity="1.000000" fill-rule="evenodd"/>
		<path id="Vector (Stroke)" d="M237.98 122.82L252.77 108.23L253.44 108.92L238.65 123.5L237.98 122.82Z" fill="#66B0F0" fill-opacity="1.000000" fill-rule="evenodd"/>
		<path id="Vector (Stroke)" d="M247.56 122.84L260.59 108.25L261.31 108.89L248.28 123.48L247.56 122.84Z" fill="#66B0F0" fill-opacity="1.000000" fill-rule="evenodd"/>
		<path id="Vector (Stroke)" d="M256.6 122.86L267.9 108.28L268.66 108.87L257.36 123.45L256.6 122.86Z" fill="#66B0F0" fill-opacity="1.000000" fill-rule="evenodd"/>
		<path id="Vector (Stroke)" d="M266.52 122.89L276.08 108.31L276.88 108.84L267.32 123.42L266.52 122.89Z" fill="#66B0F0" fill-opacity="1.000000" fill-rule="evenodd"/>
		<path id="Vector (Stroke)" d="M278.17 123.01L282.82 108.43L283.74 108.72L279.08 123.3L278.17 123.01Z" fill="#66B0F0" fill-opacity="1.000000" fill-rule="evenodd"/>
		<path id="Vector (Stroke)" d="M288.37 108.57L288.37 123.33L287.41 123.33L287.41 108.57L288.37 108.57Z" fill="#66B0F0" fill-opacity="1.000000" fill-rule="evenodd"/>
		<path id="Vector (Stroke)" d="M337.92 114.5L238.31 114.5L238.31 113.54L337.92 113.54L337.92 114.5Z" fill="#66B0F0" fill-opacity="1.000000" fill-rule="evenodd"/>
		<path id="Vector" d="M328.27 104.5L247.28 104.5L248.74 94.16C249.63 87.8 254.2 82.58 260.36 80.82L280.1 76.71L295.45 76.71L315.19 80.82C321.37 82.56 325.93 87.8 326.81 94.16L328.27 104.5Z" fill="#FFCF2D" fill-opacity="1.000000" fill-rule="nonzero"/>
		<path id="Vector" d="M293.24 88.52L287.4 82.61C287.27 82.48 287.27 82.27 287.4 82.16C287.52 82.03 287.73 82.03 287.85 82.16L293.21 87.59L301.53 78.16C301.64 78.03 301.85 78.01 301.98 78.12C302.11 78.24 302.12 78.44 302.01 78.57L293.24 88.52Z" fill="#FFFFFF" fill-opacity="1.000000" fill-rule="nonzero"/>
		<path id="Vector" d="M282.39 88.52L273.61 78.57C273.5 78.44 273.5 78.24 273.64 78.12C273.77 78.01 273.98 78.01 274.09 78.16L282.42 87.59L287.78 82.16C287.91 82.03 288.1 82.03 288.23 82.16C288.36 82.29 288.36 82.48 288.23 82.61L282.39 88.52Z" fill="#FFFFFF" fill-opacity="1.000000" fill-rule="nonzero"/>
		<path id="Vector" d="M287.91 92.39C287.14 92.39 286.52 91.76 286.52 90.99C286.52 90.22 287.14 89.6 287.91 89.6C288.68 89.6 289.3 90.22 289.3 90.99C289.3 91.76 288.68 92.39 287.91 92.39ZM287.91 90.24C287.49 90.24 287.16 90.58 287.16 90.99C287.16 91.41 287.49 91.75 287.91 91.75C288.32 91.75 288.66 91.41 288.66 90.99C288.66 90.58 288.32 90.24 287.91 90.24Z" fill="#FFFFFF" fill-opacity="1.000000" fill-rule="nonzero"/>
		<path id="Vector" d="M287.91 100.24C287.14 100.24 286.52 99.61 286.52 98.84C286.52 98.08 287.14 97.45 287.91 97.45C288.68 97.45 289.3 98.08 289.3 98.84C289.3 99.61 288.68 100.24 287.91 100.24ZM287.91 98.09C287.49 98.09 287.16 98.43 287.16 98.84C287.16 99.26 287.49 99.6 287.91 99.6C288.32 99.6 288.66 99.26 288.66 98.84C288.66 98.43 288.32 98.09 287.91 98.09Z" fill="#FFFFFF" fill-opacity="1.000000" fill-rule="nonzero"/>
		<path id="Vector" d="M280 104.17L253.84 104.17L246.86 83.43L273.02 75.93L280 104.17Z" fill="#FFFFFF" fill-opacity="1.000000" fill-rule="nonzero"/>
		<path id="Vector (Stroke)" d="M273.25 75.53L280.41 104.49L253.61 104.49L246.45 83.21L273.25 75.53ZM247.27 83.64L254.07 103.85L279.59 103.85L272.79 76.33L247.27 83.64Z" fill="#66B0F0" fill-opacity="1.000000" fill-rule="evenodd"/>
		<path id="Vector" d="M255.2 86.12L254.71 86.12C253.44 86.12 252.42 85.09 252.42 83.83L252.42 76.63C252.42 76.12 252.83 75.7 253.35 75.7L255.51 75.7C256.02 75.7 256.44 76.12 256.44 76.63L256.44 84.87C256.45 85.56 255.89 86.12 255.2 86.12Z" fill="#FFFFFF" fill-opacity="1.000000" fill-rule="nonzero"/>
		<path id="Vector (Stroke)" d="M253.35 76.02C253.01 76.02 252.74 76.3 252.74 76.63L252.74 83.83C252.74 84.92 253.62 85.8 254.71 85.8L255.2 85.8C255.72 85.8 256.13 85.38 256.12 84.88L256.12 84.87L256.12 76.63C256.12 76.3 255.84 76.02 255.51 76.02L253.35 76.02ZM252.1 76.63C252.1 75.94 252.66 75.38 253.35 75.38L255.51 75.38C256.2 75.38 256.76 75.94 256.76 76.63L256.76 84.87C256.77 85.74 256.07 86.44 255.2 86.44L254.71 86.44C253.27 86.44 252.1 85.27 252.1 83.83L252.1 76.63Z" fill="#66B0F0" fill-opacity="1.000000" fill-rule="evenodd"/>
		<path id="Vector" d="M265.74 86.12L266.23 86.12C267.5 86.12 268.52 85.09 268.52 83.83L268.52 76.63C268.52 76.12 268.11 75.7 267.59 75.7L265.42 75.7C264.9 75.7 264.49 76.12 264.49 76.63L264.49 84.87C264.49 85.56 265.05 86.12 265.74 86.12Z" fill="#FFFFFF" fill-opacity="1.000000" fill-rule="nonzero"/>
		<path id="Vector" d="M259.22 86.95L258.07 86.95C257.17 86.95 256.45 86.23 256.45 85.33L256.45 76.65C256.45 76.13 256.87 75.72 257.38 75.72L259.54 75.72C260.05 75.72 260.47 76.13 260.47 76.65L260.47 85.7C260.47 86.39 259.91 86.95 259.22 86.95Z" fill="#FFFFFF" fill-opacity="1.000000" fill-rule="nonzero"/>
		<path id="Vector" d="M263.26 87.27L262.29 87.27C261.29 87.27 260.47 86.46 260.47 85.45L260.47 76.63C260.47 76.12 260.89 75.7 261.4 75.7L263.56 75.7C264.07 75.7 264.49 76.12 264.49 76.63L264.49 86.02C264.49 86.71 263.93 87.27 263.26 87.27Z" fill="#FFFFFF" fill-opacity="1.000000" fill-rule="nonzero"/>
		<path id="Vector (Stroke)" d="M264.17 76.63C264.17 75.94 264.73 75.38 265.42 75.38L267.59 75.38C268.28 75.38 268.84 75.94 268.84 76.63L268.84 83.83C268.84 85.27 267.67 86.44 266.23 86.44L265.74 86.44C264.87 86.44 264.17 85.74 264.17 84.87L264.17 76.63ZM265.42 76.02C265.08 76.02 264.81 76.3 264.81 76.63L264.81 84.87C264.81 85.38 265.22 85.8 265.74 85.8L266.23 85.8C267.32 85.8 268.2 84.92 268.2 83.83L268.2 76.63C268.2 76.3 267.93 76.02 267.59 76.02L265.42 76.02Z" fill="#66B0F0" fill-opacity="1.000000" fill-rule="evenodd"/>
		<path id="Vector (Stroke)" d="M257.38 76.04C257.04 76.04 256.77 76.31 256.77 76.65L256.77 85.33C256.77 86.05 257.35 86.63 258.07 86.63L259.22 86.63C259.73 86.63 260.15 86.21 260.15 85.7L260.15 76.65C260.15 76.31 259.88 76.04 259.54 76.04L257.38 76.04ZM256.13 76.65C256.13 75.96 256.69 75.4 257.38 75.4L259.54 75.4C260.23 75.4 260.79 75.96 260.79 76.65L260.79 85.7C260.79 86.57 260.09 87.27 259.22 87.27L258.07 87.27C257 87.27 256.13 86.41 256.13 85.33L256.13 76.65Z" fill="#66B0F0" fill-opacity="1.000000" fill-rule="evenodd"/>
		<path id="Vector (Stroke)" d="M261.4 76.02C261.06 76.02 260.79 76.3 260.79 76.63L260.79 85.45C260.79 86.28 261.46 86.95 262.29 86.95L263.26 86.95C263.75 86.95 264.17 86.54 264.17 86.02L264.17 76.63C264.17 76.3 263.9 76.02 263.56 76.02L261.4 76.02ZM260.15 76.63C260.15 75.94 260.71 75.38 261.4 75.38L263.56 75.38C264.25 75.38 264.81 75.94 264.81 76.63L264.81 86.02C264.81 86.89 264.11 87.59 263.26 87.59L262.29 87.59C261.11 87.59 260.15 86.63 260.15 85.45L260.15 76.63Z" fill="#66B0F0" fill-opacity="1.000000" fill-rule="evenodd"/>
		<path id="Vector" d="M295.47 67.29L295.47 78.99C295.47 81.01 292.02 82.66 287.78 82.66C283.54 82.66 280.1 81.01 280.1 78.99L280.1 67.29L295.47 67.29Z" fill="#FFFFFF" fill-opacity="1.000000" fill-rule="nonzero"/>
		<path id="Vector" d="M295.46 67.29C295.46 76.12 289.81 78.75 284.39 78.28C284.37 78.28 284.35 78.28 284.34 78.28C281.94 78.06 280.11 76.01 280.11 73.6L280.11 67.3L295.46 67.3L295.46 67.29Z" fill="#66B0F0" fill-opacity="1.000000" fill-rule="nonzero"/>
		<path id="HEAD 4" d="M299.04 64.28L299.04 64.87C299.04 66.18 297.98 67.24 296.67 67.24L295.45 67.24L295.47 67.51C295.47 71.3 292.41 74.36 288.63 74.36L286.95 74.36C283.17 74.36 280.11 71.3 280.11 67.51L280.13 67.24L278.91 67.24C277.6 67.24 276.54 66.18 276.54 64.87L276.54 64.28C276.54 62.96 277.6 61.9 278.91 61.9L280.47 61.9L280.64 59C280.64 58.55 280.71 58.12 280.83 57.72C285.41 58.86 290.77 55.91 292.22 55.03C293.82 55.64 294.95 57.18 294.95 58.99L295.13 61.89L296.68 61.89C297.98 61.9 299.04 62.96 299.04 64.28Z" fill="#FFFFFF" fill-opacity="1.000000" fill-rule="nonzero"/>
		<path id="HAIR 2" d="M296.78 61.9L295.11 61.9L294.94 59C294.94 57.19 293.8 55.65 292.2 55.04C290.76 55.91 285.4 58.86 280.82 57.74C280.69 58.14 280.62 58.57 280.62 59.02L280.45 61.92L279.41 61.92C279.41 61.92 277.28 51.6 279.38 49.71C280.93 48.31 295.14 51.36 296.71 53.52C297.59 54.75 296.78 61.9 296.78 61.9Z" fill="#E57281" fill-opacity="1.000000" fill-rule="nonzero"/>
		<path id="Vector" d="M292.78 61.28C292.73 61.28 292.66 61.26 292.62 61.21C292.6 61.2 291.56 60.35 289.89 60.35C289.77 60.35 289.65 60.24 289.65 60.11C289.65 59.98 289.77 59.87 289.89 59.87C291.73 59.87 292.87 60.8 292.92 60.85C293.01 60.93 293.03 61.09 292.95 61.18C292.92 61.25 292.84 61.28 292.78 61.28Z" fill="#66B0F0" fill-opacity="1.000000" fill-rule="nonzero"/>
		<path id="Vector" d="M286.69 66.25C286.66 66.25 286.63 66.25 286.61 66.23C286.48 66.18 286.42 66.04 286.47 65.93C286.92 64.74 286.8 63.25 286.18 61.94C285.81 61.14 285.28 60.56 284.82 60.4C283.79 60.05 282.35 60.54 282.34 60.54C282.21 60.59 282.08 60.53 282.03 60.4C281.99 60.27 282.05 60.14 282.18 60.09C282.24 60.08 283.78 59.55 284.96 59.95C285.56 60.16 286.16 60.82 286.6 61.75C287.27 63.17 287.38 64.81 286.9 66.12C286.88 66.18 286.79 66.25 286.69 66.25Z" fill="#66B0F0" fill-opacity="1.000000" fill-rule="nonzero"/>
		<path id="Vector" d="M289.85 68.8C289.86 68.92 289.75 69.04 289.62 69.05L289.61 69.05C289.48 69.05 289.38 68.96 289.37 68.83C289.35 68.67 289.32 68.51 289.27 68.36C288.58 68.7 287.96 68.81 287.45 68.81C286.44 68.81 285.83 68.39 285.8 68.36C285.68 68.28 285.67 68.14 285.73 68.03C285.81 67.91 285.96 67.9 286.07 67.96C286.1 67.98 286.61 68.33 287.45 68.33C287.89 68.33 288.44 68.23 289.06 67.93C288.97 67.77 288.87 67.67 288.87 67.67C288.77 67.58 288.79 67.42 288.89 67.34C288.98 67.26 289.14 67.26 289.22 67.35C289.25 67.4 289.8 68.01 289.85 68.8Z" fill="#66B0F0" fill-opacity="1.000000" fill-rule="nonzero"/>
		<path id="Vector" d="M290.71 64.21C290.93 64.2 291.09 63.83 291.06 63.39C291.03 62.95 290.83 62.6 290.61 62.61C290.39 62.63 290.23 63 290.26 63.44C290.29 63.88 290.49 64.23 290.71 64.21Z" fill="#66B0F0" fill-opacity="1.000000" fill-rule="nonzero"/>
		<path id="Vector" d="M284.18 64.15C284.38 64.14 284.52 63.8 284.5 63.39C284.47 62.99 284.29 62.67 284.08 62.68C283.88 62.69 283.74 63.03 283.76 63.44C283.79 63.84 283.97 64.16 284.18 64.15Z" fill="#66B0F0" fill-opacity="1.000000" fill-rule="nonzero"/>
		<path id="Vector" d="M279.7 65.04C279.57 65.04 279.46 64.93 279.46 64.8C279.46 64.1 278.88 63.54 278.19 63.54C278.06 63.54 277.95 63.43 277.95 63.3C277.95 63.17 278.06 63.06 278.19 63.06C279.15 63.06 279.94 63.84 279.94 64.8C279.94 64.95 279.82 65.04 279.7 65.04Z" fill="#66B0F0" fill-opacity="1.000000" fill-rule="nonzero"/>
		<path id="Vector" d="M295.8 65.04C295.67 65.04 295.56 64.93 295.56 64.8C295.56 63.84 296.35 63.06 297.31 63.06C297.43 63.06 297.55 63.17 297.55 63.3C297.55 63.43 297.43 63.54 297.31 63.54C296.6 63.54 296.04 64.12 296.04 64.8C296.04 64.95 295.95 65.04 295.8 65.04Z" fill="#66B0F0" fill-opacity="1.000000" fill-rule="nonzero"/>
		<path id="Vector (Stroke)" d="M79.86 192.9C81.25 188.1 85.64 184.8 90.62 184.8L506.76 184.8C511.7 184.8 516.06 188.03 517.48 192.75L517.48 192.75L79.86 192.9ZM80.79 193.17L15.36 419.99L14.44 419.72L79.86 192.9L79.86 192.9L80.79 193.17ZM80.79 193.17C80.79 193.17 80.79 193.17 80.79 193.17C82.06 188.77 86.06 185.76 90.62 185.76L506.76 185.76C511.27 185.76 515.26 188.71 516.56 193.03L516.56 193.03L585.13 420L586.05 419.72L517.48 192.75L80.79 193.17Z" fill="#66B0F0" fill-opacity="1.000000" fill-rule="evenodd"/>
		<path id="Vector (Stroke)" d="M386.63 109.05L204.62 109.05L204.62 108.09L386.63 108.09L386.63 109.05Z" fill="#66B0F0" fill-opacity="1.000000" fill-rule="evenodd"/>
		<path id="PAPER 1" d="M267.79 143.06L310.79 143.06L310.79 180.04L267.79 180.04C267.79 180.04 267.79 141.67 267.79 143.06Z" fill="#FFCF2D" fill-opacity="1.000000" fill-rule="nonzero"/>
		<path id="Vector" d="M428.58 314.85L408.58 265.01L440.77 265.01L428.58 314.85Z" fill="#9A3B82" fill-opacity="1.000000" fill-rule="nonzero"/>
		<path id="Vector" d="M373.71 198.48C378.01 190.36 386.44 185.28 395.61 185.28L420.38 185.28L437.2 198.48L373.71 198.48Z" fill="#9A3B82" fill-opacity="1.000000" fill-rule="nonzero"/>
		<path id="Vector" d="M467.6 256.84L405.22 256.84L428.7 313.91C427.07 311.25 417.29 314.02 406.93 320.38C396.7 326.66 389.79 334.23 391.2 336.98L340.58 248.81C327.45 226.56 343.46 198.48 369.26 198.48L509.07 198.48L509.37 199.44C518.5 227.81 497.36 256.84 467.6 256.84Z" fill="#3FB1B5" fill-opacity="1.000000" fill-rule="nonzero"/>
		<path id="Vector" d="M511.48 214.85C511.26 220.05 510.11 225.09 508.15 229.75L434.84 198.5L507.61 198.5L509.31 203.47C510.49 206.45 511.15 210.63 511.48 214.85Z" fill="#E6E6E6" fill-opacity="1.000000" fill-rule="nonzero"/>
		<path id="Vector" d="M428.72 313.91C430.35 316.57 423.21 323.82 412.87 330.19C402.51 336.55 392.89 339.74 391.26 337.08C389.63 334.42 396.59 326.9 406.95 320.54C417.29 314.18 427.07 311.25 428.72 313.91Z" fill="#66B0F0" fill-opacity="1.000000" fill-rule="nonzero"/>
		<path id="Vector (Stroke)" d="M475.53 202.55C475.79 202.49 476.04 202.66 476.09 202.92C478.62 214.92 469.48 226.21 457.23 226.21L368.56 226.21C361.61 226.21 357.25 233.7 360.64 239.76C360.64 239.76 360.64 239.76 360.64 239.76L406.17 320.34C406.3 320.57 406.21 320.86 405.98 320.99C405.75 321.12 405.46 321.04 405.33 320.81L359.8 240.23L359.8 240.23C356.05 233.53 360.88 225.25 368.56 225.25L457.23 225.25C468.87 225.25 477.56 214.52 475.15 203.12C475.1 202.86 475.27 202.6 475.53 202.55Z" fill="#FFFFFF" fill-opacity="1.000000" fill-rule="evenodd"/>
		<path id="Vector (Stroke)" d="M421.88 313.54C418.18 314.46 413.24 316.72 407.19 320.25C401.83 323.38 397.41 327.04 394.54 330.23C393.1 331.83 392.07 333.3 391.49 334.51C391.21 335.11 391.04 335.63 390.99 336.06C390.94 336.49 391.01 336.79 391.14 337.01C391.28 337.23 391.21 337.53 390.98 337.67C390.76 337.81 390.46 337.73 390.32 337.51C390.05 337.06 389.97 336.52 390.04 335.95C390.11 335.38 390.31 334.75 390.63 334.09C391.25 332.77 392.35 331.22 393.82 329.59C396.77 326.31 401.27 322.59 406.71 319.42L406.71 319.42C412.78 315.88 417.82 313.56 421.65 312.6C423.57 312.13 425.22 311.98 426.56 312.22C427.93 312.45 428.99 313.09 429.66 314.17C429.8 314.39 429.73 314.69 429.5 314.83C429.28 314.97 428.98 314.9 428.84 314.67C428.34 313.87 427.54 313.36 426.4 313.16C425.24 312.96 423.73 313.07 421.88 313.54Z" fill="#FFFFFF" fill-opacity="1.000000" fill-rule="evenodd"/>
		<path id="Vector (Stroke)" d="M399.67 243.33C399.92 243.23 400.2 243.34 400.3 243.59L430.04 314.59C430.15 314.83 430.03 315.11 429.79 315.21C429.54 315.32 429.26 315.2 429.16 314.96L399.41 243.96C399.31 243.71 399.43 243.43 399.67 243.33Z" fill="#FFFFFF" fill-opacity="1.000000" fill-rule="evenodd"/>
		<path id="Vector (Stroke)" d="M440.09 198.43L367.52 198.43L367.52 197.47L440.09 197.47L440.09 198.43Z" fill="#FFFFFF" fill-opacity="1.000000" fill-rule="evenodd"/>
		<path id="Vector" d="M408.56 340.75L404.24 334.85L398.29 326.74C400.72 324.69 403.65 322.56 406.93 320.54C413.46 316.53 419.75 313.87 423.93 313.14L426.83 318.92L430.45 326.13C427.89 335.25 408.56 340.75 408.56 340.75Z" fill="#E57281" fill-opacity="1.000000" fill-rule="nonzero"/>
		<path id="Vector" d="M426.85 318.92C424.16 322.21 419.1 326.36 412.87 330.19C409.88 332.03 406.95 333.6 404.26 334.85L398.3 326.74C400.74 324.69 403.66 322.56 406.95 320.54C413.48 316.53 419.77 313.87 423.95 313.14L426.85 318.92Z" fill="#9A3B82" fill-opacity="1.000000" fill-rule="nonzero"/>
		<path id="Vector" d="M450.24 357.92L406.31 389.5C402.58 392.1 396.78 394.26 397.55 384.87C398.62 371.92 401.49 352.66 408.57 340.73C408.87 340.65 427.89 335.16 430.45 326.12L450.48 340.37C456.24 344.85 456.11 353.6 450.24 357.92Z" fill="#FFFFFF" fill-opacity="1.000000" fill-rule="nonzero"/>
		<path id="Vector (Stroke)" d="M430.17 325.33L450.76 339.98L450.77 339.99C456.78 344.67 456.65 353.8 450.52 358.3L450.52 358.3L406.58 389.9L406.58 389.9C405.63 390.56 404.54 391.2 403.44 391.64C402.34 392.08 401.2 392.33 400.16 392.16C399.09 391.97 398.19 391.34 397.63 390.12C397.09 388.94 396.88 387.21 397.07 384.83L397.07 384.83C397.61 378.34 398.6 370.27 400.34 362.32C402.08 354.37 404.58 346.52 408.15 340.49L408.25 340.32L408.44 340.27C408.44 340.27 408.44 340.27 408.45 340.27L408.46 340.26C408.47 340.26 408.49 340.26 408.51 340.25C408.56 340.24 408.62 340.22 408.7 340.19C408.85 340.15 409.07 340.08 409.34 340C409.89 339.82 410.66 339.57 411.59 339.24C413.45 338.57 415.91 337.6 418.45 336.35C420.99 335.11 423.58 333.59 425.68 331.83C427.8 330.08 429.38 328.11 429.99 325.99L430.17 325.33ZM430.7 326.89C429.91 329.02 428.28 330.92 426.3 332.57C424.11 334.39 421.45 335.95 418.87 337.22C414.25 339.49 409.85 340.85 408.88 341.14C405.43 347.02 402.99 354.69 401.28 362.52C399.55 370.42 398.56 378.45 398.03 384.91C397.84 387.22 398.06 388.75 398.51 389.72C398.94 390.66 399.57 391.08 400.32 391.21C401.11 391.34 402.06 391.16 403.08 390.75C404.09 390.35 405.12 389.75 406.03 389.11C406.03 389.11 406.03 389.11 406.03 389.11L449.95 357.53C449.95 357.53 449.95 357.53 449.95 357.52C455.57 353.4 455.69 345.04 450.19 340.75L430.7 326.89Z" fill="#FFCF2D" fill-opacity="1.000000" fill-rule="evenodd"/>
		<path id="Vector (Stroke)" d="M432.79 327.43C433.04 327.51 433.19 327.77 433.12 328.03C432.33 330.82 430.47 333.34 428.11 335.52C425.75 337.71 422.87 339.59 419.99 341.1C417.1 342.61 414.2 343.77 411.8 344.5C410.6 344.87 409.51 345.13 408.61 345.29C407.73 345.44 406.97 345.49 406.44 345.39C406.18 345.34 406.01 345.09 406.06 344.83C406.11 344.57 406.36 344.39 406.62 344.44C406.97 344.51 407.59 344.49 408.45 344.34C409.3 344.19 410.34 343.94 411.52 343.58C413.86 342.86 416.71 341.73 419.54 340.25C422.37 338.76 425.18 336.93 427.46 334.82C429.74 332.7 431.47 330.33 432.2 327.77C432.27 327.51 432.53 327.36 432.79 327.43Z" fill="#FFCF2D" fill-opacity="1.000000" fill-rule="evenodd"/>
		<path id="Vector" d="M401.81 386.25C401.81 386.25 430.48 346.38 450.88 348.62C473.08 351.04 383.66 409.51 401.81 386.25Z" fill="#FFCF2D" fill-opacity="1.000000" fill-rule="nonzero"/>
		<path id="Vector (Stroke)" d="M400.05 385.34C400.05 385.35 400.05 385.35 399.66 385.06L400.05 385.35L400.05 385.35L400.04 385.36C398.48 387.37 398.35 388.88 398.72 389.81C399.1 390.75 400.04 391.26 400.96 391.2C401.23 391.18 401.46 391.39 401.47 391.65C401.49 391.92 401.29 392.14 401.02 392.16C399.72 392.25 398.37 391.53 397.83 390.17C397.28 388.8 397.6 386.93 399.28 384.77L399.28 384.77L399.3 384.75C399.31 384.73 399.33 384.7 399.36 384.66C399.42 384.58 399.51 384.46 399.62 384.31C399.84 384.01 400.18 383.56 400.61 383C401.47 381.87 402.72 380.26 404.29 378.34C407.42 374.49 411.83 369.38 416.9 364.34C421.97 359.3 427.72 354.33 433.55 350.75C439.37 347.18 445.33 344.97 450.8 345.58C452.57 345.77 453.81 346.6 454.49 347.75C455.16 348.88 455.24 350.27 454.82 351.54C454.74 351.79 454.47 351.93 454.21 351.85C453.96 351.76 453.83 351.49 453.91 351.24C454.26 350.2 454.17 349.1 453.66 348.23C453.16 347.38 452.21 346.69 450.7 346.53L450.7 346.53C445.54 345.96 439.81 348.05 434.06 351.57C428.31 355.09 422.62 360.01 417.58 365.02C412.54 370.03 408.15 375.11 405.03 378.94C403.47 380.86 402.22 382.46 401.37 383.58C400.94 384.14 400.61 384.59 400.39 384.89C400.28 385.04 400.2 385.15 400.14 385.23C400.11 385.27 400.09 385.3 400.08 385.32L400.06 385.34L400.05 385.34Z" fill="#FFCF2D" fill-opacity="1.000000" fill-rule="evenodd"/>
		<path id="Vector" d="M511.64 218.1C501.5 215.7 476.23 209.36 447.42 202.7C433.88 199.57 422.54 190.34 416.7 177.71L390.46 120.88L406.34 95.69C411.22 87.93 419.55 83 428.69 82.43L444.31 81.47C460.07 80.51 472.71 90.35 477.51 105.4L509.29 198.48C512.78 207.2 511.64 218.1 511.64 218.1Z" fill="#FFFFFF" fill-opacity="1.000000" fill-rule="nonzero"/>
		<path id="Vector (Stroke)" d="M444.34 81.95C444.34 81.95 444.34 81.95 444.34 81.95L428.72 82.91C419.73 83.47 411.55 88.32 406.75 95.94L391 120.92L417.13 177.51C422.91 190 434.13 199.14 447.53 202.23L447.53 202.23C467.43 206.84 485.65 211.28 498.36 214.38C503.72 215.69 508.1 216.76 511.21 217.5C511.24 217.19 511.26 216.77 511.29 216.24C511.34 215.09 511.37 213.47 511.3 211.58C511.14 207.79 510.56 202.95 508.84 198.66L508.84 198.65L477.06 105.56L477.06 105.55L477.06 105.55C472.31 90.68 459.85 81 444.34 81.95ZM511.64 218.1L512.12 218.15L512.06 218.69L511.53 218.57C508.39 217.82 503.8 216.7 498.11 215.31C485.41 212.21 467.21 207.77 447.31 203.17C433.62 200.01 422.17 190.68 416.26 177.91L416.26 177.91L389.91 120.85L405.93 95.43C410.9 87.54 419.36 82.52 428.66 81.95L444.28 80.99C460.28 80.02 473.11 90.02 477.97 105.25C477.97 105.25 477.97 105.25 477.97 105.25L509.74 198.31C511.51 202.74 512.1 207.7 512.26 211.54C512.33 213.46 512.3 215.11 512.25 216.28C512.22 216.86 512.19 217.33 512.16 217.65C512.15 217.81 512.14 217.93 512.13 218.02C512.13 218.04 512.13 218.06 512.13 218.07C512.13 218.09 512.13 218.1 512.12 218.11L512.12 218.14L512.12 218.15L512.12 218.15L512.12 218.15C512.12 218.15 512.12 218.15 511.64 218.1Z" fill="#FE5244" fill-opacity="1.000000" fill-rule="evenodd"/>
		<path id="Vector (Stroke)" d="M403.87 124.33C403.87 124.33 403.87 124.33 404.27 124.07C404.68 123.81 404.68 123.81 404.68 123.81L404.68 123.81L404.68 123.82L404.68 123.82C404.69 123.83 404.69 123.84 404.7 123.85C404.72 123.87 404.74 123.9 404.77 123.95C404.83 124.04 404.93 124.18 405.06 124.36C405.32 124.72 405.71 125.23 406.24 125.86C407.31 127.12 408.93 128.83 411.14 130.63C415.55 134.24 422.32 138.2 431.74 139.64L431.59 140.59C421.98 139.12 415.05 135.07 410.53 131.38C408.27 129.53 406.61 127.78 405.51 126.48C404.96 125.83 404.55 125.3 404.28 124.93C404.15 124.74 404.04 124.59 403.98 124.49C403.94 124.44 403.92 124.4 403.9 124.37C403.89 124.36 403.88 124.35 403.88 124.34L403.87 124.33L403.87 124.33L403.87 124.33Z" fill="#FE5244" fill-opacity="1.000000" fill-rule="evenodd"/>
		<path id="Vector" d="M415.54 100.16C414.68 99.23 413.16 99.49 412.63 100.62C412.04 101.91 413.11 103.33 414.5 103.12C415.93 102.92 416.52 101.2 415.54 100.16Z" fill="#FFCF2D" fill-opacity="1.000000" fill-rule="nonzero"/>
		<path id="Vector (Stroke)" d="M412.2 100.42C412.87 98.98 414.8 98.65 415.89 99.83C417.14 101.16 416.38 103.34 414.57 103.6C412.81 103.86 411.44 102.05 412.19 100.42L412.2 100.42L412.2 100.42ZM413.07 100.83C412.64 101.76 413.42 102.8 414.43 102.65L414.43 102.65L414.43 102.65C415.47 102.5 415.91 101.25 415.19 100.49L415.19 100.49L415.19 100.49C414.56 99.81 413.45 100 413.07 100.83Z" fill="#FE5244" fill-opacity="1.000000" fill-rule="evenodd"/>
		<path id="Vector" d="M455.42 127.55C454.56 126.62 453.04 126.88 452.51 128.02C451.92 129.3 452.99 130.72 454.38 130.52C455.81 130.31 456.4 128.59 455.42 127.55Z" fill="#FFCF2D" fill-opacity="1.000000" fill-rule="nonzero"/>
		<path id="Vector (Stroke)" d="M452.07 127.81C452.74 126.37 454.67 126.04 455.77 127.22C457.01 128.55 456.26 130.73 454.45 130.99C452.68 131.25 451.32 129.44 452.07 127.81L452.07 127.81L452.07 127.81ZM452.94 128.22C452.51 129.15 453.29 130.19 454.31 130.04L454.31 130.04L454.31 130.04C455.35 129.89 455.78 128.64 455.07 127.88L455.07 127.88L455.07 127.88C454.44 127.2 453.33 127.39 452.94 128.22Z" fill="#FE5244" fill-opacity="1.000000" fill-rule="evenodd"/>
		<path id="Vector" d="M468.05 138.77C467.19 137.84 465.67 138.1 465.14 139.23C464.55 140.52 465.62 141.94 467.01 141.73C468.42 141.54 469.01 139.83 468.05 138.77Z" fill="#FFCF2D" fill-opacity="1.000000" fill-rule="nonzero"/>
		<path id="Vector (Stroke)" d="M464.7 139.03C465.37 137.59 467.31 137.26 468.4 138.44L468.41 138.44C469.62 139.77 468.89 141.96 467.08 142.21C465.31 142.47 463.95 140.66 464.7 139.03L464.7 139.03L464.7 139.03ZM465.58 139.43C465.14 140.37 465.93 141.41 466.94 141.26L466.95 141.25C467.95 141.12 468.41 139.88 467.7 139.09C467.07 138.42 465.96 138.6 465.58 139.43Z" fill="#FE5244" fill-opacity="1.000000" fill-rule="evenodd"/>
		<path id="Vector" d="M492.27 202.25C491.41 201.32 489.89 201.58 489.36 202.71C488.77 204 489.84 205.42 491.23 205.21C492.64 205.01 493.23 203.31 492.27 202.25Z" fill="#FFCF2D" fill-opacity="1.000000" fill-rule="nonzero"/>
		<path id="Vector (Stroke)" d="M488.92 202.51C489.59 201.07 491.53 200.74 492.62 201.92L492.63 201.93C493.84 203.26 493.1 205.43 491.3 205.69C489.53 205.95 488.17 204.14 488.92 202.51L488.92 202.51L488.92 202.51ZM489.8 202.92C489.36 203.85 490.15 204.89 491.16 204.74L491.16 204.74C492.18 204.59 492.62 203.35 491.92 202.58C491.29 201.9 490.18 202.09 489.8 202.92Z" fill="#FE5244" fill-opacity="1.000000" fill-rule="evenodd"/>
		<path id="Vector" d="M478.71 171.91C477.85 170.98 476.33 171.24 475.8 172.38C475.21 173.66 476.28 175.09 477.67 174.88C479.1 174.67 479.69 172.95 478.71 171.91Z" fill="#FFCF2D" fill-opacity="1.000000" fill-rule="nonzero"/>
		<path id="Vector (Stroke)" d="M475.37 172.17C476.04 170.73 477.97 170.4 479.06 171.58C480.31 172.91 479.55 175.09 477.74 175.35C475.97 175.61 474.61 173.8 475.36 172.17L475.37 172.17L475.37 172.17ZM476.24 172.58C475.81 173.51 476.59 174.55 477.6 174.4L477.6 174.4L477.6 174.4C478.64 174.25 479.08 173 478.36 172.24L478.36 172.24L478.36 172.24C477.73 171.56 476.62 171.75 476.24 172.58Z" fill="#FE5244" fill-opacity="1.000000" fill-rule="evenodd"/>
		<path id="Vector" d="M484.33 150.08C483.08 150.24 482.4 151.64 483.02 152.73C483.72 153.96 485.5 153.91 486.14 152.65C486.8 151.36 485.74 149.89 484.33 150.08Z" fill="#FFCF2D" fill-opacity="1.000000" fill-rule="nonzero"/>
		<path id="Vector (Stroke)" d="M486.57 152.87C485.76 154.47 483.5 154.53 482.6 152.97C481.81 151.58 482.68 149.81 484.27 149.61C486.06 149.36 487.4 151.24 486.57 152.87ZM485.72 152.43C486.19 151.49 485.42 150.42 484.4 150.56L484.39 150.56C483.49 150.68 482.98 151.69 483.44 152.49L483.44 152.49C483.95 153.39 485.25 153.36 485.71 152.43L485.72 152.43Z" fill="#FE5244" fill-opacity="1.000000" fill-rule="evenodd"/>
		<path id="Vector" d="M494.56 182.46C493.31 182.62 492.63 184.01 493.25 185.1C493.95 186.33 495.73 186.29 496.37 185.02C497.03 183.74 495.99 182.26 494.56 182.46Z" fill="#FFCF2D" fill-opacity="1.000000" fill-rule="nonzero"/>
		<path id="Vector (Stroke)" d="M496.8 185.24C495.99 186.85 493.73 186.91 492.83 185.34C492.04 183.95 492.91 182.18 494.5 181.98C496.31 181.74 497.63 183.61 496.8 185.24ZM495.94 184.8C496.42 183.86 495.67 182.79 494.63 182.93L494.62 182.93C493.72 183.05 493.21 184.07 493.67 184.86L493.67 184.86C494.18 185.76 495.48 185.73 495.94 184.8L495.94 184.8Z" fill="#FE5244" fill-opacity="1.000000" fill-rule="evenodd"/>
		<path id="Vector" d="M452.14 147.53C451.28 146.6 449.75 146.86 449.23 148C448.63 149.28 449.71 150.71 451.1 150.5C452.51 150.29 453.1 148.59 452.14 147.53Z" fill="#FFCF2D" fill-opacity="1.000000" fill-rule="nonzero"/>
		<path id="Vector (Stroke)" d="M448.79 147.8C449.46 146.35 451.39 146.02 452.49 147.21L452.5 147.21C453.71 148.55 452.97 150.71 451.17 150.98C449.4 151.24 448.04 149.43 448.79 147.8L448.79 147.8L448.79 147.8ZM449.66 148.2C449.23 149.14 450.01 150.18 451.03 150.02L451.03 150.02C452.05 149.87 452.49 148.64 451.79 147.86C451.16 147.19 450.05 147.37 449.66 148.2Z" fill="#FE5244" fill-opacity="1.000000" fill-rule="evenodd"/>
		<path id="Vector" d="M443.32 165.69C442.45 164.76 440.93 165.02 440.41 166.16C439.81 167.44 440.89 168.87 442.28 168.66C443.7 168.45 444.3 166.73 443.32 165.69Z" fill="#FFCF2D" fill-opacity="1.000000" fill-rule="nonzero"/>
		<path id="Vector (Stroke)" d="M439.97 165.95C440.64 164.51 442.57 164.18 443.67 165.36C444.91 166.69 444.16 168.87 442.35 169.13C440.58 169.4 439.22 167.59 439.97 165.95L439.97 165.95L439.97 165.95ZM440.84 166.36C440.41 167.29 441.19 168.33 442.21 168.18L442.21 168.18L442.21 168.18C443.25 168.03 443.68 166.78 442.97 166.02L442.97 166.02L442.97 166.02C442.34 165.34 441.23 165.53 440.84 166.36Z" fill="#FE5244" fill-opacity="1.000000" fill-rule="evenodd"/>
		<path id="Vector" d="M427.54 159.35C428.46 158.48 428.21 156.96 427.07 156.43C425.79 155.84 424.37 156.91 424.57 158.3C424.78 159.72 426.48 160.31 427.54 159.35Z" fill="#FFCF2D" fill-opacity="1.000000" fill-rule="nonzero"/>
		<path id="Vector (Stroke)" d="M424.1 158.37C423.83 156.6 425.64 155.24 427.27 155.99L427.27 155.99C428.72 156.66 429.04 158.6 427.86 159.7L427.86 159.7C426.52 160.92 424.36 160.17 424.1 158.37ZM426.87 156.86C425.94 156.43 424.9 157.22 425.05 158.23L425.05 158.23C425.2 159.25 426.43 159.7 427.21 158.99C427.88 158.36 427.7 157.25 426.87 156.86Z" fill="#FE5244" fill-opacity="1.000000" fill-rule="evenodd"/>
		<path id="Vector" d="M441.54 190.6C442.47 189.73 442.21 188.21 441.08 187.68C439.8 187.09 438.37 188.16 438.58 189.56C438.79 190.98 440.5 191.58 441.54 190.6Z" fill="#FFCF2D" fill-opacity="1.000000" fill-rule="nonzero"/>
		<path id="Vector (Stroke)" d="M438.11 189.63C437.84 187.85 439.65 186.49 441.28 187.25L441.28 187.25C442.72 187.92 443.05 189.85 441.87 190.95C440.55 192.19 438.37 191.44 438.11 189.63ZM440.88 188.12C439.94 187.69 438.9 188.47 439.06 189.49L439.06 189.49L439.06 189.49C439.21 190.53 440.46 190.96 441.21 190.25L441.22 190.25L441.22 190.25C441.89 189.62 441.71 188.51 440.88 188.12Z" fill="#FE5244" fill-opacity="1.000000" fill-rule="evenodd"/>
		<path id="Vector" d="M465.12 163.79C466.05 162.92 465.8 161.4 464.66 160.87C463.38 160.28 461.95 161.35 462.16 162.74C462.37 164.16 464.08 164.76 465.12 163.79Z" fill="#FFCF2D" fill-opacity="1.000000" fill-rule="nonzero"/>
		<path id="Vector (Stroke)" d="M461.69 162.81C461.42 161.04 463.23 159.68 464.86 160.43L464.86 160.43C466.3 161.1 466.63 163.04 465.45 164.14C464.12 165.38 461.95 164.6 461.69 162.81ZM464.46 161.3C463.52 160.87 462.48 161.66 462.64 162.67L462.64 162.67C462.79 163.7 464.04 164.14 464.79 163.43L464.8 163.43L464.8 163.43C465.47 162.8 465.29 161.69 464.46 161.3Z" fill="#FE5244" fill-opacity="1.000000" fill-rule="evenodd"/>
		<path id="Vector" d="M473.18 197.35C474.1 196.48 473.85 194.96 472.71 194.43C471.43 193.84 470.01 194.91 470.21 196.3C470.41 197.73 472.12 198.32 473.18 197.35Z" fill="#FFCF2D" fill-opacity="1.000000" fill-rule="nonzero"/>
		<path id="Vector (Stroke)" d="M469.74 196.37C469.48 194.6 471.29 193.24 472.91 193.99L472.91 193.99C474.36 194.66 474.68 196.6 473.5 197.7L473.5 197.7L473.5 197.7C472.17 198.93 469.99 198.19 469.74 196.37ZM472.51 194.86C471.58 194.43 470.54 195.22 470.69 196.23C470.69 196.24 470.69 196.24 470.69 196.24C470.83 197.27 472.07 197.71 472.85 196.99C473.52 196.36 473.34 195.25 472.51 194.86Z" fill="#FE5244" fill-opacity="1.000000" fill-rule="evenodd"/>
		<path id="Vector" d="M424.89 129.38C424.03 128.45 422.51 128.7 421.98 129.84C421.39 131.12 422.46 132.55 423.85 132.34C425.28 132.13 425.87 130.42 424.89 129.38Z" fill="#FFCF2D" fill-opacity="1.000000" fill-rule="nonzero"/>
		<path id="Vector (Stroke)" d="M421.55 129.64C422.22 128.2 424.15 127.87 425.25 129.05C426.49 130.37 425.73 132.55 423.92 132.82C422.16 133.08 420.79 131.27 421.54 129.64L421.55 129.64L421.55 129.64ZM422.42 130.04C421.99 130.98 422.77 132.02 423.78 131.87L423.78 131.87L423.78 131.87C424.83 131.71 425.26 130.46 424.54 129.71L424.54 129.7L424.54 129.7C423.91 129.03 422.8 129.21 422.42 130.04Z" fill="#FE5244" fill-opacity="1.000000" fill-rule="evenodd"/>
		<path id="Vector" d="M427.76 87.8C426.89 86.87 425.37 87.13 424.85 88.27C424.25 89.55 425.33 90.98 426.72 90.77C428.14 90.56 428.74 88.84 427.76 87.8Z" fill="#FFCF2D" fill-opacity="1.000000" fill-rule="nonzero"/>
		<path id="Vector (Stroke)" d="M424.41 88.07C425.08 86.62 427.01 86.29 428.11 87.48C429.35 88.8 428.6 90.98 426.79 91.25C425.02 91.51 423.66 89.7 424.41 88.07L424.41 88.07L424.41 88.07ZM425.28 88.47C424.85 89.41 425.63 90.45 426.65 90.29L426.65 90.29L426.65 90.29C427.69 90.14 428.12 88.89 427.41 88.13L427.41 88.13L427.41 88.13C426.78 87.46 425.67 87.64 425.28 88.47Z" fill="#FE5244" fill-opacity="1.000000" fill-rule="evenodd"/>
		<path id="Vector" d="M455.42 87.8C454.56 86.87 453.04 87.13 452.51 88.27C451.92 89.55 452.99 90.98 454.38 90.77C455.81 90.56 456.4 88.84 455.42 87.8Z" fill="#FFCF2D" fill-opacity="1.000000" fill-rule="nonzero"/>
		<path id="Vector (Stroke)" d="M452.07 88.07C452.74 86.62 454.67 86.29 455.77 87.48C457.01 88.8 456.26 90.98 454.45 91.25C452.68 91.51 451.32 89.7 452.07 88.07L452.07 88.07L452.07 88.07ZM452.94 88.47C452.51 89.41 453.29 90.45 454.31 90.29L454.31 90.29L454.31 90.29C455.35 90.14 455.78 88.89 455.07 88.13L455.07 88.13L455.07 88.13C454.44 87.46 453.33 87.64 452.94 88.47Z" fill="#FE5244" fill-opacity="1.000000" fill-rule="evenodd"/>
		<path id="Vector" d="M455.47 105.75C454.3 106.22 453.96 107.72 454.85 108.64C455.82 109.65 457.54 109.18 457.85 107.8C458.18 106.41 456.8 105.22 455.47 105.75Z" fill="#FFCF2D" fill-opacity="1.000000" fill-rule="nonzero"/>
		<path id="Vector (Stroke)" d="M455.29 105.31C456.98 104.63 458.73 106.14 458.32 107.91L458.32 107.92C457.92 109.67 455.74 110.25 454.5 108.97L454.5 108.97C453.38 107.81 453.81 105.9 455.29 105.31ZM457.39 107.7C457.62 106.68 456.62 105.82 455.65 106.2L455.65 106.2C454.79 106.54 454.55 107.64 455.19 108.3C455.91 109.04 457.15 108.7 457.39 107.7Z" fill="#FE5244" fill-opacity="1.000000" fill-rule="evenodd"/>
		<path id="Vector" d="M439.75 95.53C438.53 95.88 438.07 97.34 438.84 98.33C439.72 99.44 441.46 99.14 441.91 97.81C442.37 96.44 441.11 95.13 439.75 95.53Z" fill="#FFCF2D" fill-opacity="1.000000" fill-rule="nonzero"/>
		<path id="Vector (Stroke)" d="M439.62 95.07C441.35 94.56 442.95 96.23 442.37 97.96C441.79 99.65 439.58 100.03 438.46 98.63C438.46 98.63 438.46 98.63 438.46 98.63C437.48 97.37 438.07 95.51 439.62 95.07ZM441.46 97.65C441.8 96.65 440.87 95.7 439.89 95.99L439.88 95.99L439.88 95.99C439 96.25 438.66 97.31 439.21 98.04C439.86 98.84 441.13 98.62 441.46 97.65L441.46 97.65L441.46 97.65Z" fill="#FE5244" fill-opacity="1.000000" fill-rule="evenodd"/>
		<path id="Vector" d="M437.43 139.92C436.18 140.07 435.48 141.44 436.08 142.55C436.77 143.78 438.55 143.77 439.21 142.52C439.88 141.25 438.85 139.76 437.43 139.92Z" fill="#FFCF2D" fill-opacity="1.000000" fill-rule="nonzero"/>
		<path id="Vector (Stroke)" d="M439.63 142.74C440.49 141.13 439.18 139.24 437.37 139.44L437.37 139.44L437.37 139.44C435.78 139.63 434.89 141.38 435.66 142.78L435.66 142.78C436.54 144.35 438.79 144.33 439.63 142.74ZM437.48 140.4C438.53 140.28 439.27 141.37 438.78 142.29L438.78 142.29L438.78 142.29C438.3 143.2 437.01 143.22 436.5 142.32C436.06 141.51 436.58 140.5 437.48 140.4Z" fill="#FE5244" fill-opacity="1.000000" fill-rule="evenodd"/>
		<path id="Vector" d="M423.71 173.31C422.46 173.45 421.76 174.83 422.36 175.93C423.05 177.17 424.83 177.15 425.49 175.9C426.16 174.64 425.13 173.15 423.71 173.31Z" fill="#FFCF2D" fill-opacity="1.000000" fill-rule="nonzero"/>
		<path id="Vector (Stroke)" d="M425.91 176.13C426.77 174.51 425.46 172.62 423.66 172.83L423.66 172.83L423.65 172.83C422.06 173.01 421.17 174.76 421.94 176.17L421.95 176.17C422.82 177.73 425.08 177.72 425.91 176.13ZM423.76 173.78C424.81 173.67 425.55 174.76 425.06 175.68L425.06 175.68L425.06 175.68C424.58 176.59 423.29 176.6 422.78 175.7C422.34 174.89 422.86 173.89 423.76 173.78Z" fill="#FE5244" fill-opacity="1.000000" fill-rule="evenodd"/>
		<path id="Vector" d="M428.32 108.77C427.1 109.12 426.64 110.58 427.41 111.57C428.29 112.68 430.03 112.37 430.48 111.04C430.94 109.7 429.7 108.38 428.32 108.77Z" fill="#FFCF2D" fill-opacity="1.000000" fill-rule="nonzero"/>
		<path id="Vector (Stroke)" d="M430.94 111.2C431.53 109.48 429.93 107.82 428.19 108.3L428.19 108.31C426.64 108.75 426.05 110.61 427.03 111.87C427.03 111.87 427.03 111.87 427.03 111.87C428.15 113.27 430.36 112.89 430.94 111.2ZM428.45 109.23C429.46 108.95 430.36 109.91 430.03 110.89L430.03 110.89C429.7 111.85 428.43 112.08 427.79 111.27C427.23 110.55 427.57 109.49 428.45 109.23Z" fill="#FE5244" fill-opacity="1.000000" fill-rule="evenodd"/>
		<path id="Vector" d="M441.57 117.74C440.36 118.09 439.89 119.55 440.66 120.54C441.54 121.65 443.29 121.35 443.74 120.02C444.2 118.65 442.95 117.34 441.57 117.74Z" fill="#FFCF2D" fill-opacity="1.000000" fill-rule="nonzero"/>
		<path id="Vector (Stroke)" d="M441.44 117.28C443.19 116.77 444.78 118.44 444.19 120.17C443.62 121.86 441.4 122.25 440.29 120.85C440.29 120.85 440.28 120.84 440.28 120.84C439.31 119.58 439.9 117.73 441.44 117.28ZM443.28 119.86C443.62 118.86 442.71 117.91 441.71 118.2L441.71 118.2C440.82 118.46 440.48 119.52 441.04 120.25C441.69 121.06 442.96 120.83 443.28 119.86L443.28 119.86L443.28 119.86Z" fill="#FE5244" fill-opacity="1.000000" fill-rule="evenodd"/>
		<path id="Vector" d="M412.87 117.36C413.67 116.38 413.24 114.9 412.02 114.54C410.68 114.12 409.4 115.37 409.8 116.72C410.2 118.09 411.96 118.46 412.87 117.36Z" fill="#FFCF2D" fill-opacity="1.000000" fill-rule="nonzero"/>
		<path id="Vector (Stroke)" d="M412.16 114.08C413.71 114.55 414.26 116.43 413.24 117.66L413.24 117.66L413.24 117.66C412.08 119.07 409.85 118.6 409.34 116.85C408.83 115.13 410.46 113.55 412.16 114.08ZM411.88 115C410.89 114.69 409.97 115.61 410.26 116.58L410.26 116.58C410.55 117.59 411.84 117.86 412.5 117.05C413.09 116.34 412.77 115.27 411.88 115L411.88 115Z" fill="#FE5244" fill-opacity="1.000000" fill-rule="evenodd"/>
		<path id="Vector" d="M473.56 117.41C474.36 116.43 473.93 114.95 472.71 114.59C471.37 114.17 470.09 115.42 470.49 116.77C470.87 118.14 472.65 118.51 473.56 117.41Z" fill="#FFCF2D" fill-opacity="1.000000" fill-rule="nonzero"/>
		<path id="Vector (Stroke)" d="M472.85 114.12C474.4 114.59 474.95 116.47 473.93 117.71L473.93 117.71L473.93 117.71C472.78 119.11 470.52 118.65 470.03 116.9C469.52 115.18 471.15 113.6 472.85 114.12ZM472.57 115.04C471.58 114.74 470.66 115.66 470.95 116.63C470.95 116.63 470.95 116.63 470.95 116.63C471.23 117.63 472.52 117.91 473.19 117.1C473.78 116.38 473.46 115.31 472.57 115.04L472.57 115.04Z" fill="#FE5244" fill-opacity="1.000000" fill-rule="evenodd"/>
		<path id="Vector" d="M458.16 182.38C458.96 181.4 458.53 179.92 457.31 179.56C455.97 179.14 454.69 180.39 455.09 181.74C455.47 183.1 457.25 183.47 458.16 182.38Z" fill="#FFCF2D" fill-opacity="1.000000" fill-rule="nonzero"/>
		<path id="Vector (Stroke)" d="M457.45 179.1C459 179.57 459.54 181.44 458.53 182.68L458.53 182.68C457.37 184.06 455.12 183.61 454.62 181.87C454.12 180.15 455.75 178.57 457.45 179.1ZM457.17 180.02C456.18 179.71 455.26 180.63 455.55 181.6L455.55 181.6C455.82 182.59 457.12 182.87 457.79 182.07C458.37 181.35 458.05 180.28 457.17 180.02L457.17 180.02Z" fill="#FE5244" fill-opacity="1.000000" fill-rule="evenodd"/>
		<path id="Vector" d="M445.38 80.94C445.03 80.96 444.68 80.98 444.31 80.99L428.69 81.95C424.7 82.19 420.89 83.27 417.43 85.05L412.63 70.65L434.03 54.95L445.38 80.94Z" fill="#E57281" fill-opacity="1.000000" fill-rule="nonzero"/>
		<path id="Vector" d="M417.37 84.82C421.82 82.8 425.37 79.21 427.39 74.76L435.17 57.53L434.03 54.93L412.63 70.64L417.37 84.82Z" fill="#9A3B82" fill-opacity="1.000000" fill-rule="nonzero"/>
		<path id="Vector" d="M435.41 56.39C435.41 57.88 434.8 59.23 433.83 60.21C432.85 61.18 431.5 61.79 430.02 61.79L425.31 61.79C423.45 69.02 416.26 73.97 408.53 72.61L404.99 71.99C401.12 71.3 398.48 67.67 399.02 63.78L403.17 43C403.89 38.56 408.45 35.85 412.69 37.37L419.56 40.13C423.28 41.41 425.77 44.9 425.77 48.83L425.77 50.83L430.02 50.99C432.99 50.99 435.41 53.41 435.41 56.39Z" fill="#E57281" fill-opacity="1.000000" fill-rule="nonzero"/>
		<path id="Vector (Stroke)" d="M431.17 54.1C429.32 54.1 427.84 55.59 427.84 57.43C427.84 57.66 427.66 57.83 427.44 57.83C427.22 57.83 427.04 57.66 427.04 57.43C427.04 55.15 428.88 53.3 431.17 53.3C431.39 53.3 431.57 53.48 431.57 53.7C431.57 53.92 431.39 54.1 431.17 54.1Z" fill="#9A3B82" fill-opacity="1.000000" fill-rule="evenodd"/>
		<path id="Vector (Stroke)" d="M405.07 47.37C405.07 47.15 405.25 46.97 405.47 46.97L405.47 47.37C405.47 46.97 405.47 46.97 405.47 46.97L405.48 46.97L405.48 46.97L405.48 46.97L405.49 46.97C405.5 46.97 405.51 46.97 405.53 46.97C405.56 46.97 405.6 46.97 405.65 46.98C405.76 46.98 405.91 47 406.09 47.02C406.47 47.08 406.99 47.18 407.59 47.39C408.79 47.82 410.3 48.66 411.56 50.35C411.69 50.53 411.65 50.78 411.48 50.91C411.3 51.04 411.05 51.01 410.92 50.83C409.77 49.29 408.4 48.53 407.32 48.15C406.78 47.96 406.31 47.86 405.98 47.82C405.82 47.79 405.69 47.78 405.6 47.77C405.55 47.77 405.52 47.77 405.5 47.77C405.49 47.77 405.48 47.77 405.48 47.77L405.47 47.77C405.47 47.77 405.47 47.77 405.47 47.77L405.47 47.77L405.07 47.37Z" fill="#9A3B82" fill-opacity="1.000000" fill-rule="evenodd"/>
		<path id="Vector" d="M407.71 53.37C407.88 52.44 407.66 51.62 407.23 51.54C406.79 51.46 406.3 52.15 406.13 53.08C405.97 54.01 406.18 54.83 406.62 54.91C407.05 54.99 407.54 54.3 407.71 53.37Z" fill="#9A3B82" fill-opacity="1.000000" fill-rule="nonzero"/>
		<path id="Vector" d="M430.02 50.99C432.99 50.99 435.41 53.41 435.41 56.39C435.41 56.41 435.41 56.44 435.41 56.47C437.81 52.77 443.7 43.35 443.7 40.16C443.7 35.88 438.37 31.6 432.85 33.55C433.22 33.28 433.6 32.99 434 32.69C436.13 31.02 437.25 29.77 437.43 28.87C437.49 28.55 437.44 28.26 437.28 28.04C436.64 27.13 435.94 26.73 435.19 26.85C434.08 27.03 432.95 28.39 431.81 30.89C431.3 32.03 430.9 33.15 430.67 33.84C430.22 31.17 428.06 22.3 418.78 23.66C415.58 24.13 414.07 25.46 413.66 26.92C411 24.83 407.44 23.2 404.5 24.75C399.41 27.43 400.03 31.82 402.98 34.93C400.19 34.88 398.24 35.7 398.24 38.06C398.24 40.22 400.46 41.26 403.52 41.68C406.58 42.1 410.5 41.87 413.9 41.49C416.31 41.21 418.49 40.88 419.88 40.64C418.95 42.55 418.59 44.18 418.67 45.56C418.81 48.41 420.88 50.09 423.79 50.69C424.41 50.82 425.09 50.9 425.77 50.93L430.02 50.99ZM435.28 27.5C435.33 27.48 435.38 27.48 435.44 27.48C435.89 27.48 436.32 27.8 436.76 28.41C436.79 28.47 436.84 28.57 436.8 28.75C436.55 30.04 433.27 32.51 431.36 33.81C432.11 31.6 433.7 27.77 435.28 27.5Z" fill="#FFCF2D" fill-opacity="1.000000" fill-rule="nonzero"/>
		<path id="Vector" d="M385.64 173.75L283.19 173.75C280.66 173.75 279.14 170.97 280.48 168.83L294.12 147.39C295.9 144.6 298.95 142.92 302.25 142.92L371.6 142.92L385.64 173.75Z" fill="#E57281" fill-opacity="1.000000" fill-rule="nonzero"/>
		<path id="Vector" d="M304.51 142.93L312.67 129.47C313.15 128.67 314.03 128.17 314.96 128.17C317.06 128.17 318.34 130.47 317.25 132.26L310.77 142.93L304.51 142.93Z" fill="#FE5244" fill-opacity="1.000000" fill-rule="nonzero"/>
		<path id="Vector" d="M385.64 173.75L362.6 173.75C362.56 173.71 362.49 173.64 362.44 173.59C356.84 167.82 354.46 159.07 357.61 150.64L360.89 142.92L371.6 142.92L385.64 173.75Z" fill="#9A3B82" fill-opacity="1.000000" fill-rule="nonzero"/>
		<path id="Vector" d="M297.66 159.36L284.82 159.36C283.95 159.36 283.15 159.83 282.72 160.58L281.36 162.95C280.45 164.56 281.6 166.56 283.46 166.56L293.78 166.56C295.58 166.56 297.24 165.63 298.19 164.09L299.29 162.28C300.06 161 299.15 159.36 297.66 159.36Z" fill="#E57281" fill-opacity="1.000000" fill-rule="nonzero"/>
		<path id="Vector" d="M294.34 166.56L281.51 166.56C280.64 166.56 279.84 167.02 279.41 167.78L278.05 170.15C277.14 171.75 278.29 173.75 280.14 173.75L290.47 173.75C292.26 173.75 293.93 172.82 294.87 171.29L295.98 169.47C296.76 168.19 295.83 166.56 294.34 166.56Z" fill="#E57281" fill-opacity="1.000000" fill-rule="nonzero"/>
		<path id="Vector" d="M301.32 152.07L288.49 152.07C287.62 152.07 286.82 152.53 286.39 153.29L285.03 155.66C284.11 157.26 285.27 159.27 287.12 159.27L297.45 159.27C299.24 159.27 300.91 158.34 301.85 156.8L302.96 154.99C303.74 153.7 302.81 152.07 301.32 152.07Z" fill="#E57281" fill-opacity="1.000000" fill-rule="nonzero"/>
		<path id="Vector (Stroke)" d="M282.38 160.38C282.88 159.5 283.81 158.96 284.82 158.96L297.66 158.96C299.46 158.96 300.56 160.94 299.63 162.49L299.63 162.49L298.53 164.3L298.53 164.3C297.51 165.96 295.72 166.96 293.78 166.96L283.46 166.96C281.29 166.96 279.95 164.62 281.01 162.75L281.01 162.75L282.38 160.38ZM283.07 160.78L281.71 163.15C281.71 163.15 281.71 163.15 281.71 163.15C280.95 164.49 281.91 166.16 283.46 166.16L293.78 166.16C295.44 166.16 296.97 165.3 297.85 163.88C297.85 163.88 297.85 163.88 297.85 163.88L298.95 162.07C298.95 162.07 298.95 162.07 298.95 162.07C299.56 161.05 298.83 159.76 297.66 159.76L284.82 159.76C284.1 159.76 283.43 160.15 283.07 160.78Z" fill="#9A3B82" fill-opacity="1.000000" fill-rule="evenodd"/>
		<path id="Vector (Stroke)" d="M279.06 167.58C279.56 166.7 280.5 166.16 281.51 166.16L294.34 166.16C296.14 166.16 297.27 168.13 296.32 169.68L295.21 171.5L295.21 171.5C294.2 173.15 292.4 174.16 290.47 174.16L280.14 174.16C277.98 174.16 276.64 171.82 277.7 169.95L277.7 169.95L279.06 167.58ZM279.75 167.98L278.39 170.35C278.39 170.35 278.39 170.35 278.39 170.35C277.63 171.68 278.6 173.35 280.14 173.35L290.47 173.35C292.12 173.35 293.66 172.5 294.53 171.08C294.53 171.08 294.53 171.08 294.53 171.08L295.64 169.27C296.26 168.25 295.52 166.96 294.34 166.96L281.51 166.96C280.78 166.96 280.12 167.35 279.75 167.98Z" fill="#9A3B82" fill-opacity="1.000000" fill-rule="evenodd"/>
		<path id="Vector (Stroke)" d="M286.04 153.09C286.54 152.21 287.48 151.67 288.48 151.67L301.32 151.67C303.12 151.67 304.25 153.64 303.3 155.2L302.19 157.01L302.19 157.01C301.18 158.67 299.38 159.67 297.45 159.67L287.12 159.67C284.96 159.67 283.61 157.33 284.68 155.46L284.68 155.46L286.04 153.09ZM286.73 153.49L285.37 155.86C285.37 155.86 285.37 155.86 285.37 155.86C284.61 157.19 285.57 158.86 287.12 158.86L297.45 158.86C299.1 158.86 300.64 158.01 301.51 156.59C301.51 156.59 301.51 156.59 301.51 156.59L302.62 154.78C303.23 153.77 302.5 152.47 301.32 152.47L288.48 152.47C287.76 152.47 287.1 152.86 286.73 153.49Z" fill="#9A3B82" fill-opacity="1.000000" fill-rule="evenodd"/>
		<path id="Vector" d="M319.91 162.79C316.05 162.79 312.34 161.4 309.42 158.85L304.56 154.59L300.07 154.59L298.92 155.82C296.86 158.03 294.31 159.3 291.29 159.3L289.14 159.3C288.02 159.3 287.33 158.05 287.94 157.1L293.34 148.64L319.93 148.64L319.93 162.79L319.91 162.79Z" fill="#E57281" fill-opacity="1.000000" fill-rule="nonzero"/>
		<path id="Vector (Stroke)" d="M293.55 148.3C293.74 148.42 293.79 148.67 293.67 148.86L288.28 157.32L288.28 157.32C287.84 158 288.33 158.9 289.14 158.9L291.29 158.9C294.19 158.9 296.63 157.7 298.63 155.55L298.63 155.55L299.9 154.18L304.71 154.18L309.69 158.55C309.69 158.55 309.69 158.55 309.69 158.55L293.55 148.3ZM304.41 154.99L309.16 159.15L309.16 159.15C312.13 161.75 315.95 163.19 319.91 163.19C320.13 163.19 320.31 163.01 320.31 162.79C320.31 162.57 320.13 162.39 319.91 162.39C316.15 162.39 312.51 161.02 309.69 158.55L304.41 154.99ZM304.41 154.99L300.25 154.99L299.22 156.09C299.22 156.09 299.22 156.09 299.22 156.09C297.08 158.39 294.44 159.7 291.29 159.7L289.14 159.7C287.71 159.7 286.82 158.1 287.6 156.89C287.6 156.89 287.6 156.89 287.6 156.89L293 148.42C293.12 148.24 293.36 148.18 293.55 148.3L304.41 154.99Z" fill="#9A3B82" fill-opacity="1.000000" fill-rule="evenodd"/>
		<path id="Vector" d="M428 143.78L403.55 171.13C398.42 176.88 391.07 180.17 383.35 180.17C368.11 180.17 357.56 164.94 362.91 150.64L391.95 82.34L382.14 76.84C380.74 75.75 380.07 73.97 380.37 72.24L382.04 61.01C382.55 58.51 385.1 56.55 387.58 55.98L399.07 53.38C400.05 53.16 400.95 53.99 400.79 54.97L399.12 63.64C398.46 67.87 401.31 71.52 405.54 72.24C409 72.83 411.43 76.31 411.11 79.81L403.28 128.69C403.27 128.72 411.29 141.24 428 143.78Z" fill="#E57281" fill-opacity="1.000000" fill-rule="nonzero"/>
		<path id="Vector (Stroke)" d="M409.31 91.03C409.53 91.07 409.68 91.27 409.65 91.49L400.2 152.89C400.17 153.1 399.97 153.25 399.75 153.22C399.53 153.19 399.38 152.98 399.41 152.76L408.86 91.37C408.89 91.15 409.1 91 409.31 91.03Z" fill="#9A3B82" fill-opacity="1.000000" fill-rule="evenodd"/>
		<path id="Vector (Stroke)" d="M389.69 61.42C389.91 61.43 390.08 61.62 390.08 61.84L389.95 65.81C389.95 65.81 389.95 65.81 389.95 65.81C389.9 67.28 390.78 68.54 391.98 68.89L406.68 71.87C406.89 71.91 407.03 72.12 406.99 72.34C406.94 72.56 406.73 72.69 406.52 72.65L391.79 69.67L391.77 69.66C390.16 69.21 389.09 67.58 389.15 65.79L389.15 65.79L389.27 61.81C389.28 61.59 389.47 61.42 389.69 61.42Z" fill="#9A3B82" fill-opacity="1.000000" fill-rule="evenodd"/>
		<path id="Vector (Stroke)" d="M398.9 53.36C399.98 53.1 400.97 54.03 400.78 55.13L399.26 63.83C398.75 67.5 401.24 70.92 404.9 71.57L416.65 73.14C416.87 73.17 417.03 73.37 417 73.59C416.97 73.81 416.77 73.97 416.55 73.94L404.77 72.36L404.77 72.36C400.68 71.64 397.89 67.82 398.47 63.71L398.47 63.7L399.99 54.99C400.08 54.46 399.61 54.01 399.09 54.14L399.08 54.14L387.08 56.94C386.86 56.99 386.65 56.86 386.6 56.64C386.55 56.43 386.68 56.21 386.89 56.16L398.9 53.36C398.9 53.36 398.9 53.36 398.9 53.36Z" fill="#9A3B82" fill-opacity="1.000000" fill-rule="evenodd"/>
		<path id="Vector (Stroke)" d="M442.29 128.62L410.46 164.08L409.75 163.43L441.57 127.98L442.29 128.62Z" fill="#FE5244" fill-opacity="1.000000" fill-rule="evenodd"/>
		<path id="Vector (Stroke)" d="M391.88 82.35C391.88 82.13 392.06 81.95 392.28 81.95L397.9 81.95C398.12 81.95 398.3 82.13 398.3 82.35C398.3 82.58 398.12 82.75 397.9 82.75L392.28 82.75C392.06 82.75 391.88 82.58 391.88 82.35Z" fill="#9A3B82" fill-opacity="1.000000" fill-rule="evenodd"/>
		<path id="Vector (Stroke)" d="M394.82 55.18C395.39 55.58 395.82 56.22 395.81 57.02L395.69 65.39C395.69 66.42 394.95 67.34 393.92 67.34L392.16 67.34C390.53 67.34 389.29 65.86 389.29 64.16L389.29 62.88C389.29 62.66 389.47 62.48 389.69 62.48C389.91 62.48 390.09 62.66 390.09 62.88L390.09 64.16C390.09 65.51 391.06 66.54 392.16 66.54L393.92 66.54C394.42 66.54 394.89 66.08 394.89 65.38L394.89 65.38L395.01 57.01C395.01 57.01 395.01 57.01 395.01 57.01C395.01 56.52 394.76 56.11 394.37 55.85C393.97 55.58 393.46 55.47 393.02 55.58C392.81 55.63 392.59 55.5 392.54 55.29C392.48 55.07 392.62 54.85 392.83 54.8C393.51 54.64 394.25 54.8 394.82 55.18Z" fill="#9A3B82" fill-opacity="1.000000" fill-rule="evenodd"/>
		<path id="Vector (Stroke)" d="M395.41 62.48C395.63 62.48 395.81 62.66 395.81 62.88L395.81 64.16C395.81 65.51 396.77 66.54 397.87 66.54L398.99 66.54C399.21 66.54 399.39 66.72 399.39 66.94C399.39 67.16 399.21 67.34 398.99 67.34L397.87 67.34C396.25 67.34 395.01 65.86 395.01 64.16L395.01 62.88C395.01 62.66 395.18 62.48 395.41 62.48Z" fill="#9A3B82" fill-opacity="1.000000" fill-rule="evenodd"/>
		<path id="Vector (Stroke)" d="M519.83 419.92L501.24 265.07L502.2 264.95L520.78 419.8L519.83 419.92Z" fill="#66B0F0" fill-opacity="1.000000" fill-rule="evenodd"/>
		<path id="Vector (Stroke)" d="M402.1 419.8L420.69 264.95L421.64 265.07L403.05 419.92L402.1 419.8Z" fill="#66B0F0" fill-opacity="1.000000" fill-rule="evenodd"/>
		<path id="Vector (Stroke)" d="M513.92 367.16L408.95 367.16L408.95 366.2L513.92 366.2L513.92 367.16Z" fill="#66B0F0" fill-opacity="1.000000" fill-rule="evenodd"/>
		<path id="Vector" d="M410.45 265.49L511.47 265.49C512.81 265.49 513.9 264.4 513.9 263.05L513.9 259.75C513.9 258.41 512.81 257.32 511.47 257.32L410.45 257.32C409.11 257.32 408.02 258.41 408.02 259.75L408.02 263.05C408.02 264.4 409.11 265.49 410.45 265.49Z" fill="#FFFFFF" fill-opacity="1.000000" fill-rule="nonzero"/>
		<path id="Vector (Stroke)" d="M407.54 259.75C407.54 258.14 408.84 256.84 410.45 256.84L511.47 256.84C513.08 256.84 514.38 258.14 514.38 259.75L514.38 263.05C514.38 264.67 513.08 265.97 511.47 265.97L410.45 265.97C408.84 265.97 407.54 264.67 407.54 263.05L407.54 259.75ZM410.45 257.8C409.37 257.8 408.5 258.67 408.5 259.75L408.5 263.05C408.5 264.13 409.37 265.01 410.45 265.01L511.47 265.01C512.55 265.01 513.42 264.13 513.42 263.05L513.42 259.75C513.42 258.67 512.55 257.8 511.47 257.8L410.45 257.8Z" fill="#FFCF2D" fill-opacity="1.000000" fill-rule="evenodd"/>
		<path id="Vector" d="M242.37 148.3L226.9 180.17L180.17 180.17L198.95 148.3L242.37 148.3Z" fill="#FFFFFF" fill-opacity="1.000000" fill-rule="nonzero"/>
		<path id="Vector (Stroke)" d="M198.72 147.9L243 147.9L227.15 180.57L179.47 180.57L198.72 147.9ZM199.18 148.7L180.87 179.77L226.65 179.77L241.73 148.7L199.18 148.7Z" fill="#3FB1B5" fill-opacity="1.000000" fill-rule="evenodd"/>
		<path id="Vector (Stroke)" d="M213.72 154.54C214.08 154.77 214.43 154.99 214.78 155.21C215.35 155.55 216.03 155.67 216.81 155.6C217.6 155.54 218.46 155.31 219.39 155C219.97 154.8 220.55 154.58 221.14 154.36C221.5 154.22 221.87 154.08 222.24 153.95C223.2 153.6 224.18 153.27 225.13 153.1C227.69 152.63 229.52 153.31 230.72 154.12C231.31 154.52 231.74 154.95 232.03 155.29C232.17 155.45 232.28 155.6 232.35 155.7C232.39 155.75 232.41 155.79 232.43 155.82C232.44 155.84 232.45 155.85 232.45 155.86C232.46 155.86 232.46 155.87 232.46 155.87L232.46 155.87L232.46 155.87L232.46 155.87C232.46 155.87 232.46 155.87 232.12 156.08C231.77 156.28 231.77 156.28 231.77 156.28L231.77 156.28C231.77 156.27 231.77 156.27 231.77 156.27C231.77 156.27 231.76 156.26 231.76 156.25C231.74 156.23 231.72 156.2 231.69 156.16C231.64 156.08 231.55 155.95 231.42 155.81C231.17 155.52 230.79 155.14 230.27 154.78C229.23 154.08 227.6 153.46 225.28 153.89L225.27 153.89C224.4 154.05 223.47 154.35 222.51 154.7C222.16 154.83 221.8 154.96 221.44 155.1C220.84 155.33 220.23 155.56 219.64 155.75C218.7 156.08 217.76 156.33 216.87 156.4C215.98 156.47 215.12 156.35 214.37 155.89C213.98 155.65 213.6 155.41 213.23 155.18C212.31 154.59 211.43 154.02 210.48 153.61C209.2 153.05 207.84 152.81 206.23 153.26C204.55 153.73 203.08 154.42 202.03 154.99C201.5 155.27 201.09 155.53 200.8 155.71C200.66 155.8 200.55 155.88 200.48 155.93C200.44 155.95 200.41 155.97 200.39 155.98C200.39 155.99 200.38 155.99 200.37 156L200.37 156L200.37 156C200.37 156 200.37 156 200.13 155.68C199.9 155.35 199.9 155.35 199.9 155.35L199.9 155.35L199.9 155.35L199.91 155.35C199.91 155.34 199.92 155.34 199.93 155.33C199.95 155.31 199.98 155.29 200.02 155.27C200.1 155.21 200.22 155.13 200.37 155.04C200.67 154.84 201.1 154.58 201.65 154.28C202.73 153.69 204.26 152.98 206.01 152.49C207.84 151.98 209.39 152.26 210.8 152.87C211.81 153.31 212.77 153.93 213.72 154.54Z" fill="#3FB1B5" fill-opacity="1.000000" fill-rule="evenodd"/>
		<path id="Vector (Stroke)" d="M212.12 159.5C212.47 159.73 212.83 159.96 213.18 160.17C213.75 160.52 214.43 160.63 215.21 160.57C216 160.51 216.86 160.28 217.79 159.96C218.36 159.77 218.95 159.55 219.54 159.33C219.9 159.19 220.27 159.05 220.64 158.91C221.6 158.56 222.58 158.24 223.53 158.07C226.08 157.6 227.92 158.27 229.12 159.09C229.71 159.49 230.14 159.92 230.43 160.25C230.57 160.42 230.68 160.56 230.75 160.67C230.79 160.72 230.81 160.76 230.83 160.79C230.84 160.8 230.85 160.82 230.85 160.83C230.86 160.83 230.86 160.83 230.86 160.84L230.86 160.84L230.86 160.84L230.86 160.84C230.86 160.84 230.86 160.84 230.52 161.04C230.17 161.25 230.17 161.25 230.17 161.25L230.17 161.24C230.17 161.24 230.17 161.24 230.17 161.24C230.16 161.23 230.16 161.23 230.16 161.22C230.14 161.2 230.12 161.17 230.09 161.13C230.04 161.04 229.94 160.92 229.82 160.77C229.57 160.49 229.19 160.1 228.67 159.75C227.63 159.04 226 158.43 223.68 158.86L223.67 158.86C222.8 159.02 221.87 159.32 220.91 159.67C220.56 159.79 220.2 159.93 219.84 160.07C219.24 160.29 218.63 160.52 218.04 160.72C217.1 161.04 216.16 161.3 215.27 161.37C214.38 161.44 213.52 161.32 212.77 160.86C212.38 160.62 212 160.38 211.63 160.14C210.71 159.55 209.83 158.99 208.88 158.58C207.6 158.02 206.24 157.77 204.63 158.22C202.94 158.69 201.48 159.38 200.43 159.95C199.9 160.24 199.49 160.49 199.2 160.68C199.06 160.77 198.95 160.84 198.88 160.89C198.84 160.92 198.81 160.94 198.79 160.95C198.78 160.96 198.78 160.96 198.77 160.96L198.77 160.97L198.77 160.97C198.77 160.97 198.77 160.97 198.53 160.64C198.3 160.32 198.3 160.32 198.3 160.32L198.3 160.32L198.3 160.32L198.31 160.31C198.31 160.31 198.32 160.3 198.33 160.29C198.35 160.28 198.38 160.26 198.42 160.23C198.5 160.18 198.62 160.1 198.77 160C199.07 159.81 199.5 159.55 200.05 159.25C201.13 158.66 202.66 157.94 204.41 157.45C206.24 156.94 207.79 157.23 209.2 157.84C210.21 158.28 211.17 158.9 212.12 159.5Z" fill="#3FB1B5" fill-opacity="1.000000" fill-rule="evenodd"/>
		<path id="Vector" d="M259.94 291.29C259.94 295.57 248.08 299.03 233.22 299.03C218.37 299.03 206.86 295.57 206.86 291.29C206.86 287.01 218.37 283.55 233.22 283.55C248.08 283.55 259.94 287.03 259.94 291.29Z" fill="#FE5244" fill-opacity="1.000000" fill-rule="nonzero"/>
		<path id="Vector" d="M253.11 286.08L253.11 341.37L251.43 333.39C249.62 324.8 242.04 318.66 233.27 318.66C230.63 318.66 228.04 319.23 225.68 320.28C225.6 320.32 225.52 320.36 225.43 320.4L219.26 297.89L215.84 285.38C220.53 284.24 226.6 283.55 233.22 283.55C241.1 283.55 248.19 284.53 253.11 286.08Z" fill="#A0505A" fill-opacity="1.000000" fill-rule="nonzero"/>
		<path id="Vector" d="M253.11 286.08L253.11 296.5C248.19 298.05 241.1 299.03 233.22 299.03C228.12 299.03 223.35 298.61 219.26 297.91L215.84 285.39C220.53 284.26 226.6 283.57 233.22 283.57C241.1 283.55 248.19 284.53 253.11 286.08Z" fill="#73325A" fill-opacity="1.000000" fill-rule="nonzero"/>
		<path id="Vector" d="M251.92 339.76C252.35 339.88 256.42 341.02 260.02 341.02C261.97 341.02 263.78 340.69 264.81 339.66C265.69 338.78 265.9 337.5 265.43 335.88C265.02 334.43 264.22 333.54 263.05 333.22C260.9 332.64 257.92 334.24 255.57 335.93C259.24 331.47 262.85 325.81 261.51 322.11C261.03 320.8 259.94 319.92 258.58 319.76C257.44 319.63 256.39 320.03 255.89 320.78C253.59 324.29 251.7 338.7 251.62 339.31L251.92 339.76ZM256.56 321.23C256.85 320.8 257.46 320.54 258.16 320.54C258.28 320.54 258.39 320.54 258.5 320.56C259.01 320.62 260.25 320.91 260.77 322.38C261.13 323.36 261.25 325.16 259.83 328.17C258.48 331.02 256.05 334.37 252.59 338.17C253.11 334.52 254.74 324 256.56 321.23ZM264.25 339.1C263.19 340.16 260.79 340.48 257.28 340.03C255.44 339.79 253.73 339.4 252.82 339.16C253.51 338.55 254.79 337.45 256.28 336.42C259.12 334.45 261.4 333.6 262.85 334C263.74 334.24 264.33 334.93 264.68 336.1C265.06 337.45 264.92 338.43 264.25 339.1Z" fill="#FFCF2D" fill-opacity="1.000000" fill-rule="nonzero"/>
		<path id="Vector" d="M219.43 324.88L215.73 329.03C211.53 333.75 210.84 340.6 214.03 346.05L230.31 374.01C233.5 379.47 239.34 382.82 245.65 382.82L252.39 382.82C257.27 382.82 260.9 378.33 259.89 373.56L251.41 333.41C249.6 324.82 242.03 318.68 233.26 318.68C227.99 318.67 222.95 320.93 219.43 324.88Z" fill="#FFFFFF" fill-opacity="1.000000" fill-rule="nonzero"/>
		<path id="Vector (Stroke)" d="M219.13 324.62C222.72 320.57 227.87 318.26 233.26 318.28C242.22 318.28 249.95 324.55 251.8 333.33L219.13 324.62ZM251.8 333.33L260.29 373.47C261.35 378.5 257.52 383.22 252.39 383.22L245.65 383.22C239.2 383.22 233.22 379.79 229.96 374.21L213.68 346.26C210.41 340.66 211.12 333.61 215.43 328.77L219.13 324.62L251.8 333.33ZM233.25 319.08C228.1 319.07 223.17 321.28 219.72 325.15L219.72 325.15L216.03 329.3C216.03 329.3 216.02 329.3 216.02 329.3C211.95 333.88 211.28 340.55 214.37 345.85L214.37 345.85L230.66 373.8C233.77 379.14 239.48 382.42 245.65 382.42L252.39 382.42C257.01 382.42 260.46 378.17 259.5 373.64L251.02 333.49L251.02 333.49C249.25 325.09 241.84 319.08 233.26 319.08L233.25 319.08Z" fill="#3FB1B5" fill-opacity="1.000000" fill-rule="evenodd"/>
		<path id="Vector" d="M232.02 336.97L253.04 377.74C254.04 379.58 255.27 380.77 256.68 381.52C255.46 382.34 253.99 382.84 252.39 382.84L245.65 382.84C239.32 382.84 233.48 379.47 230.31 374.02L214.03 346.05C213.37 344.92 212.88 343.73 212.54 342.5C210.24 333.92 219.99 327.19 227.3 332.22C228.97 333.36 230.6 334.9 232.02 336.97Z" fill="#3FB1B5" fill-opacity="1.000000" fill-rule="nonzero"/>
		<path id="Vector" d="M232.07 337.06L212.67 337.06C212.77 336.76 212.88 336.47 213.01 336.2L231.45 336.2C231.64 336.45 231.83 336.71 232.02 336.98L232.07 337.06Z" fill="#FFFFFF" fill-opacity="1.000000" fill-rule="nonzero"/>
		<path id="Vector" d="M234.92 342.58L212.57 342.58C212.57 342.54 212.56 342.51 212.56 342.5C212.49 342.24 212.43 341.97 212.38 341.71L234.49 341.71L234.92 342.58Z" fill="#FFFFFF" fill-opacity="1.000000" fill-rule="nonzero"/>
		<path id="Vector" d="M237.77 348.1L215.23 348.1L214.72 347.22L237.32 347.22L237.77 348.1Z" fill="#FFFFFF" fill-opacity="1.000000" fill-rule="nonzero"/>
		<path id="Vector" d="M240.62 353.63L218.45 353.63L217.94 352.75L240.17 352.75L240.62 353.63Z" fill="#FFFFFF" fill-opacity="1.000000" fill-rule="nonzero"/>
		<path id="Vector" d="M243.47 359.15L221.67 359.15L221.15 358.28L243.02 358.28L243.47 359.15Z" fill="#FFFFFF" fill-opacity="1.000000" fill-rule="nonzero"/>
		<path id="Vector" d="M246.32 364.68L224.88 364.68L224.37 363.8L245.85 363.8L246.32 364.68Z" fill="#FFFFFF" fill-opacity="1.000000" fill-rule="nonzero"/>
		<path id="Vector" d="M249.17 370.2L228.1 370.2L227.59 369.32L248.7 369.32L249.17 370.2Z" fill="#FFFFFF" fill-opacity="1.000000" fill-rule="nonzero"/>
		<path id="Vector" d="M252 375.72L231.45 375.72C231.24 375.43 231.03 375.14 230.84 374.85L251.55 374.85L252 375.72Z" fill="#FFFFFF" fill-opacity="1.000000" fill-rule="nonzero"/>
		<path id="Vector" d="M256.21 381.25L238.35 381.25C237.77 380.99 237.21 380.7 236.67 380.38L255.06 380.38C255.43 380.7 255.81 380.99 256.21 381.25Z" fill="#FFFFFF" fill-opacity="1.000000" fill-rule="nonzero"/>
		<path id="Vector" d="M194.37 290.15C194.23 294.39 182.24 297.82 167.48 297.82C152.72 297.82 140.73 294.4 140.58 290.15L140.58 256.84L194.37 256.84L194.37 290.15Z" fill="#73325A" fill-opacity="1.000000" fill-rule="nonzero"/>
		<path id="Vector" d="M190.8 295.68L190.72 299.64L189.95 338.28L189.95 337.16C189.95 327.24 181.92 319.19 172.01 319.19L170.92 319.19C165.86 319.19 161.3 321.17 157.92 324.34L155.57 308.41L154.11 298.55C158.05 299.21 162.61 299.58 167.46 299.58C177.45 299.56 186.14 297.99 190.8 295.68Z" fill="#A0505A" fill-opacity="1.000000" fill-rule="nonzero"/>
		<path id="Vector" d="M190.8 295.68L190.72 299.64C184.76 303.87 166.37 309.08 155.58 308.39L154.12 298.54C158.06 299.18 162.62 299.56 167.47 299.56C177.45 299.56 186.14 297.99 190.8 295.68Z" fill="#73325A" fill-opacity="1.000000" fill-rule="nonzero"/>
		<path id="Vector" d="M172.82 383.35L175.8 383.35C183.61 383.35 189.95 377 189.95 369.18L189.95 337.16C189.95 327.24 181.92 319.19 172.01 319.19L170.92 319.19C159.39 319.19 150.51 329.37 152.06 340.81L155.82 368.51C156.99 377 164.24 383.35 172.82 383.35Z" fill="#FFFFFF" fill-opacity="1.000000" fill-rule="nonzero"/>
		<path id="Vector (Stroke)" d="M151.66 340.87C150.08 329.18 159.15 318.79 170.92 318.79L172.01 318.79C182.14 318.79 190.35 327.02 190.35 337.16L190.35 369.18C190.35 377.22 183.83 383.75 175.8 383.75L172.82 383.75C164.04 383.75 156.62 377.25 155.43 368.56L151.66 340.87ZM152.46 340.76L156.22 368.45C157.36 376.75 164.44 382.95 172.82 382.95L175.8 382.95C183.39 382.95 189.55 376.78 189.55 369.18L189.55 337.16C189.55 327.46 181.7 319.59 172.01 319.59L170.92 319.59C159.64 319.59 150.94 329.56 152.46 340.76Z" fill="#3FB1B5" fill-opacity="1.000000" fill-rule="evenodd"/>
		<path id="Vector" d="M185.5 379.49C182.97 381.87 179.55 383.35 175.8 383.35L172.83 383.35C164.24 383.35 156.99 377 155.84 368.51L152.08 340.81C152.01 340.28 151.95 339.76 151.93 339.24C152.89 333.1 158.19 328.41 164.6 328.41C167.75 328.41 170.66 329.56 172.92 331.49C175.18 333.41 176.76 336.12 177.26 339.24L182.21 373.04C182.57 375.56 183.76 377.8 185.5 379.49Z" fill="#3FB1B5" fill-opacity="1.000000" fill-rule="nonzero"/>
		<path id="Vector" d="M175.77 334.96L153.4 334.96C153.56 334.66 153.76 334.37 153.95 334.1L175.24 334.1C175.43 334.37 175.61 334.66 175.77 334.96Z" fill="#FFFFFF" fill-opacity="1.000000" fill-rule="nonzero"/>
		<path id="Vector" d="M177.43 340.48L152.03 340.48C152 340.19 151.97 339.9 151.95 339.61L177.31 339.61L177.43 340.48Z" fill="#FFFFFF" fill-opacity="1.000000" fill-rule="nonzero"/>
		<path id="Vector" d="M178.25 346.01L152.78 346.01L152.65 345.14L178.12 345.14L178.25 346.01Z" fill="#FFFFFF" fill-opacity="1.000000" fill-rule="nonzero"/>
		<path id="Vector" d="M179.05 351.53L153.53 351.53L153.4 350.65L178.92 350.65L179.05 351.53Z" fill="#FFFFFF" fill-opacity="1.000000" fill-rule="nonzero"/>
		<path id="Vector" d="M179.87 357.05L154.28 357.05L154.16 356.18L179.74 356.18L179.87 357.05Z" fill="#FFFFFF" fill-opacity="1.000000" fill-rule="nonzero"/>
		<path id="Vector" d="M180.67 362.58L155.02 362.58L154.91 361.71L180.54 361.71L180.67 362.58Z" fill="#FFFFFF" fill-opacity="1.000000" fill-rule="nonzero"/>
		<path id="Vector" d="M181.48 368.11L155.77 368.11L155.66 367.23L181.36 367.23L181.48 368.11Z" fill="#FFFFFF" fill-opacity="1.000000" fill-rule="nonzero"/>
		<path id="Vector" d="M182.3 373.62L157.36 373.62C157.22 373.33 157.09 373.04 156.97 372.75L182.16 372.75L182.2 373.04C182.24 373.23 182.27 373.43 182.3 373.62Z" fill="#FFFFFF" fill-opacity="1.000000" fill-rule="nonzero"/>
		<path id="Vector" d="M185.17 379.15L161.59 379.15C161.27 378.88 160.94 378.57 160.66 378.28L184.43 378.28C184.65 378.59 184.91 378.88 185.17 379.15Z" fill="#FFFFFF" fill-opacity="1.000000" fill-rule="nonzero"/>
		<path id="Vector" d="M206.01 116.97L206.01 143.96C204.84 140.9 195.59 141.33 185.41 145.19C176.68 148.51 170.13 153.06 169.17 156.22L169.17 118.24C169.17 106.94 175.21 96.84 184.48 91.33C196.52 93.43 206.01 103.93 206.01 116.97Z" fill="#FFCF2D" fill-opacity="1.000000" fill-rule="nonzero"/>
		<path id="Vector" d="M168.47 92.55C160.27 98.25 155.05 107.73 155.05 118.24L155.05 149.57L109.48 149.57L115.77 122.45C118.44 110.9 126.8 101.68 137.68 97.76L168.47 92.55Z" fill="#FFCF2D" fill-opacity="1.000000" fill-rule="nonzero"/>
		<path id="Vector" d="M260.65 226.66L260.65 289.56C260.65 285.28 248.08 281.82 233.22 281.82C218.37 281.82 206.33 285.28 206.33 289.56L206.33 259.42C206.33 258.01 205.18 256.85 203.77 256.85L122.06 256.85C97.49 256.85 79.32 233.95 84.87 209.99L104.59 124.92C107.73 111.35 118.71 101.01 132.43 98.67L137.68 97.77C126.8 101.7 118.44 110.91 115.77 122.47L109.48 149.59L155.05 149.59L155.05 118.24C155.05 107.72 160.29 98.24 168.47 92.55L175.67 91.33C177.16 91.07 178.62 90.96 180.08 90.96C180.27 90.96 180.44 90.96 180.64 90.96C180.81 90.96 180.99 90.98 181.15 90.98C181.18 90.98 181.21 90.98 181.24 90.98C181.37 90.98 181.52 90.99 181.64 90.99C181.66 90.99 181.69 90.99 181.71 90.99C181.79 90.99 181.87 91.01 181.93 91.01C182.08 91.02 182.2 91.02 182.35 91.04C182.51 91.06 182.68 91.07 182.84 91.09C183 91.1 183.15 91.12 183.31 91.14C183.34 91.14 183.37 91.15 183.42 91.15C183.58 91.17 183.76 91.2 183.92 91.22C183.93 91.22 183.95 91.22 183.95 91.22C184.13 91.25 184.3 91.26 184.48 91.3C175.21 96.81 169.17 106.91 169.17 118.2L169.17 195.21L229.27 195.21C246.59 195.25 260.65 209.3 260.65 226.66Z" fill="#FE5244" fill-opacity="1.000000" fill-rule="nonzero"/>
		<path id="Vector (Stroke)" d="M169.9 91.57C170.06 91.78 170 92.08 169.78 92.24C161.69 97.87 155.52 107.91 155.52 118.24L155.52 150.05L108.86 150.05L115.29 122.34L169.9 91.57ZM169.9 91.57C169.75 91.35 169.45 91.29 169.24 91.45L169.9 91.57ZM169.24 91.45C160.93 97.23 154.56 107.54 154.56 118.24L169.24 91.45ZM154.56 118.24L154.56 149.09L154.56 118.24ZM154.56 149.09L110.07 149.09L154.56 149.09Z" fill="#FFFFFF" fill-opacity="1.000000" fill-rule="evenodd"/>
		<path id="Vector (Stroke)" d="M215.54 225.01C215.74 225.18 215.77 225.48 215.6 225.68C209.92 232.41 206.81 240.94 206.81 249.75C206.81 250.02 206.59 250.23 206.33 250.23C206.06 250.23 205.85 250.02 205.85 249.75C205.85 240.71 209.04 231.96 214.86 225.06C215.03 224.86 215.34 224.84 215.54 225.01Z" fill="#FFFFFF" fill-opacity="1.000000" fill-rule="evenodd"/>
		<path id="Vector" d="M139.75 246.56C139.67 246.56 139.59 246.54 139.53 246.5L137.41 245.34C137.17 245.21 137.09 244.93 137.22 244.69C137.35 244.44 137.64 244.36 137.88 244.49L139.99 245.65C140.23 245.78 140.31 246.06 140.18 246.3C140.09 246.46 139.92 246.56 139.75 246.56ZM141.86 246.02C141.69 246.02 141.53 245.92 141.45 245.76C141.32 245.52 141.4 245.23 141.64 245.1L143.75 243.95C143.99 243.82 144.28 243.92 144.41 244.14C144.54 244.38 144.46 244.67 144.22 244.8L142.1 245.95C142.02 245.98 141.94 246.02 141.86 246.02ZM135.52 244.27C135.44 244.27 135.36 244.25 135.3 244.2L133.19 243.05C132.95 242.92 132.87 242.63 132.99 242.39C133.12 242.15 133.41 242.07 133.65 242.2L135.76 243.36C136 243.48 136.08 243.77 135.96 244.01C135.86 244.17 135.7 244.27 135.52 244.27ZM146.07 243.71C145.9 243.71 145.74 243.61 145.66 243.45C145.53 243.21 145.61 242.92 145.85 242.79L147.96 241.64C148.33 241.45 148.67 241.22 149 240.98C149.21 240.82 149.52 240.87 149.67 241.08C149.84 241.29 149.79 241.59 149.58 241.75C149.21 242.02 148.83 242.27 148.43 242.49L146.31 243.64C146.23 243.69 146.15 243.71 146.07 243.71ZM131.35 241.9C131.25 241.9 131.15 241.86 131.06 241.8C130.38 241.3 129.76 240.73 129.23 240.07C129.06 239.86 129.09 239.56 129.3 239.4C129.5 239.22 129.81 239.25 129.97 239.46C130.45 240.05 131.01 240.57 131.62 241.02C131.83 241.18 131.87 241.48 131.73 241.69C131.65 241.83 131.5 241.9 131.35 241.9ZM151.02 240.21C150.91 240.21 150.81 240.18 150.72 240.1C150.51 239.94 150.48 239.64 150.65 239.43C151.13 238.84 151.53 238.19 151.85 237.49C151.96 237.25 152.25 237.14 152.49 237.25C152.73 237.36 152.84 237.65 152.73 237.89C152.38 238.66 151.93 239.38 151.4 240.02C151.29 240.15 151.16 240.21 151.02 240.21ZM128.34 238.23C128.16 238.23 127.98 238.13 127.9 237.95C127.55 237.18 127.3 236.38 127.14 235.55C127.09 235.29 127.26 235.04 127.52 234.99C127.78 234.94 128.03 235.12 128.08 235.37C128.22 236.13 128.45 236.85 128.77 237.54C128.88 237.78 128.77 238.07 128.53 238.18C128.46 238.21 128.4 238.23 128.34 238.23ZM153 235.89C152.97 235.89 152.94 235.89 152.92 235.89C152.67 235.84 152.49 235.58 152.54 235.33C152.64 234.8 152.68 234.27 152.68 233.74L152.68 233.02C152.68 232.75 152.89 232.54 153.16 232.54C153.44 232.54 153.64 232.75 153.64 233.02L153.64 233.74C153.64 234.33 153.6 234.93 153.49 235.5C153.44 235.73 153.23 235.89 153 235.89ZM127.46 233.55C127.18 233.55 126.97 233.34 126.97 233.07L126.97 230.66C126.97 230.39 127.18 230.18 127.46 230.18C127.73 230.18 127.94 230.39 127.94 230.66L127.94 233.07C127.94 233.32 127.71 233.55 127.46 233.55ZM153.15 231.1C152.88 231.1 152.67 230.89 152.67 230.61L152.67 228.21C152.67 227.94 152.88 227.73 153.15 227.73C153.42 227.73 153.63 227.94 153.63 228.21L153.63 230.61C153.63 230.89 153.42 231.1 153.15 231.1ZM127.46 228.74C127.18 228.74 126.97 228.53 126.97 228.26L126.97 225.85C126.97 225.58 127.18 225.37 127.46 225.37C127.73 225.37 127.94 225.58 127.94 225.85L127.94 228.26C127.94 228.52 127.71 228.74 127.46 228.74ZM153.15 226.29C152.88 226.29 152.67 226.08 152.67 225.81L152.67 223.4C152.67 223.13 152.88 222.92 153.15 222.92C153.42 222.92 153.63 223.13 153.63 223.4L153.63 225.81C153.63 226.08 153.42 226.29 153.15 226.29ZM127.46 223.93C127.18 223.93 126.97 223.72 126.97 223.45L126.97 221.05C126.97 220.77 127.18 220.57 127.46 220.57C127.73 220.57 127.94 220.77 127.94 221.05L127.94 223.45C127.94 223.71 127.71 223.93 127.46 223.93ZM153.15 221.48C152.88 221.48 152.67 221.27 152.67 221L152.67 218.6C152.67 218.32 152.88 218.11 153.15 218.11C153.42 218.11 153.63 218.32 153.63 218.6L153.63 221C153.63 221.27 153.42 221.48 153.15 221.48ZM127.46 219.12C127.18 219.12 126.97 218.92 126.97 218.64L126.97 216.58L128.27 216.58C128.54 216.58 128.75 216.78 128.75 217.06C128.75 217.33 128.54 217.54 128.27 217.54L127.94 217.54L127.94 218.64C127.94 218.9 127.71 219.12 127.46 219.12ZM152.28 217.54L149.88 217.54C149.61 217.54 149.4 217.33 149.4 217.06C149.4 216.78 149.61 216.58 149.88 216.58L152.28 216.58C152.56 216.58 152.76 216.78 152.76 217.06C152.76 217.33 152.56 217.54 152.28 217.54ZM147.48 217.54L145.08 217.54C144.81 217.54 144.6 217.33 144.6 217.06C144.6 216.78 144.81 216.58 145.08 216.58L147.48 216.58C147.75 216.58 147.96 216.78 147.96 217.06C147.96 217.33 147.75 217.54 147.48 217.54ZM142.68 217.54L140.28 217.54C140 217.54 139.8 217.33 139.8 217.06C139.8 216.78 140 216.58 140.28 216.58L142.68 216.58C142.95 216.58 143.16 216.78 143.16 217.06C143.16 217.33 142.95 217.54 142.68 217.54ZM137.88 217.54L135.48 217.54C135.2 217.54 135 217.33 135 217.06C135 216.78 135.2 216.58 135.48 216.58L137.88 216.58C138.15 216.58 138.36 216.78 138.36 217.06C138.36 217.33 138.15 217.54 137.88 217.54ZM133.07 217.54L130.67 217.54C130.4 217.54 130.19 217.33 130.19 217.06C130.19 216.78 130.4 216.58 130.67 216.58L133.07 216.58C133.35 216.58 133.55 216.78 133.55 217.06C133.55 217.33 133.35 217.54 133.07 217.54Z" fill="#FFFFFF" fill-opacity="1.000000" fill-rule="nonzero"/>
		<path id="Vector" d="M94.44 243.9C94.27 243.9 94.11 243.8 94.03 243.64C93.9 243.4 93.98 243.11 94.22 242.99L96.17 241.91C96.22 241.88 96.27 241.86 96.32 241.83C96.54 241.7 96.85 241.78 96.97 242.01C97.1 242.23 97.02 242.54 96.8 242.67C96.75 242.7 96.7 242.73 96.64 242.75L94.68 243.82C94.6 243.88 94.52 243.9 94.44 243.9ZM98.5 241.34C98.37 241.34 98.24 241.29 98.14 241.18C97.97 240.98 97.98 240.68 98.17 240.5C98.74 239.99 99.23 239.4 99.66 238.77C99.81 238.55 100.11 238.5 100.34 238.64C100.56 238.79 100.61 239.09 100.46 239.32C100 240.01 99.44 240.65 98.83 241.22C98.72 241.3 98.61 241.34 98.5 241.34ZM101.17 237.39C101.1 237.39 101.06 237.38 100.99 237.36C100.75 237.27 100.62 236.99 100.72 236.74C100.99 236.02 101.18 235.28 101.3 234.52C101.33 234.27 101.57 234.08 101.84 234.11C102.1 234.14 102.29 234.38 102.26 234.65C102.15 235.49 101.94 236.3 101.63 237.09C101.54 237.28 101.36 237.39 101.17 237.39ZM101.86 232.68C101.59 232.68 101.38 232.47 101.38 232.2L101.38 229.8C101.38 229.52 101.59 229.32 101.86 229.32C102.13 229.32 102.34 229.52 102.34 229.8L102.34 232.2C102.34 232.46 102.13 232.68 101.86 232.68ZM101.86 227.87C101.59 227.87 101.38 227.67 101.38 227.39L101.38 224.99C101.38 224.72 101.59 224.51 101.86 224.51C102.13 224.51 102.34 224.72 102.34 224.99L102.34 227.39C102.34 227.65 102.13 227.87 101.86 227.87ZM101.86 223.07C101.59 223.07 101.38 222.86 101.38 222.59L101.38 220.18C101.38 219.91 101.59 219.7 101.86 219.7C102.13 219.7 102.34 219.91 102.34 220.18L102.34 222.59C102.34 222.84 102.13 223.07 101.86 223.07ZM101.86 218.26C101.59 218.26 101.38 218.05 101.38 217.78L101.38 217.54L100.18 217.54C99.9 217.54 99.7 217.33 99.7 217.06C99.7 216.78 99.9 216.58 100.18 216.58L102.34 216.58L102.34 217.78C102.34 218.03 102.13 218.26 101.86 218.26ZM97.77 217.54L95.37 217.54C95.1 217.54 94.89 217.33 94.89 217.06C94.89 216.78 95.1 216.58 95.37 216.58L97.77 216.58C98.05 216.58 98.25 216.78 98.25 217.06C98.25 217.33 98.03 217.54 97.77 217.54ZM92.97 217.54L90.57 217.54C90.3 217.54 90.09 217.33 90.09 217.06C90.09 216.78 90.3 216.58 90.57 216.58L92.97 216.58C93.24 216.58 93.45 216.78 93.45 217.06C93.45 217.33 93.23 217.54 92.97 217.54ZM88.17 217.54L85.77 217.54C85.5 217.54 85.29 217.33 85.29 217.06C85.29 216.78 85.5 216.58 85.77 216.58L88.17 216.58C88.44 216.58 88.65 216.78 88.65 217.06C88.65 217.33 88.43 217.54 88.17 217.54Z" fill="#FFFFFF" fill-opacity="1.000000" fill-rule="nonzero"/>
		<path id="Vector" d="M206.01 143.96C207.18 147.02 199.78 152.46 189.62 156.32C179.45 160.18 170.34 160.77 169.17 157.7C168 154.62 175.22 149.07 185.41 145.21C195.59 141.35 204.84 140.88 206.01 143.96Z" fill="#FE5244" fill-opacity="1.000000" fill-rule="nonzero"/>
		<path id="Vector" d="M211.69 243.39L211.69 245.09C211.16 244.96 210.6 244.9 210.04 244.9L207.98 244.9C204.92 244.9 202.31 242.94 201.32 240.22L207.18 239.43C209.56 239.11 211.69 240.97 211.69 243.39Z" fill="#73325A" fill-opacity="1.000000" fill-rule="nonzero"/>
		<path id="Vector" d="M217.1 251.96L217.1 265.01C217.1 268.05 214.64 270.52 211.6 270.52L205.46 270.52C203.94 270.52 202.57 269.91 201.57 268.9C200.58 267.91 199.96 266.53 199.96 265.01L203.94 265.01C205.26 265.01 206.31 263.95 206.31 262.64L206.31 259.22C206.31 257.91 205.26 256.85 203.94 256.85L183.56 256.85C175.61 256.85 169.16 250.39 169.16 242.43L169.16 156.24C170.12 153.08 176.66 148.51 185.39 145.21C191.35 142.95 197 141.86 200.89 141.96L200.89 237.83C200.89 241.74 204.06 244.91 207.96 244.91L210.03 244.91C213.93 244.9 217.1 248.05 217.1 251.96Z" fill="#A0505A" fill-opacity="1.000000" fill-rule="nonzero"/>
		<path id="Vector" d="M200.89 141.94L200.89 150.66C197.99 152.61 194.07 154.62 189.6 156.3C179.42 160.16 170.33 160.75 169.16 157.68L169.16 156.22C170.12 153.06 176.66 148.5 185.39 145.19C191.36 142.93 197 141.85 200.89 141.94Z" fill="#73325A" fill-opacity="1.000000" fill-rule="nonzero"/>
		<path id="Vector" d="M174.26 77.02L168.24 92.55L137.22 98.11L145.32 77.02L174.26 77.02Z" fill="#A0505A" fill-opacity="1.000000" fill-rule="nonzero"/>
		<path id="Vector" d="M174.26 77.02L171.02 85.41L140.25 90.22L145.32 77.02L174.26 77.02Z" fill="#73325A" fill-opacity="1.000000" fill-rule="nonzero"/>
		<path id="Vector" d="M192.45 45.41C192.45 47.51 188.82 49.84 184.62 51.79C178.91 54.47 172.17 56.5 172.17 56.5L167.62 65.08C173.8 68.36 176.22 74.26 177.18 78.38C177.79 81.01 177.79 82.88 177.79 82.88L134.21 82.88C134.21 82.88 122.77 45.77 150.35 36.89C167.22 31.45 192.45 40.43 192.45 45.41Z" fill="#FFFFFF" fill-opacity="1.000000" fill-rule="nonzero"/>
		<path id="Vector (Stroke)" d="M177.6 37.71C169.23 35.53 158.81 34.67 150.49 37.34C143.71 39.53 139.35 43.44 136.6 48.06C133.85 52.7 132.71 58.09 132.41 63.24C132.12 68.39 132.69 73.26 133.33 76.86C133.64 78.66 133.98 80.13 134.24 81.15C134.37 81.66 134.47 82.06 134.55 82.33C134.56 82.36 134.56 82.38 134.57 82.4L177.29 82.4C177.28 82.21 177.26 81.96 177.23 81.66C177.16 80.88 177.01 79.78 176.71 78.49C175.76 74.43 173.4 68.69 167.39 65.5L166.97 65.28L171.84 56.1L172.03 56.04L172.08 56.2C172.03 56.04 172.03 56.04 172.03 56.04L172.03 56.04L172.03 56.04L172.05 56.04C172.06 56.03 172.08 56.03 172.1 56.02C172.15 56 172.23 55.98 172.32 55.95C172.52 55.89 172.8 55.8 173.16 55.68C173.88 55.45 174.9 55.12 176.09 54.7C178.48 53.86 181.58 52.68 184.42 51.35L184.42 51.35C186.5 50.38 188.43 49.33 189.82 48.27C190.51 47.74 191.06 47.23 191.43 46.73C191.8 46.24 191.97 45.8 191.97 45.41C191.97 44.99 191.69 44.42 191 43.74C190.32 43.07 189.31 42.35 188.01 41.63C185.43 40.2 181.79 38.8 177.6 37.71ZM177.79 82.88L178.27 82.88L178.27 83.36L133.86 83.36L133.75 83.02L134.21 82.88C133.75 83.02 133.75 83.02 133.75 83.02L133.75 83.02L133.74 83C133.74 82.98 133.73 82.95 133.72 82.91C133.7 82.84 133.67 82.73 133.63 82.59C133.55 82.32 133.44 81.91 133.31 81.39C133.05 80.34 132.7 78.85 132.38 77.03C131.73 73.39 131.16 68.43 131.46 63.19C131.75 57.94 132.92 52.39 135.78 47.57C138.64 42.75 143.19 38.68 150.2 36.43C158.76 33.67 169.39 34.58 177.85 36.78C182.08 37.88 185.8 39.31 188.48 40.79C189.81 41.53 190.9 42.3 191.67 43.05C192.42 43.79 192.93 44.59 192.93 45.41C192.93 46.08 192.64 46.72 192.2 47.31C191.76 47.9 191.13 48.48 190.4 49.04C188.93 50.16 186.93 51.24 184.82 52.23C181.95 53.58 178.82 54.76 176.41 55.6C175.21 56.03 174.18 56.37 173.46 56.6C173.09 56.72 172.81 56.81 172.61 56.87C172.57 56.88 172.53 56.89 172.5 56.9L168.27 64.88C174.31 68.3 176.69 74.18 177.64 78.27L177.65 78.27C177.95 79.61 178.11 80.75 178.19 81.57C178.23 81.98 178.25 82.3 178.26 82.53C178.26 82.64 178.26 82.73 178.26 82.79C178.27 82.82 178.27 82.84 178.27 82.86C178.27 82.86 178.27 82.87 178.27 82.87L178.27 82.88L178.27 82.88C178.27 82.88 178.27 82.88 177.79 82.88Z" fill="#FFCF2D" fill-opacity="1.000000" fill-rule="evenodd"/>
		<path id="Vector" d="M146.31 42.17C152.3 42.17 157.15 37.32 157.15 31.33C157.15 25.33 152.3 20.48 146.31 20.48C140.33 20.48 135.47 25.33 135.47 31.33C135.47 37.32 140.33 42.17 146.31 42.17Z" fill="#FFFFFF" fill-opacity="1.000000" fill-rule="nonzero"/>
		<path id="Vector (Stroke)" d="M146.31 20.96C140.59 20.96 135.96 25.6 135.96 31.33C135.96 37.05 140.59 41.69 146.31 41.69C152.03 41.69 156.67 37.05 156.67 31.33C156.67 25.6 152.03 20.96 146.31 20.96ZM135 31.33C135 25.07 140.06 20 146.31 20C152.56 20 157.63 25.07 157.63 31.33C157.63 37.58 152.56 42.66 146.31 42.66C140.06 42.66 135 37.58 135 31.33Z" fill="#FFCF2D" fill-opacity="1.000000" fill-rule="evenodd"/>
		<path id="Vector" d="M177.16 78.38C176.27 74.48 174.02 68.94 168.5 65.59L167.08 65.59C165.76 65.59 164.56 65.06 163.7 64.2C162.83 63.33 162.31 62.13 162.31 60.81C162.31 58.17 164.43 56.04 167.08 56.04L173.11 56.17L173.27 56.17C173.38 56.13 173.5 56.09 173.62 56.05C175.26 55.7 180.43 54.45 184.72 52.3L185.21 55.27L186.81 64.77C187.9 71.3 183.44 77.31 177.16 78.38Z" fill="#A0505A" fill-opacity="1.000000" fill-rule="nonzero"/>
		<path id="Vector" d="M185.2 55.25C179.95 57.38 173.1 56.15 173.1 56.15C173.1 56.15 179.55 54.87 184.7 52.29L185.2 55.25Z" fill="#73325A" fill-opacity="1.000000" fill-rule="nonzero"/>
		<path id="Vector (Stroke)" d="M167.09 58.43C167.09 58.21 167.27 58.03 167.49 58.03C169.54 58.03 171.19 59.68 171.19 61.73C171.19 61.95 171.01 62.13 170.79 62.13C170.57 62.13 170.39 61.95 170.39 61.73C170.39 60.12 169.1 58.83 167.49 58.83C167.27 58.83 167.09 58.65 167.09 58.43Z" fill="#73325A" fill-opacity="1.000000" fill-rule="evenodd"/>
		<path id="Vector (Stroke)" d="M205.85 419.91L187.27 265.07L188.22 264.95L206.81 419.8L205.85 419.91Z" fill="#66B0F0" fill-opacity="1.000000" fill-rule="evenodd"/>
		<path id="Vector (Stroke)" d="M88.13 419.8L106.7 264.95L107.65 265.07L89.08 419.91L88.13 419.8Z" fill="#66B0F0" fill-opacity="1.000000" fill-rule="evenodd"/>
		<path id="Vector (Stroke)" d="M199.94 367.16L94.97 367.16L94.97 366.2L199.94 366.2L199.94 367.16Z" fill="#66B0F0" fill-opacity="1.000000" fill-rule="evenodd"/>
		<path id="Vector" d="M91.02 265.01L203.9 265.01C205.24 265.01 206.33 263.92 206.33 262.57L206.33 259.27C206.33 257.93 205.24 256.84 203.9 256.84L91.02 256.84C89.68 256.84 88.59 257.93 88.59 259.27L88.59 262.57C88.6 263.92 89.69 265.01 91.02 265.01Z" fill="#FFFFFF" fill-opacity="1.000000" fill-rule="nonzero"/>
		<path id="Vector (Stroke)" d="M88.11 259.27C88.11 257.66 89.41 256.35 91.02 256.35L203.9 256.35C205.51 256.35 206.81 257.66 206.81 259.27L206.81 262.57C206.81 264.18 205.51 265.49 203.9 265.49L91.02 265.49C89.42 265.49 88.12 264.18 88.11 262.58L88.11 262.57L88.11 259.27ZM91.02 257.32C89.94 257.32 89.07 258.19 89.07 259.27L89.07 262.57C89.08 263.66 89.96 264.53 91.02 264.53L203.9 264.53C204.97 264.53 205.85 263.65 205.85 262.57L205.85 259.27C205.85 258.19 204.97 257.32 203.9 257.32L91.02 257.32Z" fill="#FFCF2D" fill-opacity="1.000000" fill-rule="evenodd"/>
	</g>
</svg>
