<svg viewBox="0 0 84.999 85" xmlns="http://www.w3.org/2000/svg" xmlns:xlink="http://www.w3.org/1999/xlink" width="84.999023" height="85.000000" fill="none" customFrame="#000000">
	<g id="shapes" opacity="0.200000003">
		<path id="Vector" d="M28.0666 17.5116L28.0666 28.0666L0 28.0666L0 0L10.475 0L10.475 17.5116L28.0666 17.5116Z" fill="rgb(255,207,45)" fill-rule="nonzero" transform="matrix(-1,8.74228e-08,-8.74228e-08,-1,84.999,28.0674)" />
		<path id="Vector" d="M28.0666 17.5116L28.0666 27.9866L0 27.9866L0 0L10.555 0L10.555 17.5116L28.0666 17.5116Z" fill="rgb(255,207,45)" fill-rule="nonzero" transform="matrix(-1,8.74228e-08,-8.74228e-08,-1,66.0491,47.0176)" />
		<path id="Vector" d="M27.9866 17.5116L27.9866 28.0666L0 28.0666L0 0L10.475 0L10.475 17.5116L27.9866 17.5116Z" fill="rgb(255,207,45)" fill-rule="nonzero" transform="matrix(-1,8.74228e-08,-8.74228e-08,-1,47.0178,66.0488)" />
		<path id="Vector" d="M28.0666 17.5116L28.0666 28.0666L0 28.0666L0 0L10.555 0L10.555 17.5116L28.0666 17.5116Z" fill="rgb(255,207,45)" fill-rule="nonzero" transform="matrix(-1,8.74228e-08,-8.74228e-08,-1,28.0667,85)" />
	</g>
</svg>
