<svg viewBox="0 0 162.433 176.342" xmlns="http://www.w3.org/2000/svg" xmlns:xlink="http://www.w3.org/1999/xlink" width="162.432617" height="176.341797" opacity="0.800000012" fill="none">
	<rect id="dots" width="143.000000" height="105.000000" x="0.000000" y="0.000000" transform="matrix(0.5,0.866025,-0.866025,0.5,90.9326,0)" />
	<g id="Group">
		<path id="Vector" d="M4.08016 2.03789C4.08016 3.2024 3.20584 4.07579 2.04008 4.07579C0.874321 4.07579 0 3.2024 0 2.03789C0 0.873381 0.874321 0 2.04008 0C3.20584 0 4.08016 0.970424 4.08016 2.03789Z" fill="rgb(255,207,45)" fill-rule="nonzero" transform="matrix(0.5,0.866025,-0.866025,0.5,65.9722,14.4111)" />
		<path id="Vector" d="M4.08016 2.03789C4.08016 3.2024 3.20584 4.07579 2.04008 4.07579C0.874321 4.07579 0 3.2024 0 2.03789C0 0.873381 0.874321 0 2.04008 0C3.10869 3.44764e-15 4.08016 0.970424 4.08016 2.03789Z" fill="rgb(255,207,45)" fill-rule="nonzero" transform="matrix(0.5,0.866025,-0.866025,0.5,74.667,29.4707)" />
		<path id="Vector" d="M4.08016 2.03789C4.08016 3.2024 3.20584 4.07579 2.04008 4.07579C0.874319 4.07579 0 3.2024 0 2.03789C0 0.873381 0.874319 0 2.04008 0C3.20584 3.44764e-15 4.08016 0.970424 4.08016 2.03789Z" fill="rgb(255,207,45)" fill-rule="nonzero" transform="matrix(0.5,0.866025,-0.866025,0.5,83.313,44.4463)" />
		<path id="Vector" d="M4.08016 2.03789C4.08016 3.2024 3.20584 4.07579 2.04008 4.07579C0.874322 4.07579 0 3.2024 0 2.03789C0 0.873381 0.874322 0 2.04008 0C3.20584 0 4.08016 0.970424 4.08016 2.03789Z" fill="rgb(255,207,45)" fill-rule="nonzero" transform="matrix(0.5,0.866025,-0.866025,0.5,92.0078,59.5059)" />
		<path id="Vector" d="M4.08015 2.03789C4.08015 3.2024 3.20584 4.07579 2.04008 4.07579C0.874318 4.07579 0 3.2024 0 2.03789C0 0.873381 0.874318 0 2.04008 0C3.10869 3.44764e-15 4.08015 0.970424 4.08015 2.03789Z" fill="rgb(255,207,45)" fill-rule="nonzero" transform="matrix(0.5,0.866025,-0.866025,0.5,100.702,74.5645)" />
		<path id="Vector" d="M4.08015 2.03789C4.08015 3.2024 3.20584 4.07579 2.04008 4.07579C0.874318 4.07579 0 3.2024 0 2.03789C0 0.873381 0.874318 0 2.04008 0C3.20584 0 4.08015 0.970424 4.08015 2.03789Z" fill="rgb(255,207,45)" fill-rule="nonzero" transform="matrix(0.5,0.866025,-0.866025,0.5,109.397,89.624)" />
		<path id="Vector" d="M4.08016 2.03789C4.08016 3.2024 3.20584 4.07579 2.04008 4.07579C0.874325 4.07579 0 3.2024 0 2.03789C0 0.873381 0.874325 0 2.04008 0C3.20584 0 4.08016 0.970424 4.08016 2.03789Z" fill="rgb(255,207,45)" fill-rule="nonzero" transform="matrix(0.5,0.866025,-0.866025,0.5,118.043,104.6)" />
		<path id="Vector" d="M4.08016 2.03789C4.08016 3.2024 3.20584 4.07579 2.04008 4.07579C0.874318 4.07579 0 3.2024 0 2.03789C0 0.873381 0.874318 0 2.04008 0C3.20584 3.44764e-15 4.08016 0.970424 4.08016 2.03789Z" fill="rgb(255,207,45)" fill-rule="nonzero" transform="matrix(0.5,0.866025,-0.866025,0.5,126.738,119.659)" />
		<path id="Vector" d="M4.08015 2.03789C4.08015 3.2024 3.20584 4.07579 2.04008 4.07579C0.874325 4.07579 0 3.2024 0 2.03789C0 0.873381 0.874325 0 2.04008 0C3.1087 3.44764e-15 4.08015 0.970424 4.08015 2.03789Z" fill="rgb(255,207,45)" fill-rule="nonzero" transform="matrix(0.5,0.866025,-0.866025,0.5,135.432,134.719)" />
		<path id="Vector" d="M4.08016 2.0379C4.08016 3.20241 3.20584 4.07579 2.04008 4.07579C0.874321 4.07579 0 3.20241 0 2.0379C0 0.873385 0.874321 0 2.04008 0C3.20584 0 4.08016 0.873385 4.08016 2.0379Z" fill="rgb(255,207,45)" fill-rule="nonzero" transform="matrix(0.5,0.866025,-0.866025,0.5,53.4502,21.6406)" />
		<path id="Vector" d="M4.08016 2.0379C4.08016 3.20241 3.20584 4.07579 2.04008 4.07579C0.874321 4.07579 0 3.20241 0 2.0379C0 0.873385 0.874321 0 2.04008 0C3.10869 0 4.08016 0.873385 4.08016 2.0379Z" fill="rgb(255,207,45)" fill-rule="nonzero" transform="matrix(0.5,0.866025,-0.866025,0.5,62.145,36.7002)" />
		<path id="Vector" d="M4.08016 2.0379C4.08016 3.20241 3.20584 4.07579 2.04008 4.07579C0.874319 4.07579 0 3.20241 0 2.0379C0 0.873385 0.874319 0 2.04008 0C3.20584 0 4.08016 0.873385 4.08016 2.0379Z" fill="rgb(255,207,45)" fill-rule="nonzero" transform="matrix(0.5,0.866025,-0.866025,0.5,70.791,51.6758)" />
		<path id="Vector" d="M4.08016 2.0379C4.08016 3.20241 3.20584 4.07579 2.04008 4.07579C0.874322 4.07579 0 3.20241 0 2.0379C0 0.873385 0.874322 0 2.04008 0C3.20584 0 4.08016 0.873385 4.08016 2.0379Z" fill="rgb(255,207,45)" fill-rule="nonzero" transform="matrix(0.5,0.866025,-0.866025,0.5,79.4858,66.7354)" />
		<path id="Vector" d="M4.08015 2.0379C4.08015 3.20241 3.20584 4.07579 2.04008 4.07579C0.874318 4.07579 0 3.20241 0 2.0379C0 0.873385 0.874318 0 2.04008 0C3.10869 0 4.08015 0.873385 4.08015 2.0379Z" fill="rgb(255,207,45)" fill-rule="nonzero" transform="matrix(0.5,0.866025,-0.866025,0.5,88.1802,81.7949)" />
		<path id="Vector" d="M4.08015 2.0379C4.08015 3.20241 3.20584 4.07579 2.04008 4.07579C0.874318 4.07579 0 3.20241 0 2.0379C0 0.873385 0.874318 0 2.04008 0C3.20584 0 4.08015 0.873385 4.08015 2.0379Z" fill="rgb(255,207,45)" fill-rule="nonzero" transform="matrix(0.5,0.866025,-0.866025,0.5,96.875,96.8545)" />
		<path id="Vector" d="M4.08016 2.0379C4.08016 3.20241 3.20584 4.07579 2.04008 4.07579C0.874325 4.07579 0 3.20241 0 2.0379C0 0.873385 0.874325 0 2.04008 0C3.20584 0 4.08016 0.873385 4.08016 2.0379Z" fill="rgb(255,207,45)" fill-rule="nonzero" transform="matrix(0.5,0.866025,-0.866025,0.5,105.521,111.829)" />
		<path id="Vector" d="M4.08016 2.0379C4.08016 3.20241 3.20584 4.07579 2.04008 4.07579C0.874318 4.07579 0 3.20241 0 2.0379C0 0.873385 0.874318 0 2.04008 0C3.20584 0 4.08016 0.873385 4.08016 2.0379Z" fill="rgb(255,207,45)" fill-rule="nonzero" transform="matrix(0.5,0.866025,-0.866025,0.5,114.216,126.889)" />
		<path id="Vector" d="M4.08015 2.0379C4.08015 3.20241 3.20584 4.07579 2.04008 4.07579C0.874325 4.07579 0 3.20241 0 2.0379C0 0.873385 0.874325 0 2.04008 0C3.1087 0 4.08015 0.873385 4.08015 2.0379Z" fill="rgb(255,207,45)" fill-rule="nonzero" transform="matrix(0.5,0.866025,-0.866025,0.5,122.91,141.948)" />
		<path id="Vector" d="M4.08016 2.03789C4.08016 3.2024 3.20584 4.07579 2.04008 4.07579C0.874321 4.07579 0 3.2024 0 2.03789C0 0.873382 0.874321 0 2.04008 0C3.20584 0 4.08016 0.873382 4.08016 2.03789Z" fill="rgb(255,207,45)" fill-rule="nonzero" transform="matrix(0.5,0.866025,-0.866025,0.5,90.9326,0)" />
		<path id="Vector" d="M4.08016 2.03789C4.08016 3.2024 3.20584 4.07579 2.04008 4.07579C0.874321 4.07579 0 3.2024 0 2.03789C0 0.873382 0.874321 0 2.04008 0C3.10869 0 4.08016 0.873382 4.08016 2.03789Z" fill="rgb(255,207,45)" fill-rule="nonzero" transform="matrix(0.5,0.866025,-0.866025,0.5,99.6272,15.0596)" />
		<path id="Vector" d="M4.08016 2.03789C4.08016 3.2024 3.20584 4.07579 2.04008 4.07579C0.874319 4.07579 0 3.2024 0 2.03789C0 0.873382 0.971465 0 2.04008 0C3.20584 0 4.08016 0.873382 4.08016 2.03789Z" fill="rgb(255,207,45)" fill-rule="nonzero" transform="matrix(0.5,0.866025,-0.866025,0.5,108.273,30.0352)" />
		<path id="Vector" d="M4.08016 2.03789C4.08016 3.2024 3.20584 4.07579 2.04008 4.07579C0.874322 4.07579 0 3.2024 0 2.03789C0 0.873382 0.971469 0 2.04008 0C3.1087 0 4.08016 0.873382 4.08016 2.03789Z" fill="rgb(255,207,45)" fill-rule="nonzero" transform="matrix(0.5,0.866025,-0.866025,0.5,116.968,45.0947)" />
		<path id="Vector" d="M4.08015 2.03789C4.08015 3.2024 3.20584 4.07579 2.04008 4.07579C0.874318 4.07579 0 3.2024 0 2.03789C0 0.873382 0.874318 0 2.04008 0C3.10869 0 4.08015 0.873382 4.08015 2.03789Z" fill="rgb(255,207,45)" fill-rule="nonzero" transform="matrix(0.5,0.866025,-0.866025,0.5,125.663,60.1543)" />
		<path id="Vector" d="M4.08015 2.03789C4.08015 3.2024 3.20584 4.07579 2.04008 4.07579C0.874318 4.07579 0 3.2024 0 2.03789C0 0.873382 0.874318 0 2.04008 0C3.20584 0 4.08015 0.873382 4.08015 2.03789Z" fill="rgb(255,207,45)" fill-rule="nonzero" transform="matrix(0.5,0.866025,-0.866025,0.5,134.357,75.2139)" />
		<path id="Vector" d="M4.08016 2.03789C4.08016 3.2024 3.20584 4.07579 2.04008 4.07579C0.874325 4.07579 0 3.2024 0 2.03789C0 0.873382 0.874325 0 2.04008 0C3.20584 0 4.08016 0.873382 4.08016 2.03789Z" fill="rgb(255,207,45)" fill-rule="nonzero" transform="matrix(0.5,0.866025,-0.866025,0.5,143.003,90.1895)" />
		<path id="Vector" d="M4.08016 2.03789C4.08016 3.2024 3.20584 4.07579 2.04008 4.07579C0.874318 4.07579 0 3.2024 0 2.03789C0 0.873382 0.874318 0 2.04008 0C3.20584 0 4.08016 0.873382 4.08016 2.03789Z" fill="rgb(255,207,45)" fill-rule="nonzero" transform="matrix(0.5,0.866025,-0.866025,0.5,151.698,105.249)" />
		<path id="Vector" d="M4.08015 2.03789C4.08015 3.2024 3.20584 4.07579 2.04008 4.07579C0.874325 4.07579 0 3.2024 0 2.03789C0 0.873382 0.874325 0 2.04008 0C3.1087 0 4.08015 0.873382 4.08015 2.03789Z" fill="rgb(255,207,45)" fill-rule="nonzero" transform="matrix(0.5,0.866025,-0.866025,0.5,160.393,120.309)" />
		<path id="Vector" d="M4.08016 2.03789C4.08016 3.2024 3.20584 4.07578 2.04008 4.07578C0.874321 4.07578 0 3.10536 0 2.03789C0 0.873383 0.874321 0 2.04008 0C3.20584 0 4.08016 0.873383 4.08016 2.03789Z" fill="rgb(255,207,45)" fill-rule="nonzero" transform="matrix(0.5,0.866025,-0.866025,0.5,78.4104,7.22949)" />
		<path id="Vector" d="M4.08016 2.03789C4.08016 3.2024 3.20584 4.07578 2.04008 4.07578C0.874321 4.07578 0 3.2024 0 2.03789C0 0.873383 0.874321 0 2.04008 0C3.10869 0 4.08016 0.873383 4.08016 2.03789Z" fill="rgb(255,207,45)" fill-rule="nonzero" transform="matrix(0.5,0.866025,-0.866025,0.5,87.105,22.2891)" />
		<path id="Vector" d="M4.08016 2.03789C4.08016 3.2024 3.20584 4.07578 2.04008 4.07578C0.874319 4.07578 0 3.2024 0 2.03789C0 0.873383 0.874319 0 2.04008 0C3.20584 0 4.08016 0.873383 4.08016 2.03789Z" fill="rgb(255,207,45)" fill-rule="nonzero" transform="matrix(0.5,0.866025,-0.866025,0.5,95.751,37.2646)" />
		<path id="Vector" d="M4.08016 2.03789C4.08016 3.2024 3.20584 4.07578 2.04008 4.07578C0.874322 4.07578 0 3.2024 0 2.03789C0 0.873383 0.874322 0 2.04008 0C3.20584 0 4.08016 0.873383 4.08016 2.03789Z" fill="rgb(255,207,45)" fill-rule="nonzero" transform="matrix(0.5,0.866025,-0.866025,0.5,104.446,52.3242)" />
		<path id="Vector" d="M4.08015 2.03789C4.08015 3.2024 3.20584 4.07578 2.04008 4.07578C0.874318 4.07578 0 3.2024 0 2.03789C0 0.873383 0.874318 0 2.04008 0C3.10869 0 4.08015 0.873383 4.08015 2.03789Z" fill="rgb(255,207,45)" fill-rule="nonzero" transform="matrix(0.5,0.866025,-0.866025,0.5,113.14,67.3838)" />
		<path id="Vector" d="M4.08015 2.03789C4.08015 3.2024 3.20584 4.07578 2.04008 4.07578C0.874318 4.07578 0 3.2024 0 2.03789C0 0.873383 0.874318 0 2.04008 0C3.20584 0 4.08015 0.873383 4.08015 2.03789Z" fill="rgb(255,207,45)" fill-rule="nonzero" transform="matrix(0.5,0.866025,-0.866025,0.5,121.835,82.4434)" />
		<path id="Vector" d="M4.08016 2.03789C4.08016 3.2024 3.20584 4.07578 2.04008 4.07578C0.874325 4.07578 0 3.2024 0 2.03789C0 0.873383 0.874325 0 2.04008 0C3.20584 0 4.08016 0.873383 4.08016 2.03789Z" fill="rgb(255,207,45)" fill-rule="nonzero" transform="matrix(0.5,0.866025,-0.866025,0.5,130.481,97.4189)" />
		<path id="Vector" d="M4.08016 2.03789C4.08016 3.2024 3.20584 4.07578 2.04008 4.07578C0.874318 4.07578 0 3.2024 0 2.03789C0 0.873383 0.874318 0 2.04008 0C3.20584 0 4.08016 0.873383 4.08016 2.03789Z" fill="rgb(255,207,45)" fill-rule="nonzero" transform="matrix(0.5,0.866025,-0.866025,0.5,139.176,112.479)" />
		<path id="Vector" d="M4.08015 2.03789C4.08015 3.2024 3.20584 4.07578 2.04008 4.07578C0.874325 4.07578 0 3.2024 0 2.03789C0 0.873383 0.874325 0 2.04008 0C3.1087 0 4.08015 0.873383 4.08015 2.03789Z" fill="rgb(255,207,45)" fill-rule="nonzero" transform="matrix(0.5,0.866025,-0.866025,0.5,147.87,127.538)" />
		<path id="Vector" d="M4.08016 2.03789C4.08016 3.2024 3.20584 4.07579 2.04008 4.07579C0.874321 4.07579 0 3.2024 0 2.03789C0 0.873382 0.874321 0 2.04008 0C3.20584 0 4.08016 0.970425 4.08016 2.03789Z" fill="rgb(255,207,45)" fill-rule="nonzero" transform="matrix(0.5,0.866025,-0.866025,0.5,41.0122,28.8213)" />
		<path id="Vector" d="M4.08016 2.03789C4.08016 3.2024 3.20584 4.07579 2.04008 4.07579C0.874321 4.07579 0 3.2024 0 2.03789C0 0.873382 0.874321 0 2.04008 0C3.10869 0 4.08016 0.970425 4.08016 2.03789Z" fill="rgb(255,207,45)" fill-rule="nonzero" transform="matrix(0.5,0.866025,-0.866025,0.5,49.7065,43.8809)" />
		<path id="Vector" d="M4.08016 2.03789C4.08016 3.2024 3.20584 4.07579 2.04008 4.07579C0.874319 4.07579 0 3.2024 0 2.03789C0 0.873382 0.874319 0 2.04008 0C3.20584 0 4.08016 0.970425 4.08016 2.03789Z" fill="rgb(255,207,45)" fill-rule="nonzero" transform="matrix(0.5,0.866025,-0.866025,0.5,58.3528,58.8564)" />
		<path id="Vector" d="M4.08016 2.03789C4.08016 3.2024 3.20584 4.07579 2.04008 4.07579C0.874322 4.07579 0 3.2024 0 2.03789C0 0.873382 0.874322 0 2.04008 0C3.20584 0 4.08016 0.970425 4.08016 2.03789Z" fill="rgb(255,207,45)" fill-rule="nonzero" transform="matrix(0.5,0.866025,-0.866025,0.5,67.0474,73.916)" />
		<path id="Vector" d="M4.08015 2.03789C4.08015 3.2024 3.20584 4.07579 2.04008 4.07579C0.874318 4.07579 0 3.2024 0 2.03789C0 0.873382 0.874318 0 2.04008 0C3.10869 0 4.08015 0.970425 4.08015 2.03789Z" fill="rgb(255,207,45)" fill-rule="nonzero" transform="matrix(0.5,0.866025,-0.866025,0.5,75.7422,88.9756)" />
		<path id="Vector" d="M4.08015 2.03789C4.08015 3.2024 3.20584 4.07579 2.04008 4.07579C0.874318 4.07579 0 3.2024 0 2.03789C0 0.873382 0.874318 0 2.04008 0C3.20584 0 4.08015 0.970425 4.08015 2.03789Z" fill="rgb(255,207,45)" fill-rule="nonzero" transform="matrix(0.5,0.866025,-0.866025,0.5,84.4365,104.035)" />
		<path id="Vector" d="M4.08016 2.03789C4.08016 3.2024 3.20584 4.07579 2.04008 4.07579C0.874325 4.07579 0 3.2024 0 2.03789C0 0.873382 0.874325 0 2.04008 0C3.20584 0 4.08016 0.970425 4.08016 2.03789Z" fill="rgb(255,207,45)" fill-rule="nonzero" transform="matrix(0.5,0.866025,-0.866025,0.5,93.0828,119.011)" />
		<path id="Vector" d="M4.08016 2.03789C4.08016 3.2024 3.20584 4.07579 2.04008 4.07579C0.874318 4.07579 0 3.2024 0 2.03789C0 0.873382 0.874318 0 2.04008 0C3.20584 0 4.08016 0.970425 4.08016 2.03789Z" fill="rgb(255,207,45)" fill-rule="nonzero" transform="matrix(0.5,0.866025,-0.866025,0.5,101.777,134.07)" />
		<path id="Vector" d="M4.08015 2.03789C4.08015 3.2024 3.20584 4.07579 2.04008 4.07579C0.874325 4.07579 0 3.2024 0 2.03789C0 0.873382 0.874325 0 2.04008 0C3.1087 0 4.08015 0.970425 4.08015 2.03789Z" fill="rgb(255,207,45)" fill-rule="nonzero" transform="matrix(0.5,0.866025,-0.866025,0.5,110.472,149.13)" />
		<path id="Vector" d="M4.08016 2.03789C4.08016 3.2024 3.20584 4.07578 2.04008 4.07578C0.874321 4.07578 0 3.2024 0 2.03789C0 0.873381 0.874321 1.37906e-14 2.04008 1.37906e-14C3.20584 0 4.08016 0.873381 4.08016 2.03789Z" fill="rgb(255,207,45)" fill-rule="nonzero" transform="matrix(0.5,0.866025,-0.866025,0.5,28.4902,36.0508)" />
		<path id="Vector" d="M4.08016 2.03789C4.08016 3.2024 3.20584 4.07578 2.04008 4.07578C0.874321 4.07578 0 3.2024 0 2.03789C0 0.873381 0.874321 1.37906e-14 2.04008 1.37906e-14C3.10869 0 4.08016 0.873381 4.08016 2.03789Z" fill="rgb(255,207,45)" fill-rule="nonzero" transform="matrix(0.5,0.866025,-0.866025,0.5,37.1846,51.1104)" />
		<path id="Vector" d="M4.08016 2.03789C4.08016 3.2024 3.20584 4.07578 2.04008 4.07578C0.874319 4.07578 0 3.2024 0 2.03789C0 0.873381 0.874319 1.37906e-14 2.04008 1.37906e-14C3.20584 0 4.08016 0.873381 4.08016 2.03789Z" fill="rgb(255,207,45)" fill-rule="nonzero" transform="matrix(0.5,0.866025,-0.866025,0.5,45.8308,66.0859)" />
		<path id="Vector" d="M2.04008 4.07578C3.16679 4.07578 4.08016 3.16339 4.08016 2.03789C4.08016 0.912394 3.16679 0 2.04008 0C0.913377 0 0 0.912394 0 2.03789C0 3.16339 0.913377 4.07578 2.04008 4.07578Z" fill="rgb(255,207,45)" fill-rule="evenodd" transform="matrix(0.5,0.866025,-0.866025,0.5,54.5254,81.1455)" />
		<path id="Vector" d="M4.08015 2.03789C4.08015 3.2024 3.20584 4.07578 2.04008 4.07578C0.874318 4.07578 0 3.2024 0 2.03789C0 0.873381 0.874318 1.37906e-14 2.04008 1.37906e-14C3.10869 0 4.08015 0.873381 4.08015 2.03789Z" fill="rgb(255,207,45)" fill-rule="nonzero" transform="matrix(0.5,0.866025,-0.866025,0.5,63.2202,96.2051)" />
		<path id="Vector" d="M4.08015 2.03789C4.08015 3.2024 3.20584 4.07578 2.04008 4.07578C0.874318 4.07578 0 3.2024 0 2.03789C0 0.873381 0.874318 0 2.04008 0C3.20584 0 4.08015 0.873381 4.08015 2.03789Z" fill="rgb(255,207,45)" fill-rule="nonzero" transform="matrix(0.5,0.866025,-0.866025,0.5,71.9146,111.265)" />
		<path id="Vector" d="M4.08016 2.03789C4.08016 3.2024 3.20584 4.07578 2.04008 4.07578C0.874325 4.07578 0 3.2024 0 2.03789C0 0.873381 0.874325 0 2.04008 0C3.20584 0 4.08016 0.873381 4.08016 2.03789Z" fill="rgb(255,207,45)" fill-rule="nonzero" transform="matrix(0.5,0.866025,-0.866025,0.5,80.5608,126.24)" />
		<path id="Vector" d="M2.04008 4.07578C3.16678 4.07578 4.08016 3.16339 4.08016 2.03789C4.08016 0.912394 3.16678 0 2.04008 0C0.913373 0 0 0.912394 0 2.03789C0 3.16339 0.913373 4.07578 2.04008 4.07578Z" fill="rgb(255,207,45)" fill-rule="evenodd" transform="matrix(0.5,0.866025,-0.866025,0.5,89.2554,141.3)" />
		<path id="Vector" d="M4.08015 2.03789C4.08015 3.2024 3.20584 4.07578 2.04008 4.07578C0.874325 4.07578 0 3.2024 0 2.03789C0 0.873381 0.874325 1.37906e-14 2.04008 1.37906e-14C3.1087 0 4.08015 0.873381 4.08015 2.03789Z" fill="rgb(255,207,45)" fill-rule="nonzero" transform="matrix(0.5,0.866025,-0.866025,0.5,97.9502,156.359)" />
		<path id="Vector" d="M4.08016 2.0379C4.08016 3.20241 3.20584 4.07579 2.04008 4.07579C0.874321 4.07579 0 3.20241 0 2.0379C0 0.873389 0.874321 0 2.04008 0C3.20584 0 4.08016 0.873389 4.08016 2.0379Z" fill="rgb(255,207,45)" fill-rule="nonzero" transform="matrix(0.5,0.866025,-0.866025,0.5,15.9678,43.2812)" />
		<path id="Vector" d="M4.08016 2.0379C4.08016 3.20241 3.20584 4.07579 2.04008 4.07579C0.874321 4.07579 0 3.20241 0 2.0379C0 0.873389 0.874321 0 2.04008 0C3.10869 0 4.08016 0.873389 4.08016 2.0379Z" fill="rgb(255,207,45)" fill-rule="nonzero" transform="matrix(0.5,0.866025,-0.866025,0.5,24.6624,58.3408)" />
		<path id="Vector" d="M4.08016 2.0379C4.08016 3.20241 3.20584 4.07579 2.04008 4.07579C0.874319 4.07579 0 3.20241 0 2.0379C0 0.873389 0.874319 0 2.04008 0C3.20584 0 4.08016 0.873389 4.08016 2.0379Z" fill="rgb(255,207,45)" fill-rule="nonzero" transform="matrix(0.5,0.866025,-0.866025,0.5,33.3083,73.3164)" />
		<path id="Vector" d="M4.08016 2.0379C4.08016 3.20241 3.20584 4.07579 2.04008 4.07579C0.874322 4.07579 0 3.20241 0 2.0379C0 0.873389 0.874322 0 2.04008 0C3.20584 0 4.08016 0.873389 4.08016 2.0379Z" fill="rgb(255,207,45)" fill-rule="nonzero" transform="matrix(0.5,0.866025,-0.866025,0.5,42.0029,88.376)" />
		<path id="Vector" d="M4.08015 2.0379C4.08015 3.20241 3.20584 4.07579 2.04008 4.07579C0.874318 4.07579 0 3.20241 0 2.0379C0 0.873389 0.874318 0 2.04008 0C3.10869 0 4.08015 0.873389 4.08015 2.0379Z" fill="rgb(255,207,45)" fill-rule="nonzero" transform="matrix(0.5,0.866025,-0.866025,0.5,50.6978,103.436)" />
		<path id="Vector" d="M4.08015 2.0379C4.08015 3.20241 3.20584 4.07579 2.04008 4.07579C0.874318 4.07579 0 3.20241 0 2.0379C0 0.873389 0.874318 0 2.04008 0C3.20584 0 4.08015 0.873389 4.08015 2.0379Z" fill="rgb(255,207,45)" fill-rule="nonzero" transform="matrix(0.5,0.866025,-0.866025,0.5,59.3923,118.495)" />
		<path id="Vector" d="M4.08016 2.0379C4.08016 3.20241 3.20584 4.07579 2.04008 4.07579C0.874325 4.07579 0 3.20241 0 2.0379C0 0.873389 0.874325 0 2.04008 0C3.20584 0 4.08016 0.873389 4.08016 2.0379Z" fill="rgb(255,207,45)" fill-rule="nonzero" transform="matrix(0.5,0.866025,-0.866025,0.5,68.0383,133.47)" />
		<path id="Vector" d="M4.08016 2.0379C4.08016 3.20241 3.20584 4.07579 2.04008 4.07579C0.874318 4.07579 0 3.20241 0 2.0379C0 0.873389 0.874318 0 2.04008 0C3.20584 0 4.08016 0.873389 4.08016 2.0379Z" fill="rgb(255,207,45)" fill-rule="nonzero" transform="matrix(0.5,0.866025,-0.866025,0.5,76.7329,148.529)" />
		<path id="Vector" d="M4.08015 2.0379C4.08015 3.20241 3.20584 4.07579 2.04008 4.07579C0.874325 4.07579 0 3.20241 0 2.0379C0 0.873389 0.874325 0 2.04008 0C3.1087 0 4.08015 0.873389 4.08015 2.0379Z" fill="rgb(255,207,45)" fill-rule="nonzero" transform="matrix(0.5,0.866025,-0.866025,0.5,85.4277,163.589)" />
		<path id="Vector" d="M4.08016 2.03789C4.08016 3.2024 3.20584 4.07579 2.04008 4.07579C0.874321 4.07579 0 3.2024 0 2.03789C0 0.873382 0.874321 0 2.04008 0C3.20584 0 4.08016 0.970425 4.08016 2.03789Z" fill="rgb(255,207,45)" fill-rule="nonzero" transform="matrix(0.5,0.866025,-0.866025,0.5,3.52954,50.4619)" />
		<path id="Vector" d="M4.08016 2.03789C4.08016 3.2024 3.20584 4.07579 2.04008 4.07579C0.874321 4.07579 0 3.2024 0 2.03789C0 0.873382 0.874321 0 2.04008 0C3.10869 0 4.08016 0.970425 4.08016 2.03789Z" fill="rgb(255,207,45)" fill-rule="nonzero" transform="matrix(0.5,0.866025,-0.866025,0.5,12.2241,65.5215)" />
		<path id="Vector" d="M4.08016 2.03789C4.08016 3.2024 3.20584 4.07579 2.04008 4.07579C0.874319 4.07579 0 3.2024 0 2.03789C0 0.873382 0.874319 0 2.04008 0C3.20584 0 4.08016 0.970425 4.08016 2.03789Z" fill="rgb(255,207,45)" fill-rule="nonzero" transform="matrix(0.5,0.866025,-0.866025,0.5,20.8704,80.4971)" />
		<path id="Vector" d="M4.08016 2.03789C4.08016 3.2024 3.20584 4.07579 2.04008 4.07579C0.874322 4.07579 0 3.2024 0 2.03789C0 0.873382 0.874322 0 2.04008 0C3.20584 0 4.08016 0.970425 4.08016 2.03789Z" fill="rgb(255,207,45)" fill-rule="nonzero" transform="matrix(0.5,0.866025,-0.866025,0.5,29.5649,95.5566)" />
		<path id="Vector" d="M4.08015 2.03789C4.08015 3.2024 3.20584 4.07579 2.04008 4.07579C0.874318 4.07579 0 3.2024 0 2.03789C0 0.873382 0.874318 0 2.04008 0C3.10869 0 4.08015 0.970425 4.08015 2.03789Z" fill="rgb(255,207,45)" fill-rule="nonzero" transform="matrix(0.5,0.866025,-0.866025,0.5,38.2595,110.616)" />
		<path id="Vector" d="M4.08015 2.03789C4.08015 3.2024 3.20584 4.07579 2.04008 4.07579C0.874318 4.07579 0 3.2024 0 2.03789C0 0.873382 0.874318 0 2.04008 0C3.20584 0 4.08015 0.970425 4.08015 2.03789Z" fill="rgb(255,207,45)" fill-rule="nonzero" transform="matrix(0.5,0.866025,-0.866025,0.5,46.9541,125.676)" />
		<path id="Vector" d="M4.08016 2.03789C4.08016 3.2024 3.20584 4.07579 2.04008 4.07579C0.874325 4.07579 0 3.2024 0 2.03789C0 0.873382 0.874325 0 2.04008 0C3.20584 0 4.08016 0.970425 4.08016 2.03789Z" fill="rgb(255,207,45)" fill-rule="nonzero" transform="matrix(0.5,0.866025,-0.866025,0.5,55.6003,140.651)" />
		<path id="Vector" d="M4.08016 2.03789C4.08016 3.2024 3.20584 4.07579 2.04008 4.07579C0.874318 4.07579 0 3.2024 0 2.03789C0 0.873382 0.874318 0 2.04008 0C3.20584 0 4.08016 0.970425 4.08016 2.03789Z" fill="rgb(255,207,45)" fill-rule="nonzero" transform="matrix(0.5,0.866025,-0.866025,0.5,64.2949,155.711)" />
		<path id="Vector" d="M4.08015 2.03789C4.08015 3.2024 3.20584 4.07579 2.04008 4.07579C0.874325 4.07579 0 3.2024 0 2.03789C0 0.873382 0.874325 0 2.04008 0C3.1087 0 4.08015 0.970425 4.08015 2.03789Z" fill="rgb(255,207,45)" fill-rule="nonzero" transform="matrix(0.5,0.866025,-0.866025,0.5,72.9895,170.771)" />
	</g>
</svg>
