<svg viewBox="0 0 83 44" xmlns="http://www.w3.org/2000/svg" xmlns:xlink="http://www.w3.org/1999/xlink" width="83.000000" height="44.000000" opacity="0.200000003" fill="none" customFrame="#000000">
	<rect id="shapes" width="83.000000" height="44.000000" x="0.000000" y="0.000000" />
	<path id="Vector" d="M31.1791 25.8392C24.0593 32.959 12.4596 32.959 5.33984 25.8392C-1.77995 18.7194 -1.77995 7.11979 5.33984 0L31.1791 25.8392Z" fill="rgb(255,207,45)" fill-rule="nonzero" transform="matrix(-0.709998,0.704203,0.709998,0.704203,66.4995,0)" />
	<path id="Vector" d="M31.1791 25.8392C24.0593 32.959 12.4596 32.959 5.33984 25.8392C-1.77995 18.7194 -1.77995 7.11979 5.33984 0L31.1791 25.8392Z" fill="rgb(255,207,45)" fill-rule="nonzero" transform="matrix(-0.709998,0.704203,0.709998,0.704203,37.8789,0)" />
	<path id="Vector" d="M31.1791 25.8392C24.0593 32.959 12.4596 32.959 5.33984 25.8392C-1.77995 18.7194 -1.77995 7.11979 5.33984 0L31.1791 25.8392Z" fill="rgb(255,207,45)" fill-rule="nonzero" transform="matrix(-0.709998,0.704203,0.709998,0.704203,9.2583,0)" />
</svg>
