<svg width="216" height="225" viewBox="0 0 216 225" fill="none" xmlns="http://www.w3.org/2000/svg">
<path d="M34.0834 163.334C35.2507 164.231 35.4512 165.782 34.5511 166.953C33.6511 168.125 32.1006 168.33 30.9334 167.433C29.7661 166.536 29.5656 164.985 30.4657 163.814C31.3657 162.643 33.0134 162.512 34.0834 163.334Z" fill="#FFCF2D"/>
<path d="M47.5087 145.864C48.676 146.761 48.8765 148.312 47.9764 149.484C47.0764 150.655 45.5259 150.86 44.3587 149.963C43.1914 149.066 42.9909 147.515 43.8909 146.344C44.716 145.27 46.4387 145.042 47.5087 145.864Z" fill="#FFCF2D"/>
<path d="M60.8588 128.492C62.0261 129.389 62.2265 130.94 61.3265 132.112C60.4265 133.283 58.876 133.488 57.7088 132.591C56.5415 131.694 56.341 130.143 57.241 128.972C58.1411 127.801 59.7888 127.67 60.8588 128.492Z" fill="#FFCF2D"/>
<path d="M74.2841 111.022C75.4514 111.92 75.6518 113.471 74.7518 114.642C73.8518 115.813 72.3013 116.019 71.1341 115.122C69.9668 114.225 69.7663 112.673 70.6663 111.502C71.5664 110.331 73.2141 110.2 74.2841 111.022Z" fill="#FFCF2D"/>
<path d="M87.7094 93.5528C88.8767 94.4498 89.0771 96.001 88.1771 97.1721C87.2771 98.3433 85.7266 98.5489 84.5593 97.6518C83.3921 96.7548 83.1916 95.2037 84.0916 94.0325C84.9166 92.9589 86.6394 92.7305 87.7094 93.5528Z" fill="#FFCF2D"/>
<path d="M101.135 76.0831C102.302 76.9801 102.502 78.5312 101.602 79.7024C100.702 80.8736 99.1519 81.0792 97.9846 80.1821C96.8174 79.2851 96.6169 77.7339 97.5169 76.5628C98.4169 75.3916 100.065 75.2608 101.135 76.0831Z" fill="#FFCF2D"/>
<path d="M114.485 58.711C115.652 59.608 115.853 61.1592 114.953 62.3303C114.053 63.5015 112.502 63.7071 111.335 62.81C110.167 61.913 109.967 60.3619 110.867 59.1907C111.767 58.0195 113.415 57.8887 114.485 58.711Z" fill="#FFCF2D"/>
<path d="M127.91 41.2413C129.077 42.1383 129.278 43.6894 128.378 44.8606C127.478 46.0318 125.927 46.2374 124.76 45.3403C123.593 44.4433 123.392 42.8921 124.292 41.721C125.192 40.5498 126.84 40.419 127.91 41.2413Z" fill="#FFCF2D"/>
<path d="M141.335 23.7706C142.503 24.6676 142.703 26.2187 141.803 27.3899C140.903 28.5611 139.353 28.7667 138.185 27.8696C137.018 26.9726 136.818 25.4214 137.718 24.2503C138.543 23.1767 140.265 22.9483 141.335 23.7706Z" fill="#FFCF2D"/>
<path d="M48.5771 174.473C49.7444 175.37 49.9448 176.921 49.0448 178.092C48.1448 179.263 46.5943 179.469 45.427 178.572C44.2597 177.675 44.0593 176.124 44.9593 174.952C45.8593 173.781 47.4098 173.576 48.5771 174.473Z" fill="#FFCF2D"/>
<path d="M62.0024 157.003C63.1697 157.9 63.3701 159.451 62.4701 160.622C61.5701 161.793 60.0196 161.999 58.8523 161.102C57.685 160.205 57.4846 158.654 58.3846 157.483C59.2096 156.409 60.8351 156.106 62.0024 157.003Z" fill="#FFCF2D"/>
<path d="M75.3525 139.631C76.5198 140.528 76.7202 142.079 75.8202 143.25C74.9202 144.421 73.3697 144.627 72.2024 143.73C71.0351 142.833 70.8347 141.282 71.7347 140.111C72.6347 138.939 74.1852 138.734 75.3525 139.631Z" fill="#FFCF2D"/>
<path d="M88.7778 122.16C89.945 123.057 90.1455 124.608 89.2455 125.78C88.3455 126.951 86.795 127.156 85.6277 126.259C84.4604 125.362 84.26 123.811 85.16 122.64C86.06 121.469 87.6105 121.263 88.7778 122.16Z" fill="#FFCF2D"/>
<path d="M102.203 104.69C103.37 105.588 103.571 107.139 102.671 108.31C101.771 109.481 100.22 109.687 99.053 108.79C97.8857 107.893 97.6853 106.341 98.5853 105.17C99.4103 104.097 101.036 103.793 102.203 104.69Z" fill="#FFCF2D"/>
<path d="M115.628 87.2208C116.796 88.1178 116.996 89.6689 116.096 90.8401C115.196 92.0113 113.646 92.2169 112.478 91.3198C111.311 90.4228 111.111 88.8716 112.011 87.7005C112.911 86.5293 114.461 86.3237 115.628 87.2208Z" fill="#FFCF2D"/>
<path d="M128.978 69.8487C130.146 70.7457 130.346 72.2969 129.446 73.468C128.546 74.6392 126.996 74.8448 125.828 73.9477C124.661 73.0507 124.461 71.4996 125.361 70.3284C126.261 69.1572 127.811 68.9517 128.978 69.8487Z" fill="#FFCF2D"/>
<path d="M142.404 52.3789C143.571 53.276 143.771 54.8271 142.871 55.9983C141.971 57.1695 140.421 57.3751 139.254 56.478C138.086 55.581 137.886 54.0298 138.786 52.8587C139.686 51.6875 141.236 51.4819 142.404 52.3789Z" fill="#FFCF2D"/>
<path d="M155.829 34.9092C156.996 35.8063 157.197 37.3574 156.297 38.5286C155.397 39.6997 153.846 39.9053 152.679 39.0083C151.512 38.1113 151.311 36.5601 152.211 35.3889C153.036 34.3154 154.662 34.0122 155.829 34.9092Z" fill="#FFCF2D"/>
<path d="M5.19329 141.133C6.36057 142.03 6.56102 143.581 5.66101 144.752C4.76099 145.923 3.21052 146.129 2.04323 145.232C0.87595 144.335 0.6755 142.784 1.57552 141.613C2.47553 140.441 4.02601 140.236 5.19329 141.133Z" fill="#FFCF2D"/>
<path d="M18.6186 123.663C19.7859 124.56 19.9863 126.111 19.0863 127.282C18.1863 128.454 16.6358 128.659 15.4685 127.762C14.3012 126.865 14.1008 125.314 15.0008 124.143C15.8258 123.069 17.4513 122.766 18.6186 123.663Z" fill="#FFCF2D"/>
<path d="M31.9687 106.291C33.136 107.188 33.3364 108.739 32.4364 109.91C31.5364 111.082 29.9859 111.287 28.8186 110.39C27.6513 109.493 27.5259 107.844 28.3509 106.771C29.2509 105.6 30.8014 105.394 31.9687 106.291Z" fill="#FFCF2D"/>
<path d="M45.394 88.8204C46.5613 89.7174 46.7617 91.2685 45.8617 92.4397C44.9617 93.6109 43.4112 93.8165 42.2439 92.9194C41.0766 92.0224 40.9512 90.3736 41.7762 89.3001C42.6012 88.2265 44.2267 87.9233 45.394 88.8204Z" fill="#FFCF2D"/>
<path d="M58.8193 71.3506C59.9865 72.2477 60.187 73.7988 59.287 74.97C58.387 76.1411 56.8365 76.3467 55.6692 75.4497C54.5019 74.5527 54.3015 73.0015 55.2015 71.8304C56.0265 70.7568 57.652 70.4536 58.8193 71.3506Z" fill="#FFCF2D"/>
<path d="M72.2446 53.8809C73.4118 54.7779 73.6123 56.3291 72.7123 57.5002C71.8123 58.6714 70.2618 58.877 69.0945 57.98C67.9272 57.0829 67.7268 55.5318 68.6268 54.3606C69.5268 53.1895 71.0773 52.9839 72.2446 53.8809Z" fill="#FFCF2D"/>
<path d="M85.5947 36.5088C86.7619 37.4059 86.9624 38.957 86.0624 40.1282C85.1624 41.2993 83.6119 41.5049 82.4446 40.6079C81.2773 39.7109 81.0769 38.1597 81.9769 36.9886C82.8769 35.8174 84.4274 35.6118 85.5947 36.5088Z" fill="#FFCF2D"/>
<path d="M99.02 19.0391C100.187 19.9361 100.388 21.4873 99.4877 22.6585C98.5876 23.8296 97.0372 24.0352 95.8699 23.1382C94.7026 22.2411 94.5022 20.69 95.4022 19.5188C96.3022 18.3477 97.8527 18.1421 99.02 19.0391Z" fill="#FFCF2D"/>
<path d="M112.445 1.5694C113.613 2.46644 113.813 4.01757 112.913 5.18873C112.013 6.35988 110.462 6.56548 109.295 5.66845C108.128 4.77141 107.927 3.22026 108.827 2.0491C109.652 0.975542 111.278 0.672364 112.445 1.5694Z" fill="#FFCF2D"/>
<path d="M19.6869 152.271C20.8542 153.168 21.0547 154.719 20.1547 155.89C19.2546 157.061 17.6069 157.192 16.5369 156.37C15.3696 155.473 15.1692 153.921 16.0692 152.75C16.9692 151.579 18.5197 151.374 19.6869 152.271Z" fill="#FFCF2D"/>
<path d="M33.1122 134.801C34.2795 135.698 34.48 137.249 33.58 138.42C32.6799 139.591 31.1295 139.797 29.9622 138.9C28.7949 138.003 28.5944 136.452 29.4945 135.281C30.3195 134.207 31.945 133.904 33.1122 134.801Z" fill="#FFCF2D"/>
<path d="M46.4623 117.429C47.6296 118.326 47.8301 119.877 46.93 121.048C46.03 122.219 44.4796 122.425 43.3123 121.528C42.145 120.631 41.9445 119.08 42.8446 117.908C43.7446 116.737 45.295 116.532 46.4623 117.429Z" fill="#FFCF2D"/>
<path d="M59.8876 99.959C61.0549 100.856 61.2554 102.407 60.3553 103.578C59.4553 104.75 57.9049 104.955 56.7376 104.058C55.5703 103.161 55.3698 101.61 56.2699 100.439C57.1699 99.2676 58.7203 99.062 59.8876 99.959Z" fill="#FFCF2D"/>
<path d="M73.3129 82.4893C74.4802 83.3863 74.6807 84.9375 73.7806 86.1086C72.8806 87.2798 71.3301 87.4854 70.1629 86.5884C68.9956 85.6913 68.7951 84.1402 69.6951 82.969C70.5202 81.8955 72.1456 81.5923 73.3129 82.4893Z" fill="#FFCF2D"/>
<path d="M86.7382 65.0196C87.9055 65.9166 88.1059 67.4678 87.2059 68.6389C86.3059 69.8101 84.7554 70.0157 83.5882 69.1186C82.4209 68.2216 82.2204 66.6705 83.1204 65.4993C84.0205 64.3281 85.5709 64.1225 86.7382 65.0196Z" fill="#FFCF2D"/>
<path d="M100.088 47.6475C101.256 48.5445 101.456 50.0957 100.556 51.2669C99.656 52.438 98.1055 52.6436 96.9383 51.7466C95.771 50.8495 95.5705 49.2984 96.4705 48.1272C97.3705 46.9561 98.921 46.7505 100.088 47.6475Z" fill="#FFCF2D"/>
<path d="M113.514 30.1778C114.681 31.0748 114.881 32.626 113.981 33.7971C113.081 34.9683 111.531 35.1739 110.364 34.2768C109.196 33.3798 108.996 31.8287 109.896 30.6575C110.796 29.4863 112.346 29.2807 113.514 30.1778Z" fill="#FFCF2D"/>
<path d="M126.939 12.7071C128.106 13.6041 128.307 15.1553 127.407 16.3264C126.507 17.4976 124.956 17.7032 123.789 16.8061C122.622 15.9091 122.421 14.358 123.321 13.1868C124.146 12.1132 125.772 11.81 126.939 12.7071Z" fill="#FFCF2D"/>
<path d="M62.9741 185.536C64.1413 186.433 64.3418 187.984 63.4418 189.156C62.5418 190.327 60.9913 190.532 59.824 189.635C58.6567 188.738 58.4563 187.187 59.3563 186.016C60.2563 184.845 61.904 184.714 62.9741 185.536Z" fill="#FFCF2D"/>
<path d="M76.3993 168.066C77.5666 168.963 77.7671 170.515 76.8671 171.686C75.967 172.857 74.4166 173.063 73.2493 172.166C72.082 171.268 71.8816 169.717 72.7816 168.546C73.6066 167.473 75.3293 167.244 76.3993 168.066Z" fill="#FFCF2D"/>
<path d="M89.7494 150.694C90.9167 151.591 91.1172 153.143 90.2172 154.314C89.3171 155.485 87.7667 155.69 86.5994 154.793C85.4321 153.896 85.2317 152.345 86.1317 151.174C87.0317 150.003 88.6794 149.872 89.7494 150.694Z" fill="#FFCF2D"/>
<path d="M103.175 133.225C104.342 134.122 104.542 135.673 103.642 136.844C102.742 138.015 101.192 138.221 100.025 137.324C98.8574 136.427 98.6569 134.876 99.557 133.704C100.457 132.533 102.105 132.402 103.175 133.225Z" fill="#FFCF2D"/>
<path d="M116.6 115.754C117.767 116.651 117.968 118.202 117.068 119.373C116.168 120.544 114.617 120.75 113.45 119.853C112.283 118.956 112.082 117.405 112.982 116.234C113.807 115.16 115.53 114.932 116.6 115.754Z" fill="#FFCF2D"/>
<path d="M130.025 98.2842C131.193 99.1813 131.393 100.732 130.493 101.904C129.593 103.075 128.043 103.28 126.875 102.383C125.708 101.486 125.508 99.9351 126.408 98.7639C127.308 97.5928 128.955 97.4619 130.025 98.2842Z" fill="#FFCF2D"/>
<path d="M143.375 80.9121C144.543 81.8092 144.743 83.3603 143.843 84.5315C142.943 85.7027 141.393 85.9083 140.225 85.0112C139.058 84.1142 138.858 82.563 139.758 81.3919C140.658 80.2207 142.305 80.0899 143.375 80.9121Z" fill="#FFCF2D"/>
<path d="M156.801 63.4424C157.968 64.3395 158.168 65.8906 157.268 67.0618C156.368 68.2329 154.818 68.4385 153.651 67.5415C152.483 66.6445 152.283 65.0933 153.183 63.9221C154.083 62.751 155.731 62.6201 156.801 63.4424Z" fill="#FFCF2D"/>
<path d="M170.226 45.9727C171.393 46.8697 171.594 48.4209 170.694 49.592C169.794 50.7632 168.243 50.9688 167.076 50.0718C165.909 49.1747 165.708 47.6236 166.608 46.4524C167.433 45.3789 169.156 45.1504 170.226 45.9727Z" fill="#FFCF2D"/>
<path d="M77.4677 196.674C78.635 197.571 78.8354 199.122 77.9354 200.293C77.0354 201.464 75.4849 201.67 74.3176 200.773C73.1504 199.876 72.9499 198.325 73.8499 197.154C74.7499 195.982 76.3004 195.777 77.4677 196.674Z" fill="#FFCF2D"/>
<path d="M90.893 179.204C92.0603 180.101 92.2607 181.652 91.3607 182.823C90.4607 183.995 88.9102 184.2 87.7429 183.303C86.5757 182.406 86.3752 180.855 87.2752 179.684C88.1002 178.61 89.7257 178.307 90.893 179.204Z" fill="#FFCF2D"/>
<path d="M104.243 161.832C105.41 162.729 105.611 164.28 104.711 165.451C103.811 166.623 102.26 166.828 101.093 165.931C99.9258 165.034 99.7253 163.483 100.625 162.312C101.525 161.141 103.076 160.935 104.243 161.832Z" fill="#FFCF2D"/>
<path d="M118.136 147.982C119.006 146.85 118.797 145.229 117.668 144.362C116.54 143.495 114.92 143.71 114.051 144.842C113.181 145.974 113.39 147.594 114.518 148.461C115.647 149.328 117.266 149.114 118.136 147.982Z" fill="#FFCF2D"/>
<path d="M131.094 126.893C132.261 127.79 132.461 129.341 131.561 130.512C130.661 131.683 129.111 131.889 127.944 130.992C126.776 130.095 126.576 128.544 127.476 127.372C128.301 126.299 129.926 125.996 131.094 126.893Z" fill="#FFCF2D"/>
<path d="M144.519 109.423C145.686 110.32 145.887 111.871 144.987 113.042C144.087 114.213 142.536 114.419 141.369 113.522C140.202 112.625 140.001 111.074 140.901 109.903C141.801 108.731 143.352 108.526 144.519 109.423Z" fill="#FFCF2D"/>
<path d="M157.869 92.0508C159.036 92.9479 159.237 94.499 158.337 95.6702C157.437 96.8413 155.886 97.0469 154.719 96.1499C153.552 95.2529 153.351 93.7017 154.251 92.5305C155.151 91.3594 156.702 91.1538 157.869 92.0508Z" fill="#FFCF2D"/>
<path d="M171.762 78.1995C172.632 77.0675 172.423 75.4471 171.294 74.5801C170.166 73.7131 168.546 73.9279 167.677 75.0598C166.807 76.1918 167.016 77.8122 168.144 78.6792C169.272 79.5462 170.892 79.3314 171.762 78.1995Z" fill="#FFCF2D"/>
<path d="M184.72 57.1104C185.887 58.0074 186.087 59.5586 185.187 60.7297C184.287 61.9009 182.737 62.1065 181.57 61.2095C180.402 60.3124 180.202 58.7613 181.102 57.5901C181.927 56.5165 183.552 56.2134 184.72 57.1104Z" fill="#FFCF2D"/>
<path d="M91.9614 207.813C93.1286 208.71 93.3291 210.261 92.4291 211.432C91.5291 212.603 89.9786 212.809 88.8113 211.912C87.644 211.015 87.4436 209.463 88.3436 208.292C89.2436 207.121 90.7941 206.916 91.9614 207.813Z" fill="#FFCF2D"/>
<path d="M105.387 190.343C106.554 191.24 106.754 192.791 105.854 193.962C104.954 195.133 103.404 195.339 102.237 194.442C101.069 193.545 100.869 191.994 101.769 190.823C102.594 189.749 104.219 189.446 105.387 190.343Z" fill="#FFCF2D"/>
<path d="M118.737 172.971C119.904 173.868 120.104 175.419 119.204 176.59C118.304 177.761 116.754 177.967 115.587 177.07C114.419 176.173 114.219 174.622 115.119 173.45C116.019 172.279 117.569 172.074 118.737 172.971Z" fill="#FFCF2D"/>
<path d="M132.162 155.5C133.329 156.397 133.53 157.948 132.63 159.119C131.73 160.291 130.179 160.496 129.012 159.599C127.845 158.702 127.644 157.151 128.544 155.98C129.444 154.809 130.995 154.603 132.162 155.5Z" fill="#FFCF2D"/>
<path d="M145.587 138.03C146.755 138.927 146.955 140.479 146.055 141.65C145.155 142.821 143.605 143.026 142.437 142.129C141.27 141.232 141.07 139.681 141.97 138.51C142.795 137.436 144.42 137.133 145.587 138.03Z" fill="#FFCF2D"/>
<path d="M159.013 120.561C160.18 121.458 160.38 123.009 159.48 124.18C158.58 125.351 157.03 125.557 155.863 124.66C154.695 123.763 154.495 122.211 155.395 121.04C156.295 119.869 157.845 119.664 159.013 120.561Z" fill="#FFCF2D"/>
<path d="M172.363 103.189C173.53 104.086 173.73 105.637 172.83 106.808C171.93 107.979 170.38 108.185 169.213 107.288C168.045 106.391 167.845 104.839 168.745 103.668C169.645 102.497 171.195 102.291 172.363 103.189Z" fill="#FFCF2D"/>
<path d="M185.788 85.7188C186.955 86.6158 187.156 88.167 186.256 89.3381C185.356 90.5093 183.805 90.7149 182.638 89.8179C181.471 88.9208 181.27 87.3697 182.17 86.1985C183.07 85.0274 184.621 84.8218 185.788 85.7188Z" fill="#FFCF2D"/>
<path d="M199.213 68.2491C200.381 69.1461 200.581 70.6973 199.681 71.8684C198.781 73.0396 197.231 73.2452 196.063 72.3481C194.896 71.4511 194.696 69.8999 195.596 68.7288C196.421 67.6552 198.046 67.352 199.213 68.2491Z" fill="#FFCF2D"/>
<path d="M106.358 218.876C107.525 219.773 107.726 221.324 106.826 222.495C105.926 223.667 104.375 223.872 103.208 222.975C102.041 222.078 101.84 220.527 102.74 219.356C103.64 218.185 105.288 218.054 106.358 218.876Z" fill="#FFCF2D"/>
<path d="M119.783 201.406C120.95 202.303 121.151 203.854 120.251 205.026C119.351 206.197 117.8 206.402 116.633 205.505C115.466 204.608 115.265 203.057 116.165 201.886C116.99 200.812 118.713 200.584 119.783 201.406Z" fill="#FFCF2D"/>
<path d="M133.133 184.034C134.301 184.931 134.501 186.482 133.601 187.654C132.701 188.825 131.15 189.03 129.983 188.133C128.816 187.236 128.615 185.685 129.515 184.514C130.415 183.343 132.063 183.212 133.133 184.034Z" fill="#FFCF2D"/>
<path d="M146.559 166.564C147.726 167.461 147.926 169.012 147.026 170.183C146.126 171.354 144.576 171.56 143.408 170.663C142.241 169.766 142.041 168.214 142.941 167.043C143.841 165.872 145.489 165.741 146.559 166.564Z" fill="#FFCF2D"/>
<path d="M159.984 149.094C161.151 149.991 161.352 151.542 160.452 152.713C159.552 153.884 158.001 154.09 156.834 153.193C155.666 152.296 155.466 150.745 156.366 149.574C157.191 148.5 158.914 148.272 159.984 149.094Z" fill="#FFCF2D"/>
<path d="M173.409 131.624C174.576 132.521 174.777 134.072 173.877 135.243C172.977 136.415 171.426 136.62 170.259 135.723C169.092 134.826 168.891 133.275 169.791 132.104C170.691 130.933 172.339 130.802 173.409 131.624Z" fill="#FFCF2D"/>
<path d="M186.759 114.252C187.926 115.149 188.127 116.7 187.227 117.871C186.327 119.042 184.776 119.248 183.609 118.351C182.442 117.454 182.241 115.903 183.141 114.732C184.041 113.561 185.689 113.43 186.759 114.252Z" fill="#FFCF2D"/>
<path d="M200.185 96.7823C201.352 97.6793 201.552 99.2305 200.652 100.402C199.752 101.573 198.202 101.778 197.034 100.881C195.867 99.9843 195.667 98.4332 196.567 97.262C197.467 96.0908 199.114 95.96 200.185 96.7823Z" fill="#FFCF2D"/>
<path d="M213.61 79.3126C214.777 80.2096 214.978 81.7607 214.078 82.9319C213.178 84.103 211.627 84.3086 210.46 83.4116C209.292 82.5146 209.092 80.9634 209.992 79.7923C210.817 78.7187 212.54 78.4903 213.61 79.3126Z" fill="#FFCF2D"/>
</svg>
